<svg width="25" height="25" viewBox="0 0 25 25" fill="none" xmlns="http://www.w3.org/2000/svg">
<g clip-path="url(#clip0_803_14497)">
<path fill-rule="evenodd" clip-rule="evenodd" d="M24.25 12.5C24.25 19.127 18.877 24.5 12.25 24.5C5.623 24.5 0.25 19.127 0.25 12.5C0.25 5.873 5.623 0.5 12.25 0.5C18.877 0.5 24.25 5.873 24.25 12.5ZM12.68 9.359C11.513 9.844 9.18 10.849 5.682 12.373C5.114 12.599 4.816 12.82 4.789 13.036C4.743 13.402 5.201 13.546 5.823 13.741C5.908 13.768 5.996 13.795 6.086 13.825C6.699 14.024 7.523 14.257 7.951 14.266C8.34 14.274 8.774 14.114 9.253 13.786C12.521 11.579 14.208 10.464 14.314 10.44C14.389 10.423 14.493 10.401 14.563 10.464C14.633 10.526 14.626 10.644 14.619 10.676C14.573 10.869 12.779 12.538 11.849 13.402C11.559 13.671 11.354 13.862 11.312 13.906C11.218 14.003 11.122 14.096 11.03 14.185C10.46 14.733 10.034 15.145 11.054 15.817C11.544 16.14 11.936 16.407 12.327 16.673C12.754 16.964 13.18 17.254 13.732 17.616C13.872 17.708 14.006 17.803 14.137 17.896C14.634 18.251 15.081 18.569 15.633 18.519C15.953 18.489 16.285 18.188 16.453 17.289C16.85 15.163 17.632 10.559 17.813 8.661C17.824 8.50341 17.8173 8.34509 17.793 8.189C17.7785 8.06293 17.7171 7.94693 17.621 7.864C17.478 7.747 17.256 7.722 17.156 7.724C16.705 7.732 16.013 7.973 12.68 9.359Z" fill="#3E3E3E"/>
</g>
<defs>
<clipPath id="clip0_803_14497">
<rect width="24" height="24" fill="white" transform="translate(0.25 0.5)"/>
</clipPath>
</defs>
</svg>
