<svg width="25" height="24" viewBox="0 0 25 24" fill="none" xmlns="http://www.w3.org/2000/svg">
<path d="M19.9878 18.0037H4.98779C4.59009 18.0033 4.20879 17.8451 3.92757 17.5639C3.64635 17.2827 3.48819 16.9014 3.48779 16.5037V6.00366C3.48819 5.60596 3.64635 5.22466 3.92757 4.94344C4.20879 4.66222 4.59009 4.50406 4.98779 4.50366H19.9878C20.3855 4.50406 20.7668 4.66222 21.048 4.94344C21.3292 5.22466 21.4874 5.60596 21.4878 6.00366V16.5037C21.4872 16.9013 21.329 17.2825 21.0478 17.5637C20.7666 17.8448 20.3854 18.0031 19.9878 18.0037ZM4.98779 6.00366V16.5037H19.9878V6.00366H4.98779Z" fill="#2285E0"/>
<path d="M1.98779 19.5037H22.9878V21.0037H1.98779V19.5037Z" fill="#2285E0"/>
</svg>
