<svg width="25" height="24" viewBox="0 0 25 24" fill="none" xmlns="http://www.w3.org/2000/svg">
<g clip-path="url(#clip0_803_14889)">
<path d="M14.897 11.7996L12.2018 10.542C11.9666 10.4328 11.7734 10.5552 11.7734 10.8156V13.1844C11.7734 13.4448 11.9666 13.5672 12.2018 13.458L14.8958 12.2004C15.1322 12.09 15.1322 11.91 14.897 11.7996ZM12.9734 0.480011C6.61097 0.480011 1.45337 5.63761 1.45337 12C1.45337 18.3624 6.61097 23.52 12.9734 23.52C19.3358 23.52 24.4934 18.3624 24.4934 12C24.4934 5.63761 19.3358 0.480011 12.9734 0.480011ZM12.9734 16.68C7.07657 16.68 6.97337 16.1484 6.97337 12C6.97337 7.85161 7.07657 7.32001 12.9734 7.32001C18.8702 7.32001 18.9734 7.85161 18.9734 12C18.9734 16.1484 18.8702 16.68 12.9734 16.68Z" fill="#9FB7D3"/>
</g>
<defs>
<clipPath id="clip0_803_14889">
<rect width="24" height="24" fill="white" transform="translate(0.973389)"/>
</clipPath>
</defs>
</svg>
