<svg width="24" height="24" viewBox="0 0 24 24" fill="none" xmlns="http://www.w3.org/2000/svg">
<g clip-path="url(#clip0_803_14891)">
<path d="M11.9867 0C5.62428 0 0.466675 5.1576 0.466675 11.52C0.466675 17.8824 5.62428 23.04 11.9867 23.04C18.3491 23.04 23.5067 17.8824 23.5067 11.52C23.5067 5.1576 18.3491 0 11.9867 0ZM14.7155 7.9608H12.9839C12.7787 7.9608 12.5507 8.2308 12.5507 8.5896V9.84H14.7167L14.3891 11.6232H12.5507V16.9764H10.5071V11.6232H8.65308V9.84H10.5071V8.7912C10.5071 7.2864 11.5511 6.0636 12.9839 6.0636H14.7155V7.9608Z" fill="#9FB7D3"/>
</g>
<defs>
<clipPath id="clip0_803_14891">
<rect width="23.04" height="23.04" fill="white" transform="translate(0.466675)"/>
</clipPath>
</defs>
</svg>
