<svg width="56" height="35" viewBox="0 0 56 35" fill="none" xmlns="http://www.w3.org/2000/svg">
<path d="M35.0259 4.08932H20.0968V30.9109H35.0259V4.08932Z" fill="#FF5A00"/>
<path d="M21.0907 17.5C21.0907 12.0507 23.6525 7.21416 27.5835 4.08921C24.6904 1.81452 21.041 0.439758 17.0602 0.439758C7.63018 0.439758 0 8.06994 0 17.5C0 26.9301 7.63018 34.5602 17.0602 34.5602C21.041 34.5602 24.6904 33.1855 27.5835 30.9108C23.6469 27.83 21.0907 22.9493 21.0907 17.5Z" fill="#EB001B"/>
<path d="M55.167 17.5C55.167 26.93 47.5368 34.5602 38.1067 34.5602C34.126 34.5602 30.4765 33.1855 27.5835 30.9108C31.5642 27.7803 34.0763 22.9493 34.0763 17.5C34.0763 12.0506 31.5145 7.21413 27.5835 4.08918C30.471 1.81448 34.1205 0.439728 38.1012 0.439728C47.5368 0.439728 55.167 8.1196 55.167 17.5Z" fill="#F79E1B"/>
<path d="M9.92964 20.6277V17.7843C9.92964 16.6966 9.26711 15.9844 8.12976 15.9844C7.56108 15.9844 6.94272 16.1721 6.51759 16.7905C6.18633 16.2715 5.71151 15.9844 4.99929 15.9844C4.52447 15.9844 4.04966 16.128 3.67422 16.6469V16.0783H2.68042V20.6277H3.67422V18.1156C3.67422 17.3095 4.09935 16.9285 4.76188 16.9285C5.42441 16.9285 5.75568 17.3536 5.75568 18.1156V20.6277H6.74948V18.1156C6.74948 17.3095 7.2243 16.9285 7.83714 16.9285C8.49967 16.9285 8.83094 17.3536 8.83094 18.1156V20.6277H9.92964ZM24.671 16.0783H23.0589V14.7035H22.0651V16.0783H21.1651V16.9782H22.0651V19.0652C22.0651 20.1087 22.4902 20.7215 23.6275 20.7215C24.0527 20.7215 24.5275 20.578 24.8587 20.3903L24.5716 19.5345C24.2845 19.7222 23.9533 19.7719 23.7159 19.7719C23.241 19.7719 23.0533 19.4848 23.0533 19.0155V16.9782H24.6655V16.0783H24.671ZM33.1073 15.9789C32.5386 15.9789 32.1576 16.266 31.9202 16.6414V16.0727H30.9264V20.6221H31.9202V18.0603C31.9202 17.304 32.2515 16.8733 32.8699 16.8733C33.0576 16.8733 33.295 16.923 33.4882 16.9672L33.7753 16.0175C33.5766 15.9789 33.295 15.9789 33.1073 15.9789ZM20.359 16.4537C19.8842 16.1224 19.2217 15.9789 18.5095 15.9789C17.3721 15.9789 16.6157 16.5476 16.6157 17.4475C16.6157 18.2039 17.1844 18.6345 18.1782 18.7726L18.653 18.8223C19.172 18.9161 19.4591 19.0597 19.4591 19.2971C19.4591 19.6283 19.0781 19.8658 18.4156 19.8658C17.7531 19.8658 17.2286 19.6283 16.8973 19.3909L16.4225 20.1473C16.9415 20.5283 17.6537 20.716 18.3659 20.716C19.691 20.716 20.4529 20.0976 20.4529 19.2474C20.4529 18.4413 19.8345 18.0162 18.8904 17.8726L18.4156 17.8229C17.9905 17.7732 17.6592 17.6794 17.6592 17.3978C17.6592 17.0665 17.9905 16.8788 18.515 16.8788C19.0837 16.8788 19.6523 17.1162 19.9394 17.2598L20.359 16.4537ZM46.7996 15.9789C46.231 15.9789 45.85 16.266 45.6126 16.6414V16.0727H44.6188V20.6221H45.6126V18.0603C45.6126 17.304 45.9439 16.8733 46.5622 16.8733C46.75 16.8733 46.9874 16.923 47.1806 16.9672L47.4677 16.0286C47.2745 15.9789 46.9929 15.9789 46.7996 15.9789ZM34.1011 18.353C34.1011 19.7277 35.0507 20.7215 36.5193 20.7215C37.1819 20.7215 37.6567 20.578 38.1315 20.2025L37.6567 19.3965C37.2757 19.6836 36.9003 19.8216 36.4696 19.8216C35.6636 19.8216 35.0949 19.2529 35.0949 18.353C35.0949 17.4972 35.6636 16.9285 36.4696 16.8843C36.8948 16.8843 37.2757 17.0279 37.6567 17.3095L38.1315 16.5034C37.6567 16.1224 37.1819 15.9844 36.5193 15.9844C35.0507 15.9789 34.1011 16.9782 34.1011 18.353ZM43.2937 18.353V16.0783H42.2999V16.6469C41.9687 16.2218 41.4939 15.9844 40.8755 15.9844C39.5946 15.9844 38.6008 16.9782 38.6008 18.353C38.6008 19.7277 39.5946 20.7215 40.8755 20.7215C41.538 20.7215 42.0128 20.4841 42.2999 20.059V20.6277H43.2937V18.353ZM39.6443 18.353C39.6443 17.5469 40.1633 16.8843 41.019 16.8843C41.8251 16.8843 42.3938 17.5027 42.3938 18.353C42.3938 19.159 41.8251 19.8216 41.019 19.8216C40.1688 19.7719 39.6443 19.1535 39.6443 18.353ZM27.7518 15.9789C26.4267 15.9789 25.4771 16.9285 25.4771 18.3474C25.4771 19.7719 26.4267 20.716 27.8015 20.716C28.464 20.716 29.1266 20.5283 29.6511 20.0976L29.1762 19.3854C28.7953 19.6725 28.3205 19.8602 27.8512 19.8602C27.2328 19.8602 26.62 19.5731 26.4764 18.7726H29.8388C29.8388 18.629 29.8388 18.5352 29.8388 18.3916C29.883 16.9285 29.0272 15.9789 27.7518 15.9789ZM27.7518 16.8347C28.3702 16.8347 28.7953 17.2156 28.8891 17.9223H26.5206C26.6145 17.3095 27.0396 16.8347 27.7518 16.8347ZM52.4422 18.353V14.2784H51.4484V16.6469C51.1172 16.2218 50.6423 15.9844 50.024 15.9844C48.7431 15.9844 47.7493 16.9782 47.7493 18.353C47.7493 19.7277 48.7431 20.7215 50.024 20.7215C50.6865 20.7215 51.1613 20.4841 51.4484 20.059V20.6277H52.4422V18.353ZM48.7928 18.353C48.7928 17.5469 49.3118 16.8843 50.1675 16.8843C50.9736 16.8843 51.5423 17.5027 51.5423 18.353C51.5423 19.159 50.9736 19.8216 50.1675 19.8216C49.3118 19.7719 48.7928 19.1535 48.7928 18.353ZM15.5225 18.353V16.0783H14.5287V16.6469C14.1975 16.2218 13.7226 15.9844 13.1043 15.9844C11.8234 15.9844 10.8296 16.9782 10.8296 18.353C10.8296 19.7277 11.8234 20.7215 13.1043 20.7215C13.7668 20.7215 14.2416 20.4841 14.5287 20.059V20.6277H15.5225V18.353ZM11.8289 18.353C11.8289 17.5469 12.3479 16.8843 13.2037 16.8843C14.0097 16.8843 14.5784 17.5027 14.5784 18.353C14.5784 19.159 14.0097 19.8216 13.2037 19.8216C12.3479 19.7719 11.8289 19.1535 11.8289 18.353Z" fill="white"/>
</svg>
