<svg width="41" height="40" viewBox="0 0 41 40" fill="none" xmlns="http://www.w3.org/2000/svg">
<g clip-path="url(#clip0_803_17978)">
<path d="M36.6543 31.9414C35.3252 33.7666 33.6953 35.2813 31.8291 36.5381C29.0918 38.3818 26.0723 39.4932 22.791 39.8174C13.75 40.709 5.44922 35.6416 2.11133 27.2197C1.41602 25.4648 0.988281 23.6416 0.834961 21.7578C0.830078 21.6943 0.833984 21.627 0.757812 21.5977C0.757812 20.5068 0.757812 19.415 0.757812 18.3242C0.834961 18.2969 0.831055 18.2285 0.835937 18.165C0.896484 17.2979 1.03516 16.4414 1.23242 15.5957C2.34375 10.8291 4.8457 6.95996 8.74414 3.99707C8.78711 4.15625 8.69629 4.27344 8.61621 4.38965C6.98926 6.7627 5.95508 9.38086 5.47754 12.207C5.20703 13.8057 5.13281 15.4209 5.25977 17.0518C5.4707 19.7588 6.19824 22.3105 7.43457 24.7148C8.25098 26.3027 9.28906 27.7402 10.502 29.0596C12.1572 30.8594 14.0771 32.2998 16.2559 33.3867C18.3164 34.415 20.4961 35.0635 22.792 35.3272C26.9121 35.8008 30.7988 35.0635 34.4697 33.1504C35.0801 32.832 35.6748 32.4863 36.2383 32.0879C36.3574 32.0029 36.4736 31.8701 36.6543 31.9414Z" fill="#2285E0"/>
<path fill-rule="evenodd" clip-rule="evenodd" d="M19.152 0.0078125H22.1921C22.2279 0.0802092 22.2909 0.0813128 22.3532 0.0824031C22.3673 0.0826511 22.3814 0.0828984 22.3952 0.0839844C24.3747 0.244141 26.2829 0.704102 28.1276 1.43555C37.1559 5.00977 42.3327 14.8125 40.1931 24.2813C39.5641 27.0645 38.4138 29.6065 36.696 31.8887C36.6833 31.8936 36.6706 31.8984 36.6579 31.9023C36.6608 31.9058 36.6635 31.9094 36.6662 31.913L36.6662 31.9131C36.6689 31.9168 36.6716 31.9204 36.6745 31.9238L36.655 31.9414C36.503 31.8818 36.3969 31.965 36.2959 32.044C36.2762 32.0595 36.2566 32.0748 36.237 32.0889C35.6735 32.4873 35.0788 32.834 34.4684 33.1514C30.7985 35.0645 26.9108 35.8027 22.7907 35.3281C20.4948 35.0635 18.3151 34.415 16.2546 33.3877C14.0759 32.3008 12.1559 30.8604 10.5007 29.0606C9.28778 27.7412 8.24969 26.3037 7.43329 24.7158C6.19696 22.3115 5.46942 19.7598 5.25848 17.0527C5.13153 15.4219 5.20575 13.8066 5.47626 12.208C5.9538 9.38184 6.98798 6.7627 8.61493 4.39063L8.62995 4.36876C8.70578 4.25871 8.78316 4.14642 8.74286 3.99805L8.74872 3.99902C8.78387 4.02832 8.79071 4.01367 8.78387 3.97656C8.83779 3.93689 8.89135 3.89675 8.94488 3.85663C9.04553 3.78119 9.14608 3.70583 9.24872 3.63379C11.8405 1.81934 14.6989 0.678711 17.8307 0.217773C17.9704 0.197067 18.1115 0.184967 18.2525 0.17287C18.5572 0.146741 18.8617 0.120621 19.152 0.0078125ZM19.2414 26.6767C19.2453 26.7565 19.2552 26.8342 19.2704 26.9096C19.2549 26.8339 19.245 26.7559 19.2409 26.6758C19.2136 26.1445 19.2155 25.6104 19.2399 25.0791C19.2751 24.3174 19.7888 23.7539 20.5573 23.6816C21.4382 23.5986 22.3083 23.5147 23.1452 23.1904C25.8776 22.1318 27.5856 19.3516 27.3307 16.3457C27.2586 15.4957 27.0048 14.6765 26.609 13.9315C27.0051 14.6767 27.2591 15.4963 27.3313 16.3467C27.5871 19.3525 25.8781 22.1328 23.1457 23.1914C22.3088 23.5156 21.4387 23.5996 20.5578 23.6826C19.7902 23.7549 19.2756 24.3183 19.2404 25.0801C19.216 25.6113 19.2141 26.1455 19.2414 26.6767ZM26.2862 9.19801C22.9846 6.88513 18.9041 6.74444 15.4782 8.98047C12.613 10.8496 11.1745 13.5811 11.1188 17.0127C11.1147 17.2671 11.1751 17.5044 11.2846 17.7109C11.1754 17.5046 11.1152 17.2676 11.1193 17.0137C11.175 13.581 12.6135 10.8506 15.4787 8.98143C18.9051 6.74571 22.9841 6.88605 26.2862 9.19801ZM20.4929 33.9799C19.7801 33.8747 19.2272 33.2471 19.2344 32.5108C19.2432 31.6992 19.9425 31.0205 20.7442 31.045C20.7582 31.0454 20.7721 31.046 20.7859 31.0468C20.7719 31.046 20.7579 31.0454 20.7438 31.0449C19.9411 31.0205 19.2419 31.6992 19.2341 32.5107C19.2269 33.2472 19.7799 33.8749 20.4929 33.9799Z" fill="#56AEFF"/>
<path d="M8.74902 3.99902C8.75586 3.98437 8.76758 3.97656 8.78418 3.97656C8.79102 4.01269 8.78418 4.02832 8.74902 3.99902Z" fill="#2285E0"/>
<path d="M36.6963 31.8877C36.6963 31.9043 36.6885 31.916 36.6738 31.9229C36.6689 31.916 36.6631 31.9082 36.6572 31.9014C36.6709 31.8975 36.6836 31.8926 36.6963 31.8877Z" fill="#2285E0"/>
<path d="M27.8269 13.5854C28.5908 14.5479 28.988 15.6403 29.0186 16.8625C29.0186 18.0389 28.6366 19.1236 27.8728 20.1167C27.3991 20.7583 26.7804 21.2701 26.0165 21.6521C25.2526 22.034 24.4429 22.225 23.5873 22.225H18.9582V23.8979H23.6103V26.075H18.9582V28H16.2082V26.075H14.604V23.8979H16.2082V22.225H14.604V19.6354H16.2082V11.5H23.5873C24.1679 11.5 24.7255 11.5917 25.2603 11.775C26.3603 12.1111 27.2158 12.7146 27.8269 13.5854ZM25.6269 18.5583C26.0241 18.0236 26.2151 17.4583 26.1998 16.8625C26.1693 16.1444 25.9401 15.5333 25.5123 15.0292C24.9471 14.4181 24.2978 14.1125 23.5644 14.1125H18.9582V19.6354H23.5644C24.3894 19.6354 25.0769 19.2764 25.6269 18.5583Z" fill="white"/>
</g>
<defs>
<clipPath id="clip0_803_17978">
<rect width="40" height="40" fill="white" transform="translate(0.75)"/>
</clipPath>
</defs>
</svg>
