<svg width="107" height="35" viewBox="0 0 107 35" fill="none" xmlns="http://www.w3.org/2000/svg">
<g clip-path="url(#clip0_803_14930)">
<path d="M46.3665 34.4951H37.6988L43.1202 0.614136H51.7875L46.3665 34.4951Z" fill="#004C8A"/>
<path d="M77.7879 1.44243C76.0783 0.756898 73.3666 -1.52588e-05 70.0136 -1.52588e-05C61.4539 -1.52588e-05 55.4263 4.61332 55.3893 11.209C55.3182 16.0753 59.7049 18.7781 62.9858 20.4007C66.3393 22.0587 67.4792 23.1409 67.4792 24.6188C67.4451 26.8886 64.7695 27.9348 62.2739 27.9348C58.8134 27.9348 56.9591 27.3954 54.1413 26.1326L52.9999 25.5913L51.787 33.1968C53.8199 34.1329 57.5654 34.9636 61.4539 35C70.5487 35 76.4698 30.458 76.5399 23.4293C76.5745 19.5724 74.2582 16.6171 69.2643 14.2022C66.2326 12.6519 64.3761 11.6066 64.3761 10.0205C64.4116 8.57849 65.9464 7.10155 69.3685 7.10155C72.1864 7.02921 74.2567 7.71378 75.8252 8.39884L76.6091 8.75861L77.7879 1.44243Z" fill="#004C8A"/>
<path d="M89.3081 22.4923C90.022 20.5458 92.7687 13.0126 92.7687 13.0126C92.7327 13.085 93.4811 11.0303 93.9091 9.76894L94.5149 12.6883C94.5149 12.6883 96.1563 20.7983 96.5127 22.4923C95.1581 22.4923 91.0202 22.4923 89.3081 22.4923ZM100.007 0.614136H93.3029C91.2354 0.614136 89.6646 1.22637 88.7725 3.42525L75.8977 34.4946H84.9925C84.9925 34.4946 86.4898 30.3129 86.8117 29.4123C87.8094 29.4123 96.6568 29.4123 97.9403 29.4123C98.1892 30.6018 98.9746 34.4946 98.9746 34.4946H107L100.007 0.614136Z" fill="#004C8A"/>
<path d="M30.4592 0.614136L21.9706 23.7177L21.043 19.032C19.4736 13.6254 14.5518 7.75115 9.05927 4.83033L16.8345 34.4591H26.0004L39.6246 0.614136H30.4592Z" fill="#004C8A"/>
<path d="M14.0882 0.614136H0.142669L0 1.29871C10.8784 4.1103 18.083 10.8875 21.043 19.0335L18.0114 3.46214C17.5123 1.29823 15.9785 0.685515 14.0882 0.614136Z" fill="#FAA61A"/>
</g>
<defs>
<clipPath id="clip0_803_14930">
<rect width="107" height="35" fill="white"/>
</clipPath>
</defs>
</svg>
