<svg width="81" height="80" viewBox="0 0 81 80" fill="none" xmlns="http://www.w3.org/2000/svg">
<path d="M46.354 33.6921C46.4553 33.5507 46.5214 33.3873 46.5468 33.2153C46.5722 33.0433 46.5563 32.8677 46.5003 32.7031L45.6956 30.3366C45.1151 28.6299 43.2484 27.2932 41.4456 27.2932H26.0795C24.2712 27.2932 22.4152 28.6396 21.8536 30.3587L21.0841 32.7157C21.0304 32.8799 21.0165 33.0545 21.0433 33.2251C21.0701 33.3958 21.137 33.5576 21.2384 33.6975C21.3399 33.8373 21.473 33.9511 21.6268 34.0296C21.7807 34.1081 21.951 34.149 22.1238 34.149H45.4648C45.6387 34.149 45.81 34.1075 45.9647 34.0281C46.1193 33.9486 46.2528 33.8335 46.354 33.6921ZM23.6316 31.9615L23.9331 31.0377C24.1987 30.2229 25.2223 29.4807 26.0795 29.4807H41.4458C42.3083 29.4807 43.3469 30.2245 43.6245 31.041L43.937 31.9615H23.6316Z" fill="#DBE7EC"/>
<path d="M24.6587 36.0537C24.3686 36.0537 24.0904 36.1689 23.8853 36.3741C23.6802 36.5792 23.5649 36.8574 23.5649 37.1475C23.5649 37.4375 23.6802 37.7157 23.8853 37.9209C24.0904 38.126 24.3686 38.2412 24.6587 38.2412H42.8053C43.0953 38.2412 43.3735 38.126 43.5787 37.9209C43.7838 37.7157 43.899 37.4375 43.899 37.1475C43.899 36.8574 43.7838 36.5792 43.5787 36.3741C43.3735 36.1689 43.0953 36.0537 42.8053 36.0537H24.6587Z" fill="#DBE7EC"/>
<path d="M57.8496 38.8367H52.6328C52.3427 38.8367 52.0645 38.9519 51.8594 39.157C51.6542 39.3621 51.539 39.6403 51.539 39.9304V45.147C51.539 45.4371 51.6542 45.7153 51.8594 45.9204C52.0645 46.1255 52.3427 46.2407 52.6328 46.2407H53.7921C54.0822 46.2407 54.3604 46.1255 54.5655 45.9204C54.7706 45.7153 54.8859 45.4371 54.8859 45.147C54.8859 44.8569 54.7706 44.5787 54.5655 44.3736C54.3604 44.1685 54.0822 44.0532 53.7921 44.0532H53.7265V41.0242H56.8128C56.8953 41.2704 57.0627 41.4792 57.2851 41.6132C57.5074 41.7473 57.7702 41.7979 58.0265 41.7559C58.2827 41.714 58.5157 41.5823 58.6837 41.3843C58.8517 41.1863 58.9438 40.9351 58.9435 40.6754V39.9304C58.9435 39.7868 58.9152 39.6445 58.8603 39.5118C58.8053 39.3791 58.7247 39.2585 58.6231 39.157C58.5216 39.0554 58.401 38.9748 58.2682 38.9199C58.1355 38.8649 57.9933 38.8366 57.8496 38.8367Z" fill="#DBE7EC"/>
<path d="M51.539 55.2907C51.539 55.5808 51.6542 55.859 51.8594 56.0641C52.0645 56.2692 52.3427 56.3844 52.6328 56.3844H57.8496C58.1397 56.3844 58.4179 56.2692 58.623 56.0641C58.8281 55.859 58.9434 55.5808 58.9434 55.2907V50.074C58.9434 49.7839 58.8281 49.5057 58.623 49.3006C58.4179 49.0955 58.1397 48.9802 57.8496 48.9802H52.6328C52.3427 48.9802 52.0645 49.0955 51.8594 49.3006C51.6542 49.5057 51.539 49.7839 51.539 50.074V55.2907ZM53.7265 51.1677H56.7559V54.1969H53.7265V51.1677Z" fill="#DBE7EC"/>
<path d="M51.5391 65.4353C51.5391 65.7254 51.6543 66.0036 51.8594 66.2087C52.0645 66.4138 52.3427 66.5291 52.6328 66.5291H53.7923C54.0824 66.5291 54.3606 66.4138 54.5657 66.2087C54.7709 66.0036 54.8861 65.7254 54.8861 65.4353C54.8861 65.1452 54.7709 64.867 54.5657 64.6619C54.3606 64.4568 54.0824 64.3416 53.7923 64.3416H53.7266V61.3125H56.7563C56.7598 61.6026 56.8784 61.8794 57.0861 62.082C57.2937 62.2846 57.5733 62.3964 57.8634 62.3929C58.1535 62.3893 58.4302 62.2707 58.6329 62.0631C58.8355 61.8555 58.9473 61.5759 58.9438 61.2858V60.2187C58.9438 59.9287 58.8285 59.6505 58.6234 59.4453C58.4183 59.2402 58.1401 59.125 57.85 59.125H52.6328C52.3427 59.125 52.0645 59.2402 51.8594 59.4453C51.6543 59.6505 51.5391 59.9287 51.5391 60.2187V65.4353Z" fill="#DBE7EC"/>
<path d="M61.9555 40.1876C61.8539 40.086 61.7334 40.0054 61.6007 39.9505C61.4679 39.8955 61.3257 39.8672 61.1821 39.8672C61.0384 39.8672 60.8962 39.8955 60.7635 39.9505C60.6308 40.0054 60.5102 40.086 60.4086 40.1876L57.1561 43.4412L56.1597 42.4448C56.0582 42.3432 55.9376 42.2626 55.8049 42.2077C55.6722 42.1527 55.5299 42.1244 55.3863 42.1244C55.2426 42.1244 55.1004 42.1527 54.9677 42.2077C54.835 42.2626 54.7144 42.3432 54.6128 42.4448C54.5113 42.5463 54.4307 42.6669 54.3757 42.7996C54.3208 42.9323 54.2925 43.0746 54.2925 43.2182C54.2925 43.3618 54.3208 43.5041 54.3757 43.6368C54.4307 43.7695 54.5113 43.8901 54.6128 43.9916L56.3825 45.7613C56.4841 45.8629 56.6047 45.9435 56.7374 45.9985C56.8701 46.0534 57.0123 46.0817 57.156 46.0817C57.2996 46.0817 57.4419 46.0534 57.5746 45.9985C57.7073 45.9435 57.8278 45.8629 57.9294 45.7613L61.956 41.7346C62.0575 41.633 62.1381 41.5124 62.1931 41.3797C62.248 41.2469 62.2763 41.1047 62.2762 40.961C62.2762 40.8173 62.2478 40.6751 62.1928 40.5424C62.1378 40.4097 62.0571 40.2891 61.9555 40.1876Z" fill="#DBE7EC"/>
<path d="M60.4086 60.6329L57.1561 63.8861L56.1597 62.8897C56.0582 62.7882 55.9376 62.7076 55.8049 62.6526C55.6722 62.5977 55.5299 62.5694 55.3863 62.5694C55.2426 62.5694 55.1004 62.5977 54.9677 62.6526C54.835 62.7076 54.7144 62.7882 54.6128 62.8897C54.5113 62.9913 54.4307 63.1119 54.3757 63.2446C54.3208 63.3773 54.2925 63.5195 54.2925 63.6632C54.2925 63.8068 54.3208 63.9491 54.3757 64.0818C54.4307 64.2145 54.5113 64.335 54.6128 64.4366L56.3825 66.2063C56.4841 66.3079 56.6047 66.3885 56.7374 66.4434C56.8701 66.4984 57.0123 66.5267 57.156 66.5267C57.2996 66.5267 57.4418 66.4984 57.5746 66.4434C57.7073 66.3885 57.8278 66.3079 57.9294 66.2063L61.9561 62.1797C62.1612 61.9746 62.2765 61.6964 62.2765 61.4063C62.2765 61.1162 62.1612 60.838 61.9561 60.6329C61.751 60.4277 61.4728 60.3125 61.1827 60.3125C60.8926 60.3125 60.6144 60.4277 60.4092 60.6329H60.4086Z" fill="#DBE7EC"/>
<path d="M48.9556 22.7743C48.9556 23.0644 49.0709 23.3426 49.276 23.5477C49.4811 23.7528 49.7593 23.8681 50.0494 23.8681C50.3395 23.8681 50.6177 23.7528 50.8228 23.5477C51.0279 23.3426 51.1431 23.0644 51.1431 22.7743C51.1431 21.1475 50.4969 19.5872 49.3465 18.4369C48.1961 17.2865 46.6359 16.6403 45.0091 16.6403C43.3822 16.6403 41.822 17.2865 40.6716 18.4369C39.5213 19.5872 38.875 21.1475 38.875 22.7743C38.875 23.0644 38.9902 23.3426 39.1954 23.5477C39.4005 23.7528 39.6787 23.8681 39.9688 23.8681C40.2588 23.8681 40.537 23.7528 40.7421 23.5477C40.9473 23.3426 41.0625 23.0644 41.0625 22.7743C41.0625 21.7276 41.4783 20.7238 42.2184 19.9837C42.9585 19.2436 43.9624 18.8278 45.0091 18.8278C46.0558 18.8278 47.0596 19.2436 47.7997 19.9837C48.5398 20.7238 48.9556 21.7276 48.9556 22.7743Z" fill="#DBE7EC"/>
<path d="M14.0625 28.4602C13.3477 28.4602 12.6491 28.6721 12.0548 29.0692C11.4605 29.4663 10.9973 30.0307 10.7238 30.691C10.4503 31.3514 10.3787 32.078 10.5182 32.779C10.6576 33.48 11.0018 34.1239 11.5072 34.6293C12.0126 35.1347 12.6565 35.4788 13.3575 35.6183C14.0585 35.7577 14.7851 35.6861 15.4454 35.4126C16.1057 35.1391 16.6701 34.6759 17.0672 34.0816C17.4643 33.4874 17.6762 32.7887 17.6762 32.074C17.6752 31.1158 17.2941 30.1973 16.6166 29.5198C15.9392 28.8423 15.0206 28.4612 14.0625 28.4602ZM14.0625 33.5C13.7804 33.5 13.5046 33.4164 13.2701 33.2597C13.0355 33.1029 12.8527 32.8802 12.7448 32.6196C12.6368 32.3589 12.6086 32.0722 12.6636 31.7955C12.7187 31.5188 12.8545 31.2647 13.054 31.0652C13.2535 30.8658 13.5077 30.7299 13.7843 30.6749C14.061 30.6199 14.3478 30.6482 14.6084 30.7562C14.869 30.8641 15.0917 31.047 15.2484 31.2815C15.4051 31.5161 15.4888 31.7919 15.4887 32.074C15.4883 32.4521 15.3379 32.8145 15.0705 33.0819C14.8031 33.3492 14.4406 33.4995 14.0625 33.4999V33.5Z" fill="#DBE7EC"/>
<path d="M63.711 42.5387C63.711 42.8288 63.8262 43.107 64.0314 43.3121C64.2365 43.5172 64.5147 43.6324 64.8047 43.6324H71.7604C72.0505 43.6324 72.3287 43.5172 72.5338 43.3121C72.7389 43.107 72.8541 42.8288 72.8541 42.5387C72.8541 42.2486 72.7389 41.9704 72.5338 41.7653C72.3287 41.5602 72.0505 41.4449 71.7604 41.4449H64.8047C64.5147 41.4449 64.2365 41.5602 64.0314 41.7653C63.8262 41.9704 63.711 42.2486 63.711 42.5387Z" fill="#DBE7EC"/>
<path d="M71.7603 51.5898H64.8047C64.5146 51.5898 64.2364 51.7051 64.0313 51.9102C63.8262 52.1153 63.7109 52.3935 63.7109 52.6836C63.7109 52.9737 63.8262 53.2519 64.0313 53.457C64.2364 53.6621 64.5146 53.7773 64.8047 53.7773H71.7603C72.0504 53.7773 72.3286 53.6621 72.5337 53.457C72.7388 53.2519 72.8541 52.9737 72.8541 52.6836C72.8541 52.3935 72.7388 52.1153 72.5337 51.9102C72.3286 51.7051 72.0504 51.5898 71.7603 51.5898Z" fill="#DBE7EC"/>
<path d="M71.7603 61.7305H64.8047C64.5146 61.7305 64.2364 61.8457 64.0313 62.0508C63.8262 62.2559 63.7109 62.5341 63.7109 62.8242C63.7109 63.1143 63.8262 63.3925 64.0313 63.5976C64.2364 63.8027 64.5146 63.918 64.8047 63.918H71.7603C72.0504 63.918 72.3286 63.8027 72.5337 63.5976C72.7388 63.3925 72.8541 63.1143 72.8541 62.8242C72.8541 62.5341 72.7388 62.2559 72.5337 62.0508C72.3286 61.8457 72.0504 61.7305 71.7603 61.7305Z" fill="#DBE7EC"/>
<path d="M59.0804 17.1778C57.9186 17.1778 55.8683 17.1706 54.8269 17.1667L52.918 13.648C51.5118 11.1258 49.4533 8.23047 45.9982 8.23047H21.795C18.985 8.23047 16.4994 10.1575 14.7929 13.6581L12.8029 17.1838C11.76 17.1817 9.67785 17.1778 8.50816 17.1778C6.41441 17.1778 4.7091 18.2348 4.16441 19.8708C3.92438 20.5957 3.77527 21.3476 3.72051 22.1092C3.71338 22.2571 3.73634 22.4048 3.78799 22.5435C3.83963 22.6822 3.9189 22.809 4.02098 22.9162C4.12307 23.0234 4.24584 23.1087 4.38187 23.1671C4.51791 23.2254 4.66437 23.2555 4.81238 23.2556H4.81379L7.29613 23.2523C6.17113 24.3228 5.4691 25.9086 5.4691 27.7077C5.46907 27.7536 5.47194 27.7995 5.47769 27.845L6.89723 39.0581C6.91525 39.8457 7.1961 40.6046 7.69511 41.2142C8.19412 41.8238 8.88263 42.249 9.65113 42.4222V45.8425C9.65192 46.4548 9.89547 47.0417 10.3284 47.4747C10.7613 47.9076 11.3482 48.1512 11.9605 48.152H15.6521C16.2643 48.1512 16.8513 47.9076 17.2842 47.4747C17.7171 47.0417 17.9607 46.4548 17.9614 45.8425V42.5081H47.7055C47.9956 42.5081 48.2738 42.3929 48.4789 42.1878C48.684 41.9827 48.7993 41.7045 48.7993 41.4144C48.7993 41.1243 48.684 40.8461 48.4789 40.641C48.2738 40.4359 47.9956 40.3206 47.7055 40.3206H10.4218C10.0671 40.3202 9.72715 40.1792 9.4764 39.9284C9.22566 39.6776 9.08463 39.3376 9.08426 38.983C9.08424 38.9371 9.08131 38.8912 9.07551 38.8456L7.65738 27.6425C7.68629 25.458 9.16301 24.1217 10.6493 24.0211C10.7027 24.0294 10.7567 24.0338 10.8108 24.0341H56.6825C56.6907 24.0341 56.6982 24.0353 56.7068 24.0353C58.6733 24.0353 59.9002 25.8936 59.931 27.6406L59.8361 28.3594C59.7982 28.6469 59.876 28.9378 60.0524 29.168C60.2289 29.3982 60.4895 29.5489 60.7771 29.5869C60.825 29.5933 60.8734 29.5965 60.9218 29.5966C61.1868 29.5962 61.4427 29.4997 61.6419 29.3248C61.8411 29.15 61.9701 28.9087 62.0047 28.6459L62.1097 27.8517C62.116 27.8042 62.1191 27.7564 62.1191 27.7084C62.1257 26.8759 61.9605 26.0509 61.634 25.2851C61.3075 24.5192 60.8266 23.8289 60.2213 23.2572H62.7765C62.9245 23.2572 63.071 23.2271 63.2071 23.1687C63.3432 23.1104 63.466 23.025 63.5681 22.9178C63.6702 22.8106 63.7495 22.6838 63.8012 22.5451C63.8528 22.4063 63.8758 22.2585 63.8686 22.1106C63.8137 21.3491 63.6646 20.5972 63.4247 19.8723C62.8794 18.2348 61.1743 17.1778 59.0804 17.1778ZM11.8386 42.5081H15.7739V45.8425C15.7739 45.8748 15.7611 45.9059 15.7383 45.9287C15.7154 45.9516 15.6844 45.9645 15.6521 45.9645H11.9605C11.9282 45.9645 11.8972 45.9516 11.8743 45.9287C11.8515 45.9059 11.8386 45.8748 11.8386 45.8425V42.5081ZM10.6152 21.0613L6.09332 21.067C6.13316 20.9064 6.18113 20.7366 6.23894 20.5631C6.47769 19.847 7.38957 19.3659 8.50816 19.3659C9.30973 19.3659 10.5394 19.3678 11.5697 19.3695L10.6152 21.0613ZM12.6836 21.8467L16.7139 14.7041C16.7252 14.6842 16.7357 14.6641 16.7452 14.6439C17.5108 13.0658 19.1841 10.418 21.7943 10.418H45.9974C47.8293 10.418 49.3275 11.7025 51.0007 14.7025L54.8757 21.8461L12.6836 21.8467ZM56.9446 21.0708L56.0155 19.3581C57.0435 19.3616 58.2749 19.365 59.0799 19.365C60.1985 19.365 61.1111 19.8461 61.3491 20.5622C61.4071 20.7363 61.4552 20.9059 61.4952 21.0683L56.9446 21.0708Z" fill="#DBE7EC"/>
<path d="M55.3023 30.3025H51.3576C50.0994 30.3039 48.8931 30.8044 48.0034 31.6941C47.1137 32.5838 46.6132 33.7901 46.6118 35.0483V67.0211C46.6132 68.2793 47.1137 69.4856 48.0034 70.3753C48.8931 71.265 50.0994 71.7655 51.3576 71.7669H73.0354C74.2936 71.7655 75.4999 71.265 76.3896 70.3753C77.2793 69.4856 77.7798 68.2793 77.7812 67.0211V35.0483C77.7798 33.7901 77.2793 32.5838 76.3896 31.6941C75.4999 30.8044 74.2936 30.3039 73.0354 30.3025H69.0907C68.8894 29.4815 68.4188 28.7517 67.7541 28.2296C67.0893 27.7074 66.2688 27.423 65.4235 27.4219H58.9695C58.1242 27.423 57.3037 27.7074 56.6389 28.2296C55.9742 28.7517 55.5036 29.4815 55.3023 30.3025ZM69.0493 32.49H73.0354C73.7137 32.4908 74.3639 32.7606 74.8435 33.2402C75.3231 33.7198 75.5929 34.37 75.5937 35.0483V67.0211C75.5929 67.6994 75.3232 68.3496 74.8436 68.8292C74.3639 69.3089 73.7137 69.5786 73.0354 69.5794H51.3576C50.6793 69.5786 50.0291 69.3089 49.5494 68.8292C49.0698 68.3496 48.8001 67.6994 48.7993 67.0211V35.0483C48.8001 34.37 49.0699 33.7198 49.5495 33.2402C50.0291 32.7606 50.6793 32.4908 51.3576 32.49H55.3437C55.5719 33.2754 56.0487 33.9656 56.7024 34.4571C57.3561 34.9487 58.1516 35.215 58.9695 35.2161H65.4235C66.2414 35.215 67.0369 34.9487 67.6906 34.4571C68.3443 33.9656 68.8211 33.2754 69.0493 32.49ZM67.0113 31.197V31.4408C67.0108 31.8617 66.8434 32.2653 66.5457 32.563C66.2481 32.8607 65.8445 33.0281 65.4235 33.0286H58.9695C58.5485 33.0281 58.145 32.8606 57.8473 32.563C57.5497 32.2653 57.3823 31.8617 57.3818 31.4408V31.197C57.3823 30.7761 57.5497 30.3725 57.8473 30.0749C58.145 29.7772 58.5485 29.6098 58.9695 29.6094H65.4235C65.8445 29.6098 66.2481 29.7772 66.5457 30.0749C66.8434 30.3725 67.0108 30.7761 67.0113 31.197Z" fill="#DBE7EC"/>
</svg>
