<svg width="81" height="80" viewBox="0 0 81 80" fill="none" xmlns="http://www.w3.org/2000/svg">
<path d="M10.0642 43.1222C10.0619 42.1088 10.4518 41.1338 11.1522 40.4015L26.5967 28.0804L25.2325 26.3704L9.73252 38.7352C9.69799 38.7627 9.66522 38.7922 9.6344 38.8238C8.50431 39.9686 7.87234 41.5136 7.87612 43.1222V67.3993H10.0636L10.0642 43.1222Z" fill="#DBE7EC"/>
<path d="M29.7227 64.7387C31.1359 64.4806 32.414 63.7354 33.3348 62.6328C34.2557 61.5301 34.7611 60.1396 34.7631 58.703V52.4763H32.5756V58.703C32.5744 59.7494 32.1582 60.7525 31.4183 61.4924C30.6784 62.2323 29.6753 62.6484 28.6289 62.6496C28.3388 62.6496 28.0606 62.7648 27.8555 62.9699C27.6504 63.1751 27.5352 63.4533 27.5352 63.7433V67.3996H29.7227V64.7387Z" fill="#DBE7EC"/>
<path d="M32.9986 76.2948V68.9609C32.9978 68.2567 32.7177 67.5815 32.2197 67.0836C31.7218 66.5856 31.0466 66.3055 30.3423 66.3047H6.375C5.67076 66.3055 4.99559 66.5856 4.49762 67.0836C3.99964 67.5815 3.71954 68.2567 3.71875 68.9609V76.2948C3.71954 76.9991 3.99964 77.6743 4.49762 78.1722C4.99559 78.6702 5.67076 78.9503 6.375 78.9511H30.3423C31.0466 78.9503 31.7218 78.6702 32.2197 78.1722C32.7177 77.6743 32.9978 76.9991 32.9986 76.2948ZM5.90625 76.2948V68.9609C5.90625 68.8366 5.95564 68.7174 6.04354 68.6295C6.13145 68.5416 6.25068 68.4922 6.375 68.4922H30.3423C30.4667 68.4922 30.5859 68.5416 30.6738 68.6295C30.7617 68.7174 30.8111 68.8366 30.8111 68.9609V76.2948C30.8111 76.4192 30.7617 76.5384 30.6738 76.6263C30.5859 76.7142 30.4667 76.7636 30.3423 76.7636H6.375C6.25068 76.7636 6.13145 76.7142 6.04354 76.6263C5.95564 76.5384 5.90625 76.4192 5.90625 76.2948Z" fill="#DBE7EC"/>
<path d="M10.2944 69.7079C9.68931 69.6955 9.0942 69.8636 8.58499 70.1907C8.07578 70.5179 7.67555 70.9893 7.43533 71.5448C7.1951 72.1004 7.12578 72.7149 7.23619 73.31C7.3466 73.9051 7.63174 74.4538 8.05526 74.8862C8.47878 75.3186 9.02148 75.615 9.61416 75.7377C10.2068 75.8605 10.8226 75.8039 11.383 75.5752C11.9434 75.3466 12.423 74.9562 12.7607 74.4539C13.0983 73.9515 13.2787 73.36 13.2788 72.7548C13.2861 71.9553 12.9761 71.1855 12.4166 70.6143C11.8571 70.0431 11.0939 69.7172 10.2944 69.7079ZM10.2944 73.6142C10.1217 73.6272 9.94902 73.5879 9.79894 73.5014C9.64886 73.4149 9.52834 73.2851 9.4531 73.1291C9.37786 72.973 9.35138 72.7979 9.37713 72.6266C9.40288 72.4553 9.47966 72.2957 9.59745 72.1687C9.71524 72.0417 9.86858 71.9531 10.0375 71.9145C10.2063 71.8759 10.3829 71.8891 10.5442 71.9524C10.7055 72.0157 10.8439 72.1261 10.9415 72.2692C11.0391 72.4123 11.0913 72.5816 11.0913 72.7548C11.0991 72.9743 11.0196 73.188 10.8703 73.349C10.721 73.5101 10.5139 73.6055 10.2944 73.6143V73.6142Z" fill="#DBE7EC"/>
<path d="M65.6293 36.4339C65.0299 36.4344 64.4313 36.4788 63.8384 36.5669V15.603C63.8384 15.4593 63.8101 15.3171 63.7551 15.1844C63.7002 15.0517 63.6196 14.9311 63.5181 14.8295L50.0555 1.36719C49.954 1.26563 49.8334 1.18507 49.7007 1.13011C49.568 1.07515 49.4258 1.04686 49.2821 1.04688H29.2815C28.0992 1.0482 26.9657 1.51845 26.1297 2.35447C25.2938 3.19048 24.8235 4.32397 24.8223 5.50625V39.0158H27.0098V5.50625C27.0104 4.90393 27.2499 4.32645 27.6758 3.90053C28.1017 3.47461 28.6792 3.23504 29.2815 3.23438H48.1877V12.2373C48.1891 13.4196 48.6593 14.5531 49.4953 15.3891C50.3313 16.2251 51.4648 16.6954 52.6471 16.6967H61.6502V37.103C58.8121 38.0842 56.4383 40.0824 54.9874 42.7117C53.5366 45.341 53.1117 48.4146 53.7948 51.3389H29.2815C28.6792 51.3382 28.1017 51.0987 27.6758 50.6728C27.2499 50.2468 27.0104 49.6694 27.0098 49.067V46.1608H24.8223V49.067C24.8235 50.2493 25.2938 51.3828 26.1297 52.2188C26.9657 53.0548 28.0992 53.5251 29.2815 53.5264H54.5315C55.4209 55.5243 56.8331 57.245 58.619 58.5072C60.4049 59.7694 62.4983 60.5262 64.6784 60.6977C66.8586 60.8693 69.0446 60.4493 71.006 59.482C72.9673 58.5147 74.6312 57.0359 75.8222 55.2018C77.0132 53.3677 77.6871 51.2461 77.7728 49.0609C77.8585 46.8757 77.3528 44.7078 76.3092 42.786C75.2655 40.8643 73.7225 39.2598 71.843 38.1418C69.9634 37.0239 67.817 36.4339 65.6301 36.4342L65.6293 36.4339ZM52.6477 14.5092C52.0454 14.5086 51.4679 14.269 51.042 13.8431C50.6161 13.4172 50.3765 12.8397 50.3759 12.2373V4.78109L60.104 14.5092H52.6477ZM65.6293 58.5506C63.6585 58.5506 61.7319 57.9662 60.0932 56.8713C58.4545 55.7763 57.1773 54.22 56.4231 52.3992C55.6689 50.5784 55.4716 48.5748 55.8561 46.6419C56.2406 44.7089 57.1897 42.9334 58.5833 41.5398C59.9769 40.1462 61.7524 39.1972 63.6854 38.8127C65.6184 38.4282 67.6219 38.6256 69.4427 39.3798C71.2635 40.134 72.8198 41.4113 73.9147 43.05C75.0096 44.6887 75.594 46.6153 75.594 48.5861C75.591 51.228 74.5401 53.7607 72.6721 55.6288C70.804 57.4969 68.2712 58.5476 65.6293 58.5506Z" fill="#DBE7EC"/>
<path d="M46.5397 29.4376H38.9468C38.6567 29.4376 38.3785 29.5529 38.1734 29.758C37.9683 29.9631 37.853 30.2413 37.853 30.5314C37.853 30.8215 37.9683 31.0997 38.1734 31.3048C38.3785 31.5099 38.6567 31.6251 38.9468 31.6251H46.5405C46.8306 31.6251 47.1088 31.5099 47.3139 31.3048C47.519 31.0997 47.6343 30.8215 47.6343 30.5314C47.6343 30.2413 47.519 29.9631 47.3139 29.758C47.1088 29.5529 46.8306 29.4376 46.5405 29.4376H46.5397Z" fill="#DBE7EC"/>
<path d="M53.9816 40.5742C53.9816 40.2841 53.8663 40.0059 53.6612 39.8008C53.4561 39.5957 53.1779 39.4805 52.8878 39.4805H35.5938C35.3037 39.4805 35.0255 39.5957 34.8204 39.8008C34.6152 40.0059 34.5 40.2841 34.5 40.5742C34.5 40.8643 34.6152 41.1425 34.8204 41.3476C35.0255 41.5527 35.3037 41.668 35.5938 41.668H52.8878C53.1779 41.668 53.4561 41.5527 53.6612 41.3476C53.8663 41.1425 53.9816 40.8643 53.9816 40.5742Z" fill="#DBE7EC"/>
<path d="M46.5244 46.1249C46.5244 45.8348 46.4091 45.5566 46.204 45.3515C45.9989 45.1464 45.7207 45.0311 45.4306 45.0311H35.5938C35.3037 45.0311 35.0255 45.1464 34.8204 45.3515C34.6152 45.5566 34.5 45.8348 34.5 46.1249C34.5 46.415 34.6152 46.6932 34.8204 46.8983C35.0255 47.1034 35.3037 47.2186 35.5938 47.2186H45.4309C45.721 47.2185 45.9991 47.1033 46.2041 46.8982C46.4092 46.6931 46.5244 46.4149 46.5244 46.1249Z" fill="#DBE7EC"/>
<path d="M45.2788 25.5625C45.5689 25.5625 45.8471 25.4473 46.0522 25.2421C46.2573 25.037 46.3726 24.7588 46.3726 24.4687C46.3726 24.0637 46.5335 23.6752 46.8199 23.3888C47.1063 23.1023 47.4948 22.9414 47.8999 22.9414C48.305 22.9414 48.6935 23.1023 48.9799 23.3888C49.2663 23.6752 49.4273 24.0637 49.4273 24.4687C49.4273 24.7588 49.5425 25.037 49.7476 25.2421C49.9527 25.4473 50.2309 25.5625 50.521 25.5625C50.8111 25.5625 51.0893 25.4473 51.2944 25.2421C51.4995 25.037 51.6148 24.7588 51.6148 24.4687C51.6148 23.4835 51.2234 22.5386 50.5267 21.842C49.83 21.1453 48.8851 20.7539 47.8999 20.7539C46.9147 20.7539 45.9698 21.1453 45.2731 21.842C44.5764 22.5386 44.1851 23.4835 44.1851 24.4687C44.1851 24.7588 44.3003 25.037 44.5054 25.2421C44.7105 25.4473 44.9887 25.5625 45.2788 25.5625Z" fill="#DBE7EC"/>
<path d="M30.9449 29.8495C30.9449 30.3937 31.1063 30.9257 31.4087 31.3781C31.711 31.8306 32.1408 32.1833 32.6435 32.3916C33.1463 32.5998 33.6996 32.6543 34.2333 32.5482C34.7671 32.442 35.2573 32.1799 35.6422 31.7951C36.027 31.4103 36.289 30.92 36.3952 30.3863C36.5014 29.8525 36.4469 29.2993 36.2386 28.7965C36.0304 28.2937 35.6777 27.864 35.2252 27.5616C34.7727 27.2593 34.2407 27.0979 33.6965 27.0979C32.967 27.0987 32.2676 27.3889 31.7518 27.9047C31.2359 28.4206 30.9458 29.12 30.9449 29.8495ZM34.2606 29.8495C34.2606 29.961 34.2275 30.0701 34.1655 30.1628C34.1035 30.2556 34.0154 30.3279 33.9124 30.3706C33.8093 30.4133 33.6959 30.4244 33.5865 30.4027C33.477 30.3809 33.3765 30.3272 33.2977 30.2483C33.2188 30.1694 33.165 30.0689 33.1433 29.9595C33.1215 29.8501 33.1327 29.7367 33.1754 29.6336C33.2181 29.5305 33.2904 29.4424 33.3831 29.3805C33.4759 29.3185 33.5849 29.2854 33.6965 29.2854C33.8461 29.2856 33.9894 29.345 34.0952 29.4508C34.2009 29.5565 34.2604 29.6999 34.2606 29.8495Z" fill="#DBE7EC"/>
<path d="M51.7893 32.601C52.3335 32.601 52.8655 32.4396 53.318 32.1373C53.7705 31.835 54.1231 31.4052 54.3314 30.9024C54.5397 30.3997 54.5941 29.8464 54.488 29.3127C54.3818 28.7789 54.1197 28.2886 53.7349 27.9038C53.3501 27.519 52.8598 27.2569 52.3261 27.1508C51.7923 27.0446 51.2391 27.0991 50.7363 27.3074C50.2335 27.5156 49.8038 27.8683 49.5014 28.3208C49.1991 28.7733 49.0377 29.3053 49.0377 29.8495C49.0386 30.579 49.3288 31.2783 49.8446 31.7941C50.3604 32.31 51.0598 32.6001 51.7893 32.601ZM51.7893 29.2854C51.9008 29.2854 52.0099 29.3185 52.1027 29.3805C52.1954 29.4424 52.2677 29.5305 52.3104 29.6336C52.3531 29.7367 52.3643 29.8501 52.3425 29.9595C52.3207 30.0689 52.267 30.1694 52.1881 30.2483C52.1092 30.3272 52.0087 30.3809 51.8993 30.4027C51.7899 30.4244 51.6765 30.4133 51.5734 30.3706C51.4704 30.3279 51.3823 30.2556 51.3203 30.1628C51.2583 30.0701 51.2252 29.961 51.2252 29.8495C51.2254 29.6999 51.2849 29.5565 51.3906 29.4508C51.4964 29.345 51.6397 29.2856 51.7893 29.2854Z" fill="#DBE7EC"/>
<path d="M65.6295 44.2246C66.0545 44.2251 66.4621 44.3942 66.7626 44.6947C67.0632 44.9953 67.2323 45.4028 67.2329 45.8279C67.2329 46.118 67.3481 46.3962 67.5532 46.6013C67.7584 46.8064 68.0366 46.9216 68.3266 46.9216C68.6167 46.9216 68.8949 46.8064 69.1 46.6013C69.3051 46.3962 69.4204 46.118 69.4204 45.8279C69.4194 45.0137 69.1567 44.2213 68.671 43.5678C68.1854 42.9143 67.5025 42.4342 66.7232 42.1984V41.6487C66.7232 41.3586 66.608 41.0804 66.4028 40.8753C66.1977 40.6702 65.9195 40.5549 65.6295 40.5549C65.3394 40.5549 65.0612 40.6702 64.8561 40.8753C64.6509 41.0804 64.5357 41.3586 64.5357 41.6487V42.1984C63.6647 42.4607 62.9171 43.0276 62.4293 43.7954C61.9415 44.5632 61.7461 45.4809 61.8788 46.3808C62.0114 47.2808 62.4633 48.103 63.1518 48.6975C63.8404 49.2919 64.7198 49.6189 65.6295 49.6188C66.0546 49.6164 66.4633 49.783 66.7657 50.082C67.068 50.3809 67.2392 50.7877 67.2416 51.2129C67.244 51.6381 67.0774 52.0468 66.7785 52.3491C66.4796 52.6515 66.0728 52.8227 65.6476 52.8251C65.6415 52.8251 65.6355 52.8241 65.6295 52.8241C65.6234 52.8241 65.6173 52.8249 65.6112 52.8251C65.1893 52.82 64.7864 52.6489 64.4897 52.349C64.1931 52.049 64.0264 51.6443 64.0259 51.2224C64.0259 50.9324 63.9106 50.6542 63.7055 50.449C63.5004 50.2439 63.2222 50.1287 62.9321 50.1287C62.642 50.1287 62.3638 50.2439 62.1587 50.449C61.9536 50.6542 61.8384 50.9324 61.8384 51.2224C61.8394 52.0367 62.1021 52.829 62.5878 53.4826C63.0734 54.1361 63.7564 54.6162 64.5357 54.852V55.5238C64.5357 55.8139 64.6509 56.0921 64.8561 56.2972C65.0612 56.5024 65.3394 56.6176 65.6295 56.6176C65.9195 56.6176 66.1977 56.5024 66.4028 56.2972C66.608 56.0921 66.7232 55.8139 66.7232 55.5238V54.852C67.5941 54.5895 68.3416 54.0226 68.8293 53.2548C69.317 52.487 69.5124 51.5694 69.3797 50.6695C69.2471 49.7696 68.7953 48.9474 68.1068 48.3529C67.4183 47.7585 66.5391 47.4314 65.6295 47.4313C65.4175 47.4334 65.2073 47.3935 65.0109 47.3139C64.8146 47.2342 64.6359 47.1164 64.4853 46.9673C64.3347 46.8182 64.2152 46.6407 64.1336 46.4451C64.052 46.2496 64.01 46.0397 64.01 45.8278C64.01 45.6159 64.052 45.4061 64.1336 45.2105C64.2152 45.0149 64.3347 44.8374 64.4853 44.6883C64.6359 44.5392 64.8146 44.4214 65.0109 44.3418C65.2073 44.2621 65.4175 44.2222 65.6295 44.2243V44.2246Z" fill="#DBE7EC"/>
<path d="M15.1473 47.3966C15.3274 47.624 15.5904 47.7706 15.8785 47.804C16.1667 47.8375 16.4563 47.7551 16.6837 47.5751L28.0254 38.5947L28.2276 38.7971C28.7307 39.3013 29.0132 39.9844 29.0132 40.6967C29.0132 41.409 28.7307 42.0921 28.2276 42.5963L22.8817 47.9424C22.6921 48.1321 22.5787 48.3848 22.5631 48.6526L22.4956 49.8183C22.4943 49.8392 22.4937 49.8603 22.4937 49.8816C22.4991 50.7853 22.705 51.6765 23.0965 52.491C23.5119 53.383 23.6916 54.3667 23.6182 55.348C23.5448 56.3293 23.2209 57.2753 22.6775 58.0957C22.5577 58.2753 22.4937 58.4865 22.4937 58.7024V61.2226C22.4937 61.5126 22.6089 61.7908 22.8141 61.9959C23.0192 62.2011 23.2974 62.3163 23.5875 62.3163C23.8775 62.3163 24.1557 62.2011 24.3608 61.9959C24.566 61.7908 24.6812 61.5126 24.6812 61.2226V59.0194C25.3527 57.9035 25.7399 56.6397 25.8088 55.3391C25.8777 54.0385 25.6262 52.7409 25.0764 51.5602C24.8267 51.0455 24.692 50.4826 24.6814 49.9107L24.7229 49.1943L29.7746 44.1426C30.6873 43.2277 31.1998 41.9883 31.1998 40.6961C31.1998 39.4039 30.6873 38.1644 29.7746 37.2496L28.884 36.359C28.6943 36.1691 28.4414 36.0556 28.1735 36.04C27.9055 36.0245 27.6412 36.108 27.4309 36.2747L15.3257 45.8594C15.213 45.9486 15.119 46.0591 15.049 46.1847C14.9791 46.3102 14.9345 46.4483 14.9179 46.591C14.9014 46.7338 14.9131 46.8784 14.9524 47.0167C14.9918 47.1549 15.058 47.284 15.1473 47.3966Z" fill="#DBE7EC"/>
<path d="M51.5024 38.1926H53.4215C53.8791 38.1921 54.3178 38.0101 54.6413 37.6865C54.9649 37.3629 55.1469 36.9242 55.1474 36.4666V35.0512C55.5507 34.8716 55.8956 34.5826 56.1427 34.2168C56.3899 33.851 56.5295 33.4233 56.5457 32.9821L57.3127 27.179C57.319 27.1315 57.3221 27.0836 57.3221 27.0357C57.3221 25.3221 56.1882 23.887 54.6815 23.5426L52.4716 19.4685C51.6701 18.031 50.4844 16.382 48.4146 16.382H37.1769C35.508 16.382 34.0508 17.4837 33.0707 19.4851L30.7905 23.5257C29.2721 23.8579 28.1622 25.2806 28.1622 27.0354C28.1623 27.0813 28.1652 27.1272 28.171 27.1727L28.9054 32.9782C28.9211 33.4262 29.064 33.8605 29.3174 34.2303C29.5708 34.6001 29.9243 34.8902 30.3365 35.0665V36.4663C30.3369 36.9239 30.5189 37.3626 30.8425 37.6862C31.1661 38.0098 31.6048 38.1918 32.0624 38.1923H33.9821C34.4397 38.1918 34.8784 38.0098 35.202 37.6862C35.5255 37.3626 35.7075 36.9239 35.708 36.4663V35.257H49.776V36.4663C49.7765 36.9241 49.9585 37.3629 50.2822 37.6865C50.6058 38.0102 51.0447 38.1922 51.5024 38.1926ZM52.9605 36.0051H51.964V35.2573H52.9605V36.0051ZM34.9918 20.5316C35.003 20.5118 35.0135 20.4916 35.023 20.4713C35.3668 19.7612 36.1051 18.5698 37.1763 18.5698H48.414C49.1505 18.5698 49.7924 19.1573 50.5546 20.5229L52.1493 23.4624H33.338L34.9918 20.5316ZM33.5207 36.0051H32.5241V35.2573H33.5207V36.0051ZM31.2622 33.0698C31.2173 33.0687 31.1746 33.0504 31.1428 33.0187C31.1111 32.9869 31.0927 32.9442 31.0916 32.8993C31.0916 32.8534 31.0888 32.8075 31.083 32.762L30.3505 26.9757C30.3743 26.3507 30.765 25.7002 31.3893 25.6452C31.4144 25.647 31.4391 25.6502 31.4646 25.6502H53.9708C53.9749 25.6502 53.9788 25.6502 53.9829 25.6502C54.6723 25.6502 55.1079 26.3249 55.1338 26.9729L54.3693 32.7554C54.363 32.8029 54.3598 32.8508 54.3598 32.8987C54.3587 32.9436 54.3404 32.9863 54.3086 33.018C54.2769 33.0498 54.2342 33.0681 54.1893 33.0691L31.2622 33.0698Z" fill="#DBE7EC"/>
</svg>
