<svg width="43" height="40" viewBox="0 0 43 40" fill="none" xmlns="http://www.w3.org/2000/svg">
<g clip-path="url(#clip0_803_26410)">
<path d="M37.9994 24.4492C37.7612 24.9215 37.5112 25.3799 36.975 25.5882C36.8264 25.6459 36.8965 25.798 36.8958 25.9063C36.8924 28.3414 36.8951 30.7764 36.8917 33.2114C36.8903 34.0893 36.4319 34.7158 35.6478 34.9359C35.447 34.9922 35.2415 34.9922 35.0366 34.9922C25.9229 34.9929 16.8093 34.9936 7.69564 34.9922C6.51563 34.9922 5.84888 34.3178 5.84819 33.1385C5.8468 30.725 5.84541 28.3115 5.85236 25.898C5.85305 25.7001 5.79957 25.6014 5.6183 25.5042C5.01059 25.1771 4.7418 24.6388 4.7425 23.9561C4.74319 21.3259 4.7425 18.6964 4.7425 16.0662C4.7425 14.6806 4.7418 13.2957 4.7425 11.9101C4.74389 10.7357 5.41689 10.0551 6.59203 10.053C8.82148 10.0488 11.0516 10.0467 13.2811 10.0585C13.5519 10.0599 13.6256 9.99116 13.6186 9.72029C13.6019 9.06118 13.6158 8.40068 13.6269 7.74087C13.6499 6.33306 14.8361 5.06762 16.4516 5.0704C19.7312 5.07665 23.0108 5.05998 26.2903 5.07804C27.6981 5.08568 28.7115 5.89898 29.0511 7.22831C29.1622 7.6617 29.1282 8.10967 29.1296 8.55209C29.131 8.95283 29.1455 9.35358 29.124 9.75293C29.1108 9.99671 29.1844 10.0592 29.4282 10.0578C31.225 10.0467 33.0217 10.0502 34.8185 10.053C35.3699 10.0537 35.9242 10.0377 36.4729 10.0807C37.2236 10.1398 37.7265 10.5822 37.9342 11.2997C37.9467 11.342 37.9473 11.3837 37.9994 11.3948C37.9994 15.746 37.9994 20.0973 37.9994 24.4492ZM21.3911 11.1642C18.0685 11.1642 14.7458 11.1642 11.4232 11.1642C9.8216 11.1642 8.22001 11.1628 6.61773 11.1649C6.0371 11.1656 5.84958 11.349 5.84888 11.9129C5.84819 15.9058 5.84819 19.8993 5.84888 23.8922C5.84888 24.3749 6.00932 24.5645 6.48021 24.6298C7.46506 24.7673 8.45129 24.8979 9.43614 25.0333C11.5565 25.325 13.6763 25.6174 15.7967 25.9091C16.8357 26.0522 17.8747 26.1883 18.9123 26.3404C19.1214 26.371 19.1769 26.3182 19.1603 26.1147C19.1436 25.9105 19.1526 25.7035 19.1617 25.4987C19.2006 24.6451 19.8631 23.9665 20.7167 23.9269C21.1487 23.9068 21.5828 23.9068 22.0148 23.9269C22.6371 23.9554 23.0885 24.2672 23.3927 24.8097C23.6053 25.1896 23.599 25.6007 23.5782 26.0098C23.5643 26.2765 23.6011 26.3828 23.9171 26.3363C25.7139 26.0716 27.5134 25.8292 29.3122 25.5813C31.582 25.2681 33.8517 24.9521 36.1228 24.6458C36.7472 24.5617 36.891 24.4207 36.891 23.8019C36.891 19.8848 36.891 15.9669 36.891 12.0497C36.891 11.3017 36.7521 11.1635 35.9999 11.1635C31.1319 11.1642 26.2612 11.1642 21.3911 11.1642ZM21.3689 33.883C22.7322 33.883 24.0963 33.883 25.4597 33.883C28.6524 33.883 31.8452 33.8837 35.038 33.8823C35.5575 33.8823 35.7818 33.7025 35.7832 33.2482C35.7887 30.8347 35.7846 28.4219 35.7894 26.0084C35.7894 25.8501 35.7547 25.8036 35.5908 25.8306C35.0998 25.9098 34.6066 25.9751 34.1142 26.0432C31.8445 26.3564 29.5741 26.6696 27.3037 26.9822C26.1473 27.1412 24.9909 27.3017 23.8331 27.4531C23.6317 27.4795 23.5712 27.5607 23.5796 27.7614C23.5956 28.1608 23.5935 28.5622 23.5789 28.9623C23.5476 29.8297 22.8684 30.5187 22.0065 30.5528C21.5849 30.5694 21.1619 30.5687 20.7403 30.5528C19.8784 30.5201 19.1957 29.8318 19.1637 28.9664C19.1492 28.5664 19.1415 28.165 19.1644 27.7656C19.1776 27.5336 19.0846 27.4753 18.8811 27.4489C17.5955 27.2787 16.3106 27.0989 15.0257 26.9224C12.4344 26.5668 9.84175 26.2161 7.25184 25.8487C7.00181 25.8133 6.94902 25.8487 6.95041 26.1022C6.96083 28.4178 6.95666 30.734 6.95666 33.0496C6.95666 33.7309 7.11015 33.8837 7.79774 33.8837C12.3212 33.883 16.8454 33.883 21.3689 33.883ZM21.3793 6.18235C19.7562 6.18235 18.1331 6.17748 16.5099 6.18374C15.4036 6.1879 14.7389 6.85396 14.7243 7.95965C14.7187 8.38123 14.716 8.80351 14.7257 9.22509C14.7319 9.49179 14.6062 9.83975 14.7778 10.0037C14.9472 10.1655 15.2938 10.0252 15.5591 10.0557C15.805 10.0835 15.8397 9.96893 15.8356 9.75779C15.823 9.15216 15.8258 8.54584 15.8335 7.94021C15.839 7.48598 16.0342 7.29221 16.4926 7.29151C19.7492 7.28873 23.0066 7.28873 26.2632 7.29151C26.7029 7.29221 26.898 7.48737 26.9064 7.92284C26.9147 8.35553 26.9085 8.78823 26.9085 9.22092C26.9085 10.0634 26.9085 10.053 27.7475 10.0585C27.9905 10.0599 28.0267 9.9731 28.0211 9.76127C28.0072 9.18828 28.0176 8.61459 28.0162 8.04091C28.0128 6.8359 27.3578 6.18304 26.15 6.18235C24.5609 6.18096 22.9705 6.18235 21.3793 6.18235ZM21.3724 10.0516C22.7468 10.0516 24.1206 10.0432 25.4951 10.0585C25.7618 10.0613 25.8187 9.97726 25.8055 9.73418C25.7861 9.37788 25.7882 9.01951 25.8049 8.66391C25.8146 8.45555 25.7576 8.39165 25.5409 8.39443C24.5783 8.40693 23.615 8.39998 22.6517 8.39998C20.8556 8.39998 19.0596 8.40693 17.2635 8.39234C16.9843 8.39026 16.9176 8.46874 16.9364 8.73197C16.9607 9.07646 16.9565 9.42511 16.9371 9.7696C16.9246 9.99324 16.9843 10.0599 17.2177 10.0578C18.6026 10.046 19.9875 10.0516 21.3724 10.0516ZM20.2653 27.2405C20.2653 27.76 20.2611 28.2796 20.2667 28.7991C20.2708 29.247 20.4743 29.445 20.9279 29.4512C21.2418 29.4554 21.5557 29.4582 21.8696 29.4498C22.2607 29.4394 22.4725 29.2331 22.4746 28.8414C22.4815 27.7698 22.4815 26.6988 22.4746 25.6271C22.4718 25.2382 22.2586 25.0375 21.8634 25.0285C21.5495 25.0215 21.2355 25.0229 20.9216 25.0278C20.4688 25.034 20.2708 25.2306 20.2667 25.6827C20.2618 26.2015 20.2653 26.721 20.2653 27.2405Z" fill="#3E3E3E"/>
</g>
<defs>
<clipPath id="clip0_803_26410">
<rect width="33.3333" height="33.3333" fill="white" transform="translate(4.67285 3.33325)"/>
</clipPath>
</defs>
</svg>
