<svg width="50" height="48" viewBox="0 0 50 48" fill="none" xmlns="http://www.w3.org/2000/svg">
<path d="M22.7346 44C22.7191 43.9167 22.6417 43.9226 22.5858 43.8988C21.9512 43.6166 21.6202 43.1297 21.6143 42.4344C21.6083 41.6403 21.5976 40.8462 21.6178 40.0522C21.6405 39.1295 22.2024 38.5199 23.1251 38.5009C24.7252 38.4687 26.3276 38.4675 27.9289 38.5033C28.8587 38.5235 29.435 39.1569 29.4254 40.1045C29.4219 40.4772 29.5409 40.52 29.8624 40.4915C30.9112 40.3986 31.9565 40.3117 32.9852 40.0462C35.2651 39.4581 36.5413 37.977 36.9568 35.6971C37.0556 35.159 37.1033 34.6149 37.1485 34.0708C37.1628 33.897 37.1235 33.8411 36.9473 33.8458C36.5699 33.8565 36.1925 33.8554 35.8151 33.847C35.2782 33.8363 35.0031 33.5756 34.9579 33.0422C34.9496 32.9386 34.9543 32.8339 34.9543 32.7303C34.9543 28.0693 34.9543 23.4083 34.9555 18.7473C34.9555 18.6045 34.9591 18.4604 34.9805 18.3199C35.0424 17.9139 35.2639 17.6866 35.671 17.6604C36.0854 17.633 36.5032 17.6401 36.9199 17.6449C37.1056 17.6473 37.1628 17.5842 37.1533 17.3937C36.9009 12.5398 34.6829 8.87056 30.3088 6.7502C25.7383 4.53579 21.3154 5.11677 17.3235 8.23957C14.8282 10.1921 13.4102 12.8434 12.9602 15.9972C12.8935 16.4639 12.909 16.9317 12.8483 17.3961C12.8233 17.5901 12.8995 17.6485 13.0828 17.6449C13.434 17.6366 13.7864 17.6366 14.1376 17.6437C14.7627 17.6568 15.0246 17.9235 15.046 18.5545C15.0484 18.6199 15.046 18.6842 15.046 18.7497C15.046 23.4238 15.046 28.0979 15.0448 32.772C15.0448 32.9267 15.0365 33.0851 15.0115 33.2375C14.9496 33.6006 14.7282 33.8446 14.3627 33.8482C13.1566 33.8589 11.9447 33.9792 10.7482 33.703C8.96353 33.291 7.77656 31.9636 7.57773 30.148C7.53249 29.7325 7.51106 29.3182 7.51225 28.9015C7.51464 26.7145 7.51344 24.5274 7.51344 22.3392C7.51344 21.607 7.58964 20.8844 7.86466 20.1986C8.42302 18.808 9.50166 18.058 10.9267 17.7663C11.2113 17.708 11.328 17.6366 11.3434 17.3163C11.597 12.1541 13.9757 8.25029 18.4486 5.69538C21.1654 4.14291 24.137 3.68574 27.2325 4.20481C31.072 4.85009 34.0971 6.81568 36.3068 9.99682C37.8331 12.1946 38.6022 14.6685 38.6676 17.3496C38.6724 17.5663 38.6974 17.7032 38.9581 17.7473C41.1559 18.1211 42.4167 19.6474 42.4643 21.8237C42.5214 24.4393 42.5143 27.0573 42.4643 29.673C42.4333 31.2874 41.7488 32.5827 40.2427 33.3422C39.8582 33.5363 39.4522 33.6851 39.0272 33.7375C38.751 33.7708 38.6712 33.8708 38.6581 34.1494C38.601 35.2816 38.426 36.396 38.0343 37.4687C37.2426 39.6378 35.6568 40.9046 33.4721 41.4999C32.272 41.8273 31.0434 41.9392 29.81 42.0118C29.5421 42.0273 29.435 42.0796 29.4433 42.3856C29.4695 43.2428 28.9861 43.7428 28.2063 43.9988C26.38 44 24.5573 44 22.7346 44ZM13.5186 25.7204C13.5186 23.625 13.5197 21.5284 13.5174 19.4331C13.5174 19.2783 13.5864 19.0854 13.2924 19.0974C12.6685 19.1212 12.0435 19.0771 11.4208 19.1557C10.0922 19.3247 9.21473 20.1796 9.05758 21.507C8.91948 22.6738 9.00996 23.8476 8.99925 25.0179C8.98496 26.4883 8.97186 27.961 9.00877 29.4301C9.05401 31.2159 9.9624 32.1565 11.7327 32.3076C12.1982 32.3469 12.6697 32.3136 13.1364 32.3446C13.434 32.3636 13.5293 32.2862 13.5269 31.9683C13.5114 29.8861 13.5186 27.8026 13.5186 25.7204ZM36.4818 25.7275C36.4818 27.836 36.4842 29.9432 36.477 32.0517C36.4759 32.2707 36.5009 32.3803 36.764 32.3648C37.2176 32.3386 37.6747 32.3684 38.1295 32.3481C39.8808 32.2719 40.8964 31.2624 40.9416 29.5146C40.9809 27.9931 40.9785 26.4704 40.9892 24.9477C40.9964 23.9584 41.0249 22.969 40.9868 21.982C40.9297 20.476 40.2035 19.5569 38.8855 19.2593C38.2057 19.1057 37.5116 19.1878 36.8247 19.1521C36.5139 19.1354 36.4723 19.2462 36.4735 19.5212C36.4866 21.5892 36.4818 23.6583 36.4818 25.7275ZM25.5038 42.4916C26.205 42.4916 26.9074 42.4844 27.6087 42.4963C27.8325 42.4999 27.9349 42.4559 27.9289 42.2011C27.9123 41.5522 27.9158 40.901 27.9277 40.2522C27.9313 40.0629 27.8753 40.0117 27.6872 40.0129C26.2443 40.02 24.8025 40.02 23.3596 40.0129C23.1679 40.0117 23.1203 40.0724 23.1239 40.2557C23.1334 40.9058 23.1417 41.5558 23.1215 42.2047C23.1132 42.4654 23.2156 42.4999 23.4382 42.4963C24.1263 42.4844 24.8156 42.4916 25.5038 42.4916Z" fill="#56AEFF"/>
</svg>
