<svg width="25" height="24" viewBox="0 0 25 24" fill="none" xmlns="http://www.w3.org/2000/svg">
<path d="M5.75 21.9998H19.75C20.2804 21.9998 20.7891 21.7891 21.1642 21.414C21.5393 21.039 21.75 20.5303 21.75 19.9998V10.9998C21.7508 10.8682 21.7255 10.7377 21.6758 10.6159C21.626 10.4941 21.5527 10.3833 21.46 10.2898L13.46 2.28982C13.2726 2.10357 13.0192 1.99902 12.755 1.99902C12.4908 1.99902 12.2374 2.10357 12.05 2.28982L4.05 10.2898C3.95551 10.3824 3.88034 10.4929 3.82885 10.6148C3.77735 10.7366 3.75055 10.8675 3.75 10.9998V19.9998C3.75 20.5303 3.96071 21.039 4.33579 21.414C4.71086 21.7891 5.21957 21.9998 5.75 21.9998ZM10.75 19.9998V14.9998H14.75V19.9998H10.75ZM5.75 11.4098L12.75 4.40982L19.75 11.4098V19.9998H16.75V14.9998C16.75 14.4694 16.5393 13.9607 16.1642 13.5856C15.7891 13.2105 15.2804 12.9998 14.75 12.9998H10.75C10.2196 12.9998 9.71086 13.2105 9.33579 13.5856C8.96071 13.9607 8.75 14.4694 8.75 14.9998V19.9998H5.75V11.4098Z" fill="white"/>
</svg>
