<svg width="25" height="24" viewBox="0 0 25 24" fill="none" xmlns="http://www.w3.org/2000/svg">
<g clip-path="url(#clip0_803_14883)">
<path fill-rule="evenodd" clip-rule="evenodd" d="M12.9867 24C19.6141 24 24.9867 18.6274 24.9867 12C24.9867 5.37258 19.6141 0 12.9867 0C6.35927 0 0.986694 5.37258 0.986694 12C0.986694 18.6274 6.35927 24 12.9867 24ZM9.45233 8.74232C9.45233 10.6338 11.0522 12.2323 12.9771 12.2323L12.9887 12.233C13.9175 12.2357 14.8093 11.8696 15.4682 11.215C16.1271 10.5605 16.4992 9.67107 16.5026 8.74232C16.5026 6.78471 14.9688 5.18619 12.9778 5.18619C11.0522 5.18619 9.45233 6.78539 9.45233 8.74232ZM11.5421 8.743C11.5421 7.9267 12.1622 7.24191 12.9771 7.24191C13.8261 7.24191 14.4142 7.92602 14.4135 8.743C14.4135 9.55793 13.8261 10.178 12.9778 10.178C12.1622 10.178 11.5421 9.55793 11.5421 8.743ZM16.3724 17.0613L14.3814 15.1371C15.1323 14.9088 15.8505 14.6151 16.4699 14.2233C16.9271 13.9617 17.0586 13.3103 16.7642 12.8204C16.4706 12.3312 15.8512 12.201 15.3286 12.5274C14.6209 12.9593 13.8079 13.1877 12.9788 13.1877C12.1498 13.1877 11.3368 12.9593 10.6291 12.5274C10.1065 12.201 9.51911 12.3312 9.19273 12.8204C8.93176 13.3103 9.0292 13.9624 9.51911 14.2233C10.1743 14.6128 10.8754 14.9193 11.6062 15.1357L9.58248 17.0606C9.19068 17.4844 9.19068 18.1045 9.58248 18.4963C9.81142 18.6912 10.0724 18.7893 10.3007 18.7893C10.595 18.7893 10.8567 18.6918 11.0522 18.4963L12.9778 16.5387L14.9688 18.4963C15.2952 18.9194 15.9486 18.9194 16.3724 18.4963C16.7642 18.1045 16.7642 17.4844 16.3724 17.0613Z" fill="#9FB7D3"/>
</g>
<defs>
<clipPath id="clip0_803_14883">
<rect width="24" height="24" fill="white" transform="translate(0.986694)"/>
</clipPath>
</defs>
</svg>
