<svg width="43" height="40" viewBox="0 0 43 40" fill="none" xmlns="http://www.w3.org/2000/svg">
<path d="M19.5281 36.6666C19.5152 36.5971 19.4507 36.6021 19.4041 36.5823C18.8753 36.3471 18.5995 35.9413 18.5945 35.3619C18.5895 34.7002 18.5806 34.0385 18.5975 33.3767C18.6163 32.6078 19.0846 32.0999 19.8535 32.084C21.1869 32.0572 22.5223 32.0562 23.8567 32.086C24.6316 32.1028 25.1117 32.6306 25.1038 33.4204C25.1008 33.7309 25.2 33.7666 25.4679 33.7428C26.342 33.6654 27.2131 33.593 28.0702 33.3717C29.9702 32.8816 31.0337 31.6474 31.38 29.7475C31.4623 29.2991 31.502 28.8457 31.5397 28.3923C31.5516 28.2474 31.5189 28.2008 31.372 28.2048C31.0575 28.2137 30.743 28.2127 30.4285 28.2058C29.9811 28.1968 29.7519 27.9796 29.7142 27.5351C29.7072 27.4488 29.7112 27.3615 29.7112 27.2752C29.7112 23.391 29.7112 19.5069 29.7122 15.6227C29.7122 15.5036 29.7152 15.3836 29.733 15.2665C29.7846 14.9282 29.9692 14.7387 30.3085 14.7169C30.6537 14.6941 31.002 14.7 31.3492 14.704C31.504 14.706 31.5516 14.6534 31.5437 14.4947C31.3333 10.4498 29.485 7.39206 25.84 5.62509C22.0312 3.77974 18.3455 4.2639 15.0189 6.86623C12.9394 8.49331 11.7578 10.7028 11.3828 13.3309C11.3272 13.7198 11.3401 14.1097 11.2895 14.4966C11.2687 14.6584 11.3322 14.707 11.4849 14.704C11.7776 14.697 12.0713 14.697 12.364 14.703C12.8848 14.7139 13.1031 14.9361 13.121 15.462C13.1229 15.5165 13.121 15.5701 13.121 15.6247C13.121 19.5197 13.121 23.4148 13.12 27.3099C13.12 27.4389 13.113 27.5708 13.0922 27.6978C13.0406 28.0004 12.8561 28.2038 12.5515 28.2068C11.5465 28.2157 10.5365 28.3159 9.5394 28.0857C8.05221 27.7425 7.06306 26.6362 6.89738 25.1233C6.85968 24.777 6.84182 24.4317 6.84281 24.0845C6.8448 22.262 6.8438 20.4394 6.8438 18.6159C6.8438 18.0058 6.9073 17.4036 7.13648 16.8321C7.60179 15.6733 8.50065 15.0483 9.68822 14.8052C9.92533 14.7566 10.0226 14.697 10.0355 14.4302C10.2468 10.1283 12.229 6.87516 15.9564 4.74607C18.2205 3.45234 20.6968 3.07137 23.2763 3.50393C26.4759 4.04166 28.9969 5.67965 30.8383 8.3306C32.1102 10.1621 32.7511 12.2237 32.8056 14.4579C32.8096 14.6385 32.8304 14.7526 33.0477 14.7893C34.8792 15.1008 35.9298 16.3727 35.9695 18.1863C36.0171 20.366 36.0112 22.5477 35.9695 24.7274C35.9437 26.0727 35.3733 27.1521 34.1182 27.7851C33.7978 27.9468 33.4594 28.0708 33.1053 28.1145C32.8751 28.1423 32.8086 28.2256 32.7977 28.4578C32.7501 29.4013 32.6042 30.3299 32.2778 31.2238C31.6181 33.0315 30.2966 34.0871 28.476 34.5831C27.476 34.856 26.4521 34.9492 25.4243 35.0097C25.201 35.0226 25.1117 35.0663 25.1187 35.3213C25.1405 36.0356 24.7377 36.4523 24.0879 36.6656C22.566 36.6666 21.047 36.6666 19.5281 36.6666ZM11.8481 21.4336C11.8481 19.6874 11.8491 17.9403 11.8471 16.1942C11.8471 16.0652 11.9046 15.9045 11.6596 15.9144C11.1397 15.9342 10.6188 15.8975 10.0999 15.963C8.99274 16.1039 8.26155 16.8162 8.13059 17.9224C8.0155 18.8947 8.0909 19.8729 8.08197 20.8482C8.07007 22.0735 8.05915 23.3007 8.08991 24.525C8.12761 26.0132 8.8846 26.797 10.3599 26.923C10.7478 26.9557 11.1407 26.9279 11.5296 26.9537C11.7776 26.9696 11.857 26.9051 11.855 26.6402C11.8421 24.905 11.8481 23.1688 11.8481 21.4336ZM30.9841 21.4395C30.9841 23.1966 30.9861 24.9526 30.9801 26.7097C30.9791 26.8922 31 26.9835 31.2192 26.9706C31.5972 26.9488 31.9782 26.9736 32.3572 26.9567C33.8166 26.8932 34.6629 26.0519 34.7006 24.5954C34.7333 23.3275 34.7313 22.0586 34.7403 20.7897C34.7462 19.9652 34.77 19.1408 34.7383 18.3183C34.6907 17.0633 34.0855 16.2973 32.9872 16.0493C32.4207 15.9213 31.8423 15.9898 31.2698 15.96C31.0109 15.9461 30.9762 16.0384 30.9772 16.2676C30.9881 17.9909 30.9841 19.7152 30.9841 21.4395ZM21.8358 35.4096C22.4201 35.4096 23.0055 35.4036 23.5898 35.4135C23.7763 35.4165 23.8617 35.3798 23.8567 35.1675C23.8428 34.6268 23.8458 34.0841 23.8557 33.5434C23.8587 33.3856 23.8121 33.343 23.6553 33.344C22.4529 33.3499 21.2514 33.3499 20.0489 33.344C19.8892 33.343 19.8495 33.3936 19.8525 33.5464C19.8604 34.0881 19.8674 34.6298 19.8505 35.1705C19.8436 35.3877 19.9289 35.4165 20.1144 35.4135C20.6879 35.4036 21.2623 35.4096 21.8358 35.4096Z" fill="#3E3E3E"/>
</svg>
