<svg width="16" height="16" viewBox="0 0 16 16" fill="none" xmlns="http://www.w3.org/2000/svg">
<path d="M13.3333 14.3333H2.66668C2.31305 14.3333 1.97392 14.1929 1.72387 13.9428C1.47382 13.6928 1.33334 13.3536 1.33334 13V4.94201C1.3483 4.59853 1.49535 4.27411 1.7438 4.03647C1.99224 3.79883 2.32288 3.66635 2.66668 3.66667H13.3333C13.687 3.66667 14.0261 3.80715 14.2762 4.0572C14.5262 4.30725 14.6667 4.64638 14.6667 5.00001V13C14.6667 13.3536 14.5262 13.6928 14.2762 13.9428C14.0261 14.1929 13.687 14.3333 13.3333 14.3333ZM2.66668 6.24534V13H13.3333V6.24534L8.00001 9.80001L2.66668 6.24534ZM3.20001 5.00001L8.00001 8.20001L12.8 5.00001H3.20001Z" fill="#2285E0"/>
</svg>
