<svg width="43" height="40" viewBox="0 0 43 40" fill="none" xmlns="http://www.w3.org/2000/svg">
<path d="M5.55566 32.1011C5.86055 31.3683 6.48718 30.9102 7.03379 30.388C11.6299 26.0007 16.2302 21.6177 20.8297 17.2339C20.9055 17.1615 20.9872 17.0958 21.0764 17.0174C20.2047 16.3108 19.306 15.6926 18.4284 15.0449C18.3181 14.9641 18.2625 14.9885 18.1682 15.0702C17.3849 15.7532 16.6682 15.7254 15.9304 14.9902C15.521 14.5825 15.11 14.1766 14.7057 13.7639C14.0724 13.1187 14.0665 12.274 14.7024 11.6372C16.9646 9.36907 19.2294 7.10345 21.4984 4.8412C22.12 4.22131 22.9681 4.22805 23.6006 4.84794C24.0512 5.28843 24.4959 5.73481 24.9372 6.18457C25.5504 6.80867 25.5639 7.62143 24.9735 8.26574C24.88 8.36765 24.784 8.43503 24.9044 8.60011C26.0726 10.2029 27.2003 11.8385 28.6583 13.2055C29.8719 14.3433 31.2355 15.2892 32.5747 16.267C32.6959 16.3554 32.7591 16.3293 32.8619 16.2358C33.5778 15.5823 34.3501 15.6008 35.0315 16.2779C35.4635 16.7075 35.8973 17.1353 36.3235 17.5708C36.9299 18.1907 36.9509 19.0396 36.342 19.652C34.0688 21.9386 31.788 24.2186 29.5013 26.4926C28.8865 27.1041 28.0434 27.0864 27.421 26.4783C26.9704 26.0378 26.5266 25.5906 26.0835 25.1417C25.4586 24.5083 25.4443 23.6863 26.0583 23.0411C26.1846 22.908 26.1947 22.8306 26.0844 22.6849C25.4914 21.8965 24.9044 21.104 24.3291 20.303C24.1877 20.1059 24.1161 20.1396 23.9678 20.2954C19.3271 25.1728 14.6805 30.0435 10.0389 34.92C9.55882 35.4245 9.01726 35.7134 8.30304 35.5728C8.00405 35.5138 7.75559 35.3664 7.54335 35.155C7.02958 34.6438 6.5234 34.125 6.00373 33.6196C5.79654 33.4183 5.71232 33.1471 5.55566 32.918C5.55566 32.6477 5.55566 32.3748 5.55566 32.1011ZM32.0996 17.0006C31.6524 16.6763 31.2212 16.3613 30.7883 16.0497C29.0861 14.8242 27.5002 13.4758 26.204 11.8099C25.5723 10.998 24.9524 10.1776 24.3704 9.33033C24.1936 9.0726 24.0967 9.10713 23.9291 9.31011C23.796 9.47098 23.6351 9.60995 23.4869 9.75818C22.0467 11.1984 20.6115 12.6445 19.1595 14.0738C18.9346 14.2953 18.9675 14.3947 19.2083 14.5396C19.4231 14.6684 19.6194 14.8301 19.8232 14.9775C21.5043 16.1887 23.1306 17.4605 24.4546 19.0767C25.2396 20.0352 25.9681 21.0358 26.6908 22.0414C26.7641 22.1433 26.8104 22.2907 26.9847 22.1155C28.6802 20.4117 30.3832 18.7145 32.0996 17.0006ZM6.4358 32.5433C6.41812 32.7311 6.50992 32.8919 6.64805 33.0309C7.14497 33.5295 7.63852 34.0306 8.14134 34.5225C8.42517 34.8004 8.78902 34.8207 9.11496 34.584C9.2413 34.4922 9.35079 34.376 9.45944 34.2623C11.7057 31.9065 13.9503 29.5483 16.1965 27.1917C18.6019 24.6675 21.0065 22.1433 23.417 19.625C23.5585 19.4768 23.5905 19.3925 23.4364 19.2258C22.9799 18.7322 22.5057 18.2572 22.0155 17.7965C21.821 17.6129 21.7047 17.5961 21.495 17.7965C18.4015 20.7603 15.2978 23.7141 12.1967 26.6712C10.4027 28.3809 8.60962 30.0915 6.81397 31.8004C6.60341 32 6.42317 32.2114 6.4358 32.5433ZM24.5254 7.2441C24.5296 7.04955 24.4294 6.90637 24.2997 6.7775C23.8836 6.36144 23.4701 5.94453 23.0515 5.53099C22.6775 5.16125 22.4105 5.16462 22.0315 5.5411C21.3838 6.18541 20.7387 6.83225 20.0927 7.47825C18.5194 9.05239 16.9444 10.6257 15.3719 12.2007C15.0418 12.5308 15.0165 12.8349 15.3054 13.1322C15.7518 13.5912 16.2049 14.0443 16.6639 14.4907C16.9394 14.7577 17.2527 14.756 17.5272 14.4815C19.7945 12.2192 22.0576 9.95274 24.3216 7.68796C24.4454 7.56584 24.5288 7.42519 24.5254 7.2441ZM28.4595 26.0546C28.6414 26.0648 28.7821 25.9822 28.9059 25.8592C31.1707 23.5945 33.4363 21.3314 35.6985 19.0641C35.9849 18.7777 35.9815 18.4695 35.6977 18.178C35.258 17.7274 34.8125 17.2811 34.3602 16.8422C34.0705 16.5609 33.7656 16.5652 33.475 16.8549C31.2153 19.1096 28.9581 21.3676 26.7034 23.6265C26.3985 23.9314 26.4019 24.2228 26.7051 24.5319C27.1389 24.9741 27.5802 25.4087 28.0182 25.8475C28.1403 25.9704 28.2776 26.0614 28.4595 26.0546Z" fill="#3E3E3E"/>
<path d="M30.1606 35.6199C27.8411 35.6199 25.5207 35.6199 23.2012 35.6199C22.5813 35.6199 22.4322 35.4186 22.6074 34.8248C22.8289 34.0718 23.0479 33.318 23.2686 32.5651C23.496 31.7885 24.003 31.4061 24.8141 31.4061C28.3936 31.4053 31.9731 31.4053 35.5526 31.4061C36.33 31.4061 36.8454 31.7877 37.0636 32.5263C37.3011 33.329 37.5352 34.1325 37.7668 34.9377C37.8999 35.4 37.7222 35.6199 37.2143 35.6199C34.8636 35.6207 32.5121 35.6199 30.1606 35.6199ZM23.544 34.7136C23.6038 34.7305 23.6231 34.7414 23.6433 34.7414C27.9598 34.7423 32.2754 34.7414 36.5919 34.7473C36.7932 34.7473 36.7865 34.6656 36.7444 34.525C36.5852 33.9935 36.4277 33.4612 36.2693 32.9298C36.0967 32.3486 36.0066 32.2804 35.4103 32.2804C31.9133 32.2804 28.4163 32.2804 24.9193 32.2804C24.825 32.2804 24.7298 32.2804 24.6363 32.2871C24.43 32.3006 24.2557 32.3983 24.1942 32.5895C23.9659 33.2928 23.7587 34.0045 23.544 34.7136Z" fill="#3E3E3E"/>
</svg>
