<svg width="25" height="24" viewBox="0 0 25 24" fill="none" xmlns="http://www.w3.org/2000/svg">
<g clip-path="url(#clip0_803_14887)">
<path d="M12.48 0C5.85247 0 0.47998 5.37249 0.47998 12C0.47998 18.6275 5.85247 24 12.48 24C19.1075 24 24.4799 18.6275 24.4799 12C24.4799 5.37249 19.1075 0 12.48 0ZM17.3612 9.82998C17.3662 9.93248 17.3675 10.035 17.3675 10.135C17.3675 13.26 14.9912 16.8612 10.6437 16.8612C9.35908 16.8634 8.10118 16.4944 7.02122 15.7987C7.20497 15.8212 7.39372 15.83 7.58497 15.83C8.69247 15.83 9.71122 15.4537 10.52 14.8187C10.0271 14.809 9.54955 14.6458 9.15386 14.3519C8.75816 14.0579 8.46403 13.6478 8.31247 13.1787C8.66641 13.246 9.03103 13.2319 9.37872 13.1375C8.84378 13.0293 8.36272 12.7394 8.0171 12.3171C7.67149 11.8947 7.4826 11.3657 7.48247 10.82V10.7912C7.80122 10.9675 8.16622 11.075 8.55372 11.0875C8.05222 10.7536 7.6972 10.2408 7.56128 9.6539C7.42535 9.06698 7.51878 8.4503 7.82247 7.92999C8.41616 8.65999 9.15654 9.25717 9.99568 9.68287C10.8348 10.1086 11.754 10.3533 12.6937 10.4012C12.5742 9.89412 12.6257 9.36174 12.84 8.88687C13.0543 8.41199 13.4195 8.02122 13.8788 7.77532C14.3381 7.52941 14.8658 7.44214 15.3798 7.52708C15.8938 7.61201 16.3654 7.86439 16.7212 8.24499C17.2502 8.14033 17.7574 7.94631 18.2212 7.67124C18.0449 8.2189 17.6758 8.68396 17.1825 8.97999C17.651 8.92355 18.1085 8.79758 18.54 8.60624C18.2231 9.0811 17.8239 9.49553 17.3612 9.82998Z" fill="#9FB7D3"/>
</g>
<defs>
<clipPath id="clip0_803_14887">
<rect width="24" height="24" fill="white" transform="translate(0.47998)"/>
</clipPath>
</defs>
</svg>
