<svg width="117" height="31" viewBox="0 0 117 31" fill="none" xmlns="http://www.w3.org/2000/svg">
<g clip-path="url(#clip0_803_14943)">
<path fill-rule="evenodd" clip-rule="evenodd" d="M10.9166 0.00526906C11.9546 -0.000780852 15.0393 -0.271472 16.3459 4.02514C17.2261 6.91939 18.6281 11.6603 20.5521 18.2479H21.3356C23.3988 11.3028 24.8162 6.56188 25.5876 4.02514C26.9078 -0.316229 30.2084 0.00535414 31.5287 0.00535414L41.7146 0.00536652V30.8772H31.3328V12.6839H30.6367L24.8493 30.8772H17.0383L11.251 12.6704H10.5548V30.8772H0.173004V0.00536652L10.9166 0.00526906ZM56.6227 0.00536652V18.2122H57.4509L64.4907 3.24085C65.8572 0.261509 68.7697 0.00536652 68.7697 0.00536652H78.8162V30.8773H68.2176V12.6704H67.3894L60.4877 27.6418C59.1211 30.6077 56.0705 30.8773 56.0705 30.8773H46.0241V0.00536652H56.6227ZM115.45 14.6759C113.971 18.7577 109.329 21.681 104.188 21.681H93.0737V30.8773H82.9951V14.6759H115.45Z" fill="#00DC88"/>
<path fill-rule="evenodd" clip-rule="evenodd" d="M104.674 0.00540161H82.4662C82.9947 6.87854 89.0697 12.7624 95.3586 12.7624H116.15C117.35 7.05001 113.219 0.00540161 104.674 0.00540161Z" fill="url(#paint0_linear_803_14943)"/>
</g>
<defs>
<linearGradient id="paint0_linear_803_14943" x1="116.354" y1="8.0301" x2="82.4662" y2="8.0301" gradientUnits="userSpaceOnUse">
<stop stop-color="#1F5CD7"/>
<stop offset="1" stop-color="#02AEFF"/>
</linearGradient>
<clipPath id="clip0_803_14943">
<rect width="116" height="31" fill="white" transform="translate(0.166992)"/>
</clipPath>
</defs>
</svg>
