<svg width="25" height="24" viewBox="0 0 25 24" fill="none" xmlns="http://www.w3.org/2000/svg">
<g clip-path="url(#clip0_803_14617)">
<path d="M16.434 0H9.066C2.342 0 0.75 1.592 0.75 8.316V15.684C0.75 22.408 2.342 24 9.066 24H16.434C23.158 24 24.75 22.408 24.75 15.684V8.316C24.75 1.592 23.141 0 16.434 0ZM20.126 17.123H18.382C17.722 17.123 17.518 16.598 16.332 15.396C15.299 14.396 14.842 14.261 14.588 14.261C14.232 14.261 14.13 14.363 14.13 14.854V16.429C14.13 16.853 13.995 17.107 12.877 17.107C11.031 17.107 8.981 15.989 7.542 13.905C5.374 10.857 4.78 8.57 4.78 8.096C4.78 7.842 4.882 7.605 5.373 7.605H7.117C7.557 7.605 7.727 7.808 7.897 8.282C8.76 10.772 10.2 12.957 10.793 12.957C11.013 12.957 11.115 12.855 11.115 12.297V9.721C11.047 8.535 10.42 8.434 10.42 8.011C10.42 7.807 10.59 7.604 10.86 7.604H13.604C13.977 7.604 14.112 7.807 14.112 8.247V11.72C14.112 12.092 14.282 12.228 14.383 12.228C14.603 12.228 14.79 12.092 15.196 11.686C16.45 10.28 17.347 8.112 17.347 8.112C17.466 7.858 17.669 7.621 18.11 7.621H19.854C20.379 7.621 20.498 7.891 20.379 8.264C20.159 9.281 18.025 12.295 18.025 12.295C17.839 12.6 17.771 12.735 18.025 13.075C18.211 13.329 18.821 13.854 19.228 14.328C19.973 15.175 20.548 15.886 20.701 16.378C20.871 16.868 20.616 17.122 20.125 17.122L20.126 17.123Z" fill="white"/>
</g>
<defs>
<clipPath id="clip0_803_14617">
<rect width="24" height="24" fill="white" transform="translate(0.75)"/>
</clipPath>
</defs>
</svg>
