<svg width="81" height="80" viewBox="0 0 81 80" fill="none" xmlns="http://www.w3.org/2000/svg">
<path d="M24.8541 46.3694H24.8792C25.7066 46.3613 26.4971 46.0261 27.0781 45.437C27.6592 44.848 27.9835 44.0529 27.9802 43.2255C27.977 42.3981 27.6465 41.6057 27.0608 41.0212C26.4752 40.4367 25.6821 40.1077 24.8547 40.1061H24.8292C24.0018 40.1142 23.2113 40.4494 22.6303 41.0385C22.0492 41.6276 21.725 42.4227 21.7282 43.2501C21.7315 44.0775 22.0621 44.87 22.6478 45.4544C23.2335 46.0389 24.0266 46.3678 24.8541 46.3694ZM24.1822 42.5755C24.269 42.4869 24.3725 42.4165 24.4867 42.3682C24.6009 42.3199 24.7235 42.2948 24.8475 42.2942H24.8553C25.1037 42.2963 25.3413 42.3962 25.5165 42.5723C25.6918 42.7484 25.7906 42.9864 25.7915 43.2348C25.7924 43.4832 25.6955 43.722 25.5216 43.8994C25.3477 44.0768 25.1109 44.1785 24.8625 44.1825H24.855C24.6689 44.1824 24.487 44.1274 24.3321 44.0243C24.1772 43.9212 24.0562 43.7747 23.9844 43.603C23.9125 43.4314 23.8929 43.2424 23.9281 43.0597C23.9633 42.877 24.0517 42.7087 24.1822 42.5761V42.5755Z" fill="#DBE7EC"/>
<path d="M56.7666 46.1146H56.7924C57.6198 46.1065 58.4103 45.7714 58.9913 45.1824C59.5723 44.5934 59.8967 43.7984 59.8935 42.971C59.8903 42.1436 59.5599 41.3511 58.9743 40.7666C58.3888 40.1821 57.5957 39.853 56.7684 39.8513H56.7426C55.912 39.8545 55.1168 40.1875 54.5318 40.777C53.9467 41.3666 53.6199 42.1644 53.6231 42.9949C53.6263 43.8255 53.9593 44.6207 54.5488 45.2057C55.1383 45.7908 55.9361 46.1176 56.7666 46.1144V46.1146ZM56.0948 42.3207C56.1816 42.2321 56.2851 42.1617 56.3993 42.1134C56.5135 42.0651 56.6361 42.04 56.7601 42.0394H56.7679C57.0169 42.0395 57.2559 42.1379 57.4327 42.3134C57.6094 42.4888 57.7097 42.727 57.7116 42.976C57.7136 43.2264 57.6161 43.4673 57.4405 43.6457C57.2649 43.8242 57.0256 43.9255 56.7752 43.9276H56.7674C56.5814 43.9275 56.3995 43.8724 56.2446 43.7693C56.0898 43.6662 55.9688 43.5197 55.8969 43.348C55.8251 43.1764 55.8055 42.9874 55.8407 42.8047C55.8759 42.622 55.9643 42.4538 56.0948 42.3212V42.3207Z" fill="#DBE7EC"/>
<path d="M35.0749 48.7327H35.0837L46.627 48.6406C46.917 48.6395 47.1948 48.5232 47.3991 48.3173C47.6035 48.1114 47.7176 47.8328 47.7165 47.5427C47.7154 47.2526 47.5991 46.9748 47.3932 46.7705C47.1873 46.5662 46.9086 46.452 46.6185 46.4531H46.6093L35.066 46.5452C34.7759 46.5463 34.4982 46.6626 34.2939 46.8686C34.0896 47.0745 33.9754 47.3531 33.9766 47.6432C33.9777 47.9333 34.094 48.2111 34.3 48.4154C34.5059 48.6197 34.7845 48.7338 35.0746 48.7327H35.0749Z" fill="#DBE7EC"/>
<path d="M60.1535 65.584C54.5129 70.4264 47.4262 73.2059 40.7104 73.21H40.6948C36.3198 73.21 31.7446 72.032 27.4637 69.8037C23.012 67.4828 19.1501 64.1745 16.1734 60.1319C16.0885 60.0159 15.9816 59.9179 15.8587 59.8433C15.7359 59.7687 15.5996 59.7191 15.4576 59.6972C15.3156 59.6753 15.1706 59.6816 15.0311 59.7158C14.8915 59.7499 14.76 59.8112 14.6441 59.8962C14.5283 59.9812 14.4303 60.0882 14.3558 60.211C14.2813 60.3339 14.2317 60.4703 14.2099 60.6123C14.1881 60.7543 14.1945 60.8992 14.2288 61.0388C14.263 61.1784 14.3244 61.3098 14.4095 61.4256C17.5849 65.7386 21.7046 69.2683 26.4535 71.7447C31.0454 74.1353 35.9692 75.3987 40.6948 75.3987H40.7104C47.9407 75.3944 55.5464 72.4225 61.5771 67.245C68.1791 61.592 72.3887 53.6434 73.3551 45.0058C73.3877 44.7175 73.3045 44.4281 73.1237 44.2012C72.9429 43.9744 72.6794 43.8286 72.3911 43.796C72.1029 43.7634 71.8135 43.8467 71.5866 44.0274C71.3597 44.2082 71.214 44.4717 71.1814 44.76C70.2765 52.8478 66.335 60.2905 60.1535 65.584Z" fill="#DBE7EC"/>
<path d="M9.1077 36.2055C9.1492 36.2102 9.19094 36.2125 9.2327 36.2125C9.50128 36.2122 9.76035 36.113 9.96053 35.934C10.1607 35.7549 10.288 35.5085 10.3182 35.2416C11.2229 27.1532 15.1645 19.71 21.3464 14.4163C26.9871 9.57393 34.0738 6.7944 40.7896 6.79033H40.8052C45.1802 6.79033 49.7554 7.9683 54.0361 10.1966C58.4879 12.5175 62.3498 15.8258 65.3266 19.8685C65.4115 19.9844 65.5184 20.0824 65.6413 20.157C65.7641 20.2316 65.9004 20.2813 66.0424 20.3031C66.1844 20.325 66.3293 20.3187 66.4689 20.2846C66.6085 20.2504 66.74 20.1891 66.8558 20.1041C66.9717 20.0191 67.0697 19.9121 67.1442 19.7893C67.2187 19.6664 67.2683 19.5301 67.2901 19.388C67.3119 19.246 67.3055 19.1011 67.2712 18.9615C67.237 18.822 67.1756 18.6905 67.0905 18.5747C63.915 14.2618 59.7954 10.7321 55.0464 8.25565C50.4494 5.86221 45.5244 4.59565 40.7889 4.60158C33.558 4.60721 25.9524 7.57971 19.9221 12.7566C13.32 18.4095 9.1102 26.3581 8.14364 34.9958C8.12751 35.1385 8.13965 35.283 8.17936 35.4211C8.21908 35.5591 8.2856 35.688 8.37512 35.8003C8.46465 35.9127 8.57542 36.0063 8.70111 36.0758C8.82681 36.1453 8.96497 36.1894 9.1077 36.2055Z" fill="#DBE7EC"/>
<path d="M52.8027 35.4933C52.805 35.7818 52.9213 36.0578 53.1261 36.261C53.331 36.4642 53.6079 36.5783 53.8965 36.5783H53.9052C54.0489 36.5771 54.1909 36.5477 54.3232 36.4917C54.4555 36.4357 54.5755 36.3541 54.6762 36.2517C54.777 36.1493 54.8566 36.0281 54.9105 35.8949C54.9644 35.7617 54.9916 35.6193 54.9904 35.4756C54.9794 34.1045 54.4242 32.7939 53.4469 31.8321C52.4697 30.8703 51.1503 30.3361 49.7792 30.3471C48.4081 30.3581 47.0975 30.9132 46.1357 31.8905C45.1739 32.8678 44.6397 34.1871 44.6507 35.5583C44.653 35.8468 44.7692 36.1228 44.9741 36.326C45.179 36.5292 45.4559 36.6433 45.7444 36.6433H45.7533C45.897 36.6421 46.039 36.6127 46.1713 36.5566C46.3035 36.5006 46.4235 36.4191 46.5242 36.3167C46.625 36.2143 46.7046 36.093 46.7585 35.9599C46.8124 35.8267 46.8395 35.6843 46.8383 35.5406C46.8373 34.753 47.1479 33.9969 47.7023 33.4375C48.2566 32.878 49.0098 32.5605 49.7974 32.5543C50.585 32.5481 51.3431 32.8537 51.9062 33.4044C52.4693 33.9551 52.7917 34.7062 52.803 35.4937L52.8027 35.4933Z" fill="#DBE7EC"/>
<path d="M35.6053 44.3926H35.6144C35.9044 44.3902 36.1817 44.2727 36.3851 44.066C36.5886 43.8592 36.7016 43.5801 36.6992 43.2901L36.6836 41.4123C36.6813 41.1237 36.565 40.8477 36.3602 40.6445C36.1553 40.4413 35.8784 40.3273 35.5899 40.3273H35.5808C35.2907 40.3296 35.0135 40.4471 34.81 40.6539C34.6066 40.8606 34.4936 41.1397 34.4959 41.4298L34.5116 43.3076C34.5139 43.5961 34.6301 43.8721 34.835 44.0753C35.0399 44.2786 35.3167 44.3926 35.6053 44.3926Z" fill="#DBE7EC"/>
<path d="M32.1268 44.4207H32.1355C32.2792 44.4196 32.4212 44.3901 32.5534 44.3341C32.6857 44.2781 32.8056 44.1965 32.9064 44.0942C33.0071 43.9918 33.0867 43.8706 33.1406 43.7374C33.1945 43.6043 33.2217 43.4618 33.2205 43.3182L33.2057 41.4404C33.2034 41.1518 33.0872 40.8758 32.8823 40.6725C32.6774 40.4693 32.4005 40.3552 32.1119 40.3552H32.103C31.9594 40.3564 31.8174 40.3858 31.6851 40.4418C31.5529 40.4978 31.4329 40.5794 31.3322 40.6818C31.2314 40.7841 31.1518 40.9053 31.0979 41.0385C31.044 41.1716 31.0169 41.3141 31.018 41.4577L31.0329 43.3357C31.0352 43.6243 31.1515 43.9003 31.3564 44.1035C31.5613 44.3067 31.8382 44.4207 32.1268 44.4207Z" fill="#DBE7EC"/>
<path d="M49.5036 40.2188H49.4947C49.3511 40.2199 49.2091 40.2493 49.0768 40.3053C48.9445 40.3614 48.8246 40.4429 48.7239 40.5453C48.6231 40.6477 48.5435 40.7689 48.4896 40.902C48.4357 41.0352 48.4085 41.1776 48.4097 41.3212L48.4253 43.1991C48.4276 43.4876 48.5439 43.7636 48.7488 43.9668C48.9536 44.17 49.2305 44.2841 49.5191 44.284H49.528C49.818 44.2817 50.0953 44.1643 50.2988 43.9576C50.5022 43.7509 50.6153 43.4718 50.613 43.1817L50.5973 41.3039C50.5951 41.0153 50.4788 40.7393 50.274 40.5361C50.0691 40.3328 49.7922 40.2187 49.5036 40.2188Z" fill="#DBE7EC"/>
<path d="M39.0835 44.3662H39.0924C39.2361 44.3651 39.3781 44.3357 39.5103 44.2797C39.6426 44.2236 39.7625 44.1421 39.8633 44.0397C39.964 43.9373 40.0436 43.8161 40.0975 43.683C40.1514 43.5498 40.1786 43.4074 40.1774 43.2638L40.1618 41.3859C40.1595 41.0973 40.0433 40.8214 39.8384 40.6181C39.6336 40.4148 39.3567 40.3008 39.0681 40.3008H39.0593C38.9157 40.3019 38.7736 40.3313 38.6414 40.3873C38.5091 40.4433 38.3891 40.5249 38.2884 40.6273C38.1876 40.7296 38.108 40.8509 38.0541 40.984C38.0002 41.1172 37.973 41.2596 37.9742 41.4033L37.9898 43.2812C37.9921 43.5698 38.1083 43.8458 38.3132 44.049C38.5181 44.2522 38.795 44.3663 39.0835 44.3662Z" fill="#DBE7EC"/>
<path d="M42.5614 44.3388H42.5702C42.7138 44.3376 42.8558 44.3082 42.9881 44.2522C43.1204 44.1962 43.2403 44.1147 43.3411 44.0123C43.4419 43.91 43.5215 43.7888 43.5754 43.6556C43.6293 43.5225 43.6565 43.3801 43.6554 43.2364L43.6397 41.3586C43.6375 41.07 43.5212 40.794 43.3164 40.5907C43.1115 40.3875 42.8346 40.2734 42.546 40.2734H42.5371C42.2471 40.276 41.97 40.3937 41.7668 40.6005C41.5635 40.8073 41.4507 41.0864 41.4532 41.3764L41.4688 43.2542C41.4712 43.5425 41.5874 43.8182 41.792 44.0213C41.9966 44.2244 42.2731 44.3385 42.5614 44.3388Z" fill="#DBE7EC"/>
<path d="M46.0157 40.2461C45.8721 40.2473 45.7301 40.2767 45.5978 40.3327C45.4655 40.3888 45.3456 40.4703 45.2449 40.5727C45.1441 40.675 45.0645 40.7963 45.0106 40.9294C44.9567 41.0625 44.9295 41.205 44.9307 41.3486L44.9455 43.2266C44.9479 43.5152 45.0641 43.7911 45.269 43.9944C45.4738 44.1976 45.7507 44.3116 46.0393 44.3116H46.048C46.1917 44.3105 46.3337 44.281 46.4659 44.225C46.5982 44.169 46.7181 44.0875 46.8189 43.9851C46.9196 43.8827 46.9992 43.7615 47.0531 43.6283C47.107 43.4952 47.1342 43.3527 47.133 43.2091L47.1182 41.3313C47.1171 41.1876 47.0877 41.0456 47.0316 40.9133C46.9756 40.7811 46.8941 40.6611 46.7917 40.5603C46.6893 40.4596 46.5681 40.38 46.435 40.326C46.3018 40.2721 46.1593 40.245 46.0157 40.2461Z" fill="#DBE7EC"/>
<path d="M17.3092 36.377H17.3193L18.8398 36.363C18.0578 37.3222 17.6421 38.5282 17.667 39.7656C17.6673 39.8116 17.6706 39.8574 17.6767 39.903L18.8954 48.9509C18.9179 49.6035 19.1484 50.2319 19.5531 50.7443C19.9579 51.2567 20.5158 51.6263 21.1454 51.7994L21.1662 54.4048C21.1713 54.9525 21.3922 55.476 21.781 55.8617C22.1697 56.2474 22.695 56.4641 23.2426 56.4648H23.2596L26.244 56.4411C26.7948 56.4364 27.3212 56.2133 27.7076 55.8207C28.094 55.4281 28.3087 54.8981 28.3045 54.3473L28.2846 51.8597L53.4737 51.6587L53.4934 54.1464C53.4978 54.6943 53.7185 55.2182 54.1074 55.6041C54.4963 55.99 55.0219 56.2066 55.5698 56.2069H55.5868L58.5722 56.183C59.123 56.1785 59.6495 55.9554 60.0359 55.5628C60.4223 55.1701 60.6369 54.6401 60.6325 54.0892L60.6115 51.4717C61.2256 51.2796 61.7637 50.8995 62.1502 50.3851C62.5366 49.8707 62.7518 49.2479 62.7653 48.6047L63.8903 39.5403C63.8962 39.4928 63.8989 39.4449 63.8986 39.397C63.8962 38.1547 63.4469 36.9547 62.6329 36.0162L64.1943 36.0033C64.3424 36.0021 64.4886 35.9708 64.6242 35.9114C64.7598 35.852 64.882 35.7656 64.9832 35.6576C65.0845 35.5496 65.1627 35.4222 65.2133 35.283C65.2638 35.1439 65.2856 34.9959 65.2773 34.8481C65.2281 34.2134 65.099 33.5874 64.8929 32.985C64.412 31.5787 62.9472 30.6845 61.1628 30.6936C60.2675 30.7008 58.72 30.7078 57.8476 30.7116L56.3389 27.9856C55.1623 25.9152 53.4442 23.543 50.5664 23.543H50.5245L30.9512 23.6992C28.5961 23.718 26.5331 25.3328 25.1387 28.247L23.615 30.9983C22.74 31.0036 21.1664 31.0139 20.2637 31.0205C18.4786 31.0348 17.0293 31.958 16.5704 33.3709C16.374 33.9765 16.2548 34.6044 16.2157 35.2398C16.2098 35.3871 16.2336 35.534 16.2859 35.6718C16.3381 35.8096 16.4176 35.9354 16.5197 36.0416C16.6218 36.1479 16.7443 36.2325 16.8798 36.2903C17.0154 36.348 17.1612 36.3778 17.3086 36.3778L17.3092 36.377ZM23.3523 54.2766L23.3334 51.8994L26.0975 51.8773L26.1164 54.2545L23.3523 54.2766ZM55.6804 54.0187L55.6615 51.6417L58.4254 51.6197L58.4443 53.9967L55.6804 54.0187ZM61.179 32.8811C61.9782 32.8706 62.6564 33.2084 62.8222 33.6936C62.8375 33.7385 62.852 33.783 62.8657 33.827L59.5845 33.8544L59.0532 32.8939C59.8004 32.89 60.6176 32.8856 61.179 32.8811ZM27.0696 29.2769C27.0807 29.257 27.0911 29.2369 27.1009 29.2164C27.6885 27.9794 28.9726 25.9019 30.9693 25.8859L50.5426 25.7297H50.5657C51.9507 25.7297 53.1103 26.7297 54.4317 29.0544L57.4415 34.4987L24.0293 34.7652L27.0696 29.2769ZM59.265 36.6719C59.2704 36.6719 59.2757 36.6719 59.2806 36.6719H59.3081C59.6264 36.673 59.9406 36.743 60.2292 36.8772C60.5178 37.0113 60.774 37.2064 60.98 37.4491C61.4348 37.9786 61.6924 38.6493 61.709 39.3472L60.5859 48.3984C60.58 48.446 60.5771 48.4939 60.5775 48.5419C60.5778 48.7728 60.4872 48.9946 60.3252 49.1592C60.1632 49.3238 59.9429 49.4179 59.712 49.4212L21.9606 49.7222H21.9536C21.7238 49.7207 21.5039 49.6292 21.3408 49.4674C21.1777 49.3056 21.0846 49.0864 21.0812 48.8567C21.0808 48.8108 21.0776 48.7649 21.0715 48.7194L19.8543 39.683C19.87 38.0508 20.9525 37.0456 22.0512 36.9595C22.089 36.9639 22.1269 36.9664 22.165 36.9669H22.1736L59.265 36.6719ZM18.6517 34.0452C18.8098 33.5583 19.4798 33.2136 20.2817 33.2072C20.8392 33.2028 21.6529 33.1973 22.3998 33.1927L21.8711 34.1473L18.6109 34.1775C18.6237 34.1339 18.6373 34.0897 18.6517 34.0452Z" fill="#DBE7EC"/>
<path d="M73.4083 35.0995C73.309 34.9468 73.1731 34.8214 73.013 34.7345C72.8529 34.6477 72.6736 34.6022 72.4914 34.6022C72.3091 34.6023 72.1298 34.6479 71.9696 34.735C71.8094 34.8221 71.6736 34.9478 71.5744 35.1008L65.8244 43.9648C65.7173 44.1299 65.6567 44.3209 65.649 44.5175C65.6414 44.7142 65.6869 44.9093 65.7808 45.0822C65.8748 45.2551 66.0136 45.3995 66.1828 45.5001C66.3519 45.6008 66.5451 45.6539 66.7419 45.6539L78.2538 45.647C78.4507 45.6469 78.6439 45.5937 78.813 45.493C78.9822 45.3922 79.121 45.2477 79.2149 45.0746C79.3087 44.9015 79.3541 44.7063 79.3462 44.5096C79.3384 44.3128 79.2776 44.1219 79.1702 43.9569L73.4083 35.0995ZM68.7547 43.4651L72.4925 37.7031L76.2372 43.46L68.7547 43.4651Z" fill="#DBE7EC"/>
<path d="M9.0085 45.3994C9.19079 45.3993 9.37017 45.3536 9.53033 45.2665C9.69048 45.1795 9.82633 45.0537 9.92553 44.9008L15.6755 36.0367C15.7826 35.8716 15.8432 35.6807 15.8509 35.484C15.8586 35.2874 15.813 35.0923 15.7191 34.9193C15.6251 34.7464 15.4863 34.602 15.3171 34.5014C15.148 34.4008 14.9548 34.3477 14.758 34.3477L3.24615 34.3545C3.04927 34.3546 2.85605 34.4078 2.6869 34.5086C2.51774 34.6093 2.37892 34.7539 2.28507 34.9269C2.19123 35.1 2.14584 35.2952 2.1537 35.492C2.16157 35.6887 2.22239 35.8796 2.32975 36.0447L8.091 44.902C8.19038 45.0548 8.32637 45.1803 8.4866 45.2672C8.64684 45.3541 8.82623 45.3995 9.0085 45.3994ZM12.7452 36.5364L9.0074 42.2984L5.26271 36.5409L12.7452 36.5364Z" fill="#DBE7EC"/>
</svg>
