<svg width="81" height="80" viewBox="0 0 81 80" fill="none" xmlns="http://www.w3.org/2000/svg">
<path d="M46.6201 21.8149C46.0191 22.383 45.5444 23.0571 45.2235 23.7982C44.9025 24.5392 44.7417 25.3326 44.7503 26.1323C44.7522 26.363 44.8513 26.5837 45.0262 26.7462C45.201 26.9088 45.4374 27 45.6838 27H45.6909C45.8135 26.9992 45.9347 26.9757 46.0476 26.931C46.1605 26.8863 46.2629 26.8211 46.3489 26.7394C46.435 26.6576 46.503 26.5607 46.549 26.4543C46.5951 26.3479 46.6183 26.2341 46.6174 26.1193C46.6084 24.9686 47.0878 23.8618 47.9501 23.0422C48.8124 22.2225 49.987 21.7572 51.2156 21.7487H51.2507C52.4734 21.7488 53.6465 22.2015 54.5142 23.0083C55.3819 23.8151 55.874 24.9104 55.883 26.0554C55.8848 26.2862 55.984 26.5069 56.1589 26.6694C56.3337 26.832 56.5701 26.9232 56.8165 26.9232H56.8234C56.946 26.9223 57.0672 26.8989 57.1801 26.8542C57.293 26.8094 57.3954 26.7443 57.4815 26.6625C57.5675 26.5808 57.6355 26.4839 57.6816 26.3775C57.7276 26.2711 57.7509 26.1573 57.75 26.0425C57.7405 24.8385 57.3501 23.6643 56.628 22.6682C55.9059 21.6721 54.8847 20.8989 53.6934 20.4463C52.5021 19.9938 51.1943 19.8823 49.9354 20.1259C48.6764 20.3695 47.5229 20.9573 46.6206 21.8149H46.6201Z" fill="#DBE7EC"/>
<path d="M17.7505 33H17.7206C16.6638 33.0034 15.6517 33.3753 14.9071 34.034C14.1624 34.6927 13.7462 35.5843 13.75 36.5126C13.7538 37.4408 14.1773 38.3297 14.9273 38.9837C15.6773 39.6378 16.6924 40.0033 17.7492 40H17.7794C18.8362 39.9966 19.8483 39.6247 20.5929 38.966C21.3376 38.3072 21.7538 37.4157 21.75 36.4874C21.7462 35.5592 21.3227 34.6703 20.5727 34.0163C19.8227 33.3622 18.8076 32.9967 17.7508 33H17.7505ZM17.7648 38.2417H17.7498C17.4894 38.2425 17.2313 38.1983 16.9904 38.1115C16.7494 38.0248 16.5303 37.8972 16.3455 37.736C15.9723 37.4106 15.7615 36.9682 15.7596 36.5063C15.7577 36.0444 15.9648 35.6007 16.3354 35.2729C16.7059 34.9451 17.2096 34.76 17.7355 34.7583H17.7498C18.0102 34.7575 18.2682 34.8017 18.5092 34.8885C18.7501 34.9752 18.9693 35.1028 19.1541 35.264C19.3389 35.4251 19.4857 35.6167 19.5863 35.8277C19.6868 36.0387 19.739 36.265 19.7399 36.4937C19.7409 36.7224 19.6905 36.9491 19.5917 37.1607C19.4929 37.3723 19.3477 37.5648 19.1642 37.7271C18.9807 37.8894 18.7626 38.0184 18.5224 38.1067C18.2822 38.195 18.0245 38.2409 17.7641 38.2417H17.7648Z" fill="#DBE7EC"/>
<path d="M69.7944 31.2247C69.7993 31.1841 69.8017 31.1432 69.8015 31.1023C69.8004 29.5304 69.2384 28.0121 68.2194 26.8283C67.9262 26.4919 67.5955 26.1912 67.2339 25.9324L70.7498 25.9048C70.8743 25.9038 70.9973 25.8772 71.1113 25.8266C71.2254 25.7759 71.3281 25.7023 71.4134 25.6102C71.4986 25.5181 71.5644 25.4094 71.607 25.2907C71.6496 25.172 71.668 25.0457 71.6611 24.9196C71.5973 24.1041 71.434 23.2998 71.1749 22.5252C70.6109 20.8495 68.8698 19.7727 66.7315 19.7727H66.6838C65.3649 19.7825 62.9659 19.7917 61.8942 19.7956L59.7119 15.7867C58.2036 13.09 56.0137 10 52.4225 10H52.3757L26.0386 10.1972C23.0883 10.2192 20.4832 12.3145 18.701 16.0985L16.4839 20.1551C15.4152 20.1608 12.9886 20.1743 11.6526 20.1843C9.4926 20.2 7.74561 21.3067 7.20266 23.0035C6.95481 23.7819 6.80302 24.5886 6.75077 25.4049C6.7457 25.5306 6.76572 25.656 6.80963 25.7736C6.85353 25.8913 6.92041 25.9987 7.00625 26.0894C7.09209 26.1801 7.19511 26.2523 7.30914 26.3017C7.42317 26.351 7.54584 26.3764 7.66979 26.3764H7.67781L11.1372 26.346C10.7855 26.6115 10.4655 26.9178 10.1838 27.2587C9.20139 28.4678 8.67505 29.9922 8.69894 31.5591C8.69922 31.5983 8.70194 31.6374 8.70708 31.6763L10.3432 44.0601C10.3659 44.908 10.6807 45.721 11.2329 46.3579C11.785 46.9948 12.5395 47.4152 13.3654 47.5463L13.3943 51.5491C13.3988 52.1496 13.637 52.724 14.057 53.1471C14.477 53.5703 15.0448 53.8078 15.6367 53.808H15.6538L19.6708 53.7779C20.2653 53.7727 20.8336 53.5285 21.2509 53.0987C21.6682 52.669 21.9004 52.0888 21.8967 51.4855L21.8681 47.5288L33.5521 47.4415C33.5113 47.9804 33.4905 48.5221 33.4897 49.0667C33.4897 60.6093 42.7443 70 54.1198 70C65.4953 70 74.7499 60.6093 74.7499 49.0667C74.7643 43.8326 72.8317 38.7857 69.3384 34.9345L69.7944 31.2247ZM66.6963 21.64H66.729C68.0478 21.64 69.1322 22.2361 69.4329 23.1293C69.5334 23.43 69.6159 23.7365 69.68 24.0472L64.229 24.0899L62.9065 21.6587C64.0982 21.654 65.7029 21.6469 66.6963 21.64ZM20.3236 16.9788C20.3329 16.9619 20.3416 16.9445 20.3498 16.9271C21.1972 15.1203 23.0647 12.0861 26.0527 12.0639L52.3892 11.8667H52.423C54.5123 11.8667 56.2154 13.3172 58.1067 16.6984L62.6006 24.9581L15.7701 25.3083L20.3236 16.9788ZM8.71812 24.5005C8.7778 24.1894 8.85578 23.8822 8.95162 23.5805C9.24163 22.6755 10.3325 22.0605 11.6663 22.0508C12.6625 22.0433 14.2666 22.034 15.4604 22.0273L14.1346 24.4533L8.71812 24.5005ZM19.6571 51.9112L15.6401 51.9413C15.587 51.9432 15.5342 51.9336 15.4849 51.9133C15.4357 51.893 15.3913 51.8625 15.3545 51.8236C15.3167 51.786 15.2866 51.7411 15.266 51.6917C15.2453 51.6422 15.2345 51.5891 15.2342 51.5353L15.205 47.5787L20.0275 47.5425L20.0562 51.4992C20.0569 51.6075 20.0153 51.7116 19.9405 51.7889C19.8657 51.8661 19.7638 51.9101 19.6571 51.9112ZM33.7766 45.5733L13.9202 45.7215C13.4631 45.7229 13.024 45.5411 12.6984 45.2155C12.3728 44.89 12.1871 44.4471 12.1817 43.9833C12.1814 43.9441 12.1787 43.9049 12.1735 43.866L10.538 31.4887C10.5443 28.8887 12.2892 27.2887 14.0465 27.1716C14.0978 27.1811 14.1499 27.1862 14.2021 27.1867H14.2089L64.1212 26.8133C64.1287 26.8133 64.1362 26.8144 64.1437 26.8144C64.1548 26.8144 64.1657 26.8144 64.1767 26.8144C64.6833 26.8168 65.1836 26.9297 65.6435 27.1456C66.1033 27.3616 66.512 27.6754 66.8418 28.0657C67.5483 28.8993 67.9443 29.958 67.9608 31.0573L67.6856 33.296C64.1932 30.2032 59.7761 28.3938 55.1465 28.1594C50.5168 27.9249 45.9442 29.2791 42.1656 32.0037C40.548 33.1717 39.1041 34.5695 37.8784 36.1543L37.8613 33.7983C37.8595 33.5519 37.7618 33.3163 37.5895 33.1428C37.4172 32.9692 37.1842 32.8719 36.9415 32.8719H36.9346C36.8138 32.8728 36.6944 32.8978 36.5831 32.9455C36.4718 32.9933 36.3709 33.0628 36.2861 33.1501C36.2013 33.2374 36.1343 33.3408 36.0889 33.4544C36.0435 33.568 36.0206 33.6896 36.0215 33.8121L36.0402 36.376C36.0419 36.6224 36.1396 36.858 36.3119 37.0316C36.4842 37.2051 36.7172 37.3025 36.96 37.3025H36.967C36.9966 37.3025 37.0261 37.3003 37.0551 37.2973C35.3859 39.7832 34.2674 42.6067 33.7766 45.5733ZM72.9103 49.0667C72.9103 59.5801 64.481 68.1333 54.1198 68.1333C43.7586 68.1333 35.3293 59.5801 35.3293 49.0667C35.3293 44.0099 37.309 39.1602 40.8329 35.5845C44.3568 32.0088 49.1362 30 54.1198 30C59.1033 30 63.8828 32.0088 67.4067 35.5845C70.9306 39.1602 72.9103 44.0099 72.9103 49.0667Z" fill="#DBE7EC"/>
<path d="M32.245 33H32.2413C32.1763 33.0008 32.1121 33.0234 32.0522 33.0665C31.9923 33.1096 31.938 33.1723 31.8924 33.2512C31.8468 33.33 31.8107 33.4234 31.7863 33.5259C31.7619 33.6285 31.7495 33.7382 31.75 33.8489L31.7601 36.1636C31.761 36.386 31.8136 36.5987 31.9063 36.7554C31.999 36.9121 32.1244 37 32.255 37H32.2587C32.3237 36.9992 32.388 36.9766 32.4479 36.9335C32.5077 36.8904 32.562 36.8276 32.6076 36.7488C32.6532 36.6699 32.6893 36.5766 32.7137 36.474C32.7381 36.3715 32.7505 36.2618 32.75 36.1511L32.7396 33.8366C32.7387 33.6143 32.6862 33.4016 32.5935 33.2449C32.5009 33.0882 32.3756 33.0002 32.245 33Z" fill="#DBE7EC"/>
<path d="M27.74 33H27.7325C27.6025 33.0008 27.474 33.0234 27.3543 33.0665C27.2346 33.1096 27.126 33.1724 27.0347 33.2512C26.9435 33.33 26.8714 33.4234 26.8226 33.5259C26.7737 33.6285 26.7491 33.7382 26.75 33.8488L26.7701 36.1637C26.772 36.3861 26.8772 36.5988 27.0626 36.7554C27.248 36.9121 27.4987 37 27.76 37H27.7673C27.8973 36.9992 28.0259 36.9766 28.1456 36.9335C28.2654 36.8904 28.374 36.8277 28.4652 36.7488C28.5565 36.67 28.6286 36.5767 28.6774 36.4741C28.7263 36.3716 28.7509 36.2618 28.75 36.1512L28.7299 33.8364C28.728 33.614 28.6229 33.4013 28.4374 33.2446C28.252 33.0879 28.0013 33 27.74 33Z" fill="#DBE7EC"/>
<path d="M68.2346 45.7237C68.487 45.5301 68.661 45.2497 68.724 44.935C68.787 44.6204 68.7346 44.2933 68.5767 44.0151L65.581 38.9013C65.2658 38.3691 64.609 38.0365 63.9539 38.4134L60.8796 39.8489C60.2145 39.3651 59.5047 38.948 58.7602 38.6034L58.4521 35.163C58.4482 35.1199 58.4414 35.0772 58.4317 35.0351C58.3731 34.7477 58.2203 34.4889 57.9982 34.3009C57.7761 34.1129 57.4978 34.0069 57.2087 34.0001H51.3595C51.0501 33.9964 50.7506 34.1109 50.5204 34.321C50.2903 34.531 50.1465 34.8212 50.1174 35.1339L49.8082 38.6027C49.056 38.937 48.3418 39.3532 47.6781 39.8439L44.5889 38.4017C44.575 38.3953 44.5612 38.3893 44.547 38.3836C43.9699 38.1493 43.2668 38.3869 42.9852 38.903L40.0638 44.0086C39.9011 44.2883 39.8466 44.6193 39.9108 44.9374C39.975 45.2555 40.1533 45.5381 40.4112 45.7304L40.4299 45.7444L43.2047 47.7467C43.0794 48.5751 43.079 49.4181 43.2035 50.2466L40.296 52.2557C40.2838 52.2641 40.2716 52.2729 40.2597 52.282C40.0099 52.4755 39.8379 52.7546 39.7757 53.0672C39.7134 53.3798 39.7652 53.7047 39.9213 53.9815L42.846 59.0901L42.8527 59.1018C43.006 59.3725 43.2482 59.5798 43.537 59.6872C43.6913 59.7407 43.8553 59.7595 44.0176 59.7423C44.1798 59.7251 44.3364 59.6724 44.4766 59.5877L47.553 58.1513C48.2182 58.6348 48.928 59.0518 49.6723 59.3965L49.9807 62.8374C49.9846 62.8804 49.9915 62.9231 50.0012 62.9652C50.0597 63.2525 50.2124 63.5113 50.4345 63.6992C50.6565 63.8872 50.9348 63.9932 51.2238 63.9999H57.073C57.3823 64.0036 57.6817 63.8892 57.9118 63.6792C58.1418 63.4693 58.2857 63.1793 58.3149 62.8667L58.6247 59.3969C59.3767 59.0625 60.0908 58.6465 60.7544 58.1559L63.8431 59.5984C63.8582 59.6054 63.8734 59.6115 63.889 59.6182C64.4626 59.8481 65.1648 59.6104 65.4459 59.0986L68.3725 53.9859C68.5328 53.7075 68.5863 53.3789 68.5225 53.0631C68.4588 52.7472 68.2824 52.4664 68.0271 52.2745L65.4305 50.2669C65.5573 49.4316 65.5579 48.5815 65.4322 47.746L68.2141 45.7385C68.2212 45.7338 68.2278 45.7287 68.2346 45.7237ZM63.9325 46.571C63.7967 46.6689 63.6902 46.8029 63.6245 46.9582C63.5589 47.1136 63.5367 47.2843 63.5603 47.4516L63.59 47.6619C63.7543 48.5464 63.7543 49.4543 63.59 50.3388L63.5611 50.5417C63.5381 50.704 63.5582 50.8696 63.6193 51.0213C63.6805 51.1731 63.7805 51.3055 63.909 51.4048L66.5741 53.4654L64.1421 57.7142L61.0052 56.2492C60.851 56.1773 60.6799 56.1507 60.5114 56.1726C60.343 56.1945 60.184 56.2639 60.0525 56.3729L59.8864 56.5108C59.1894 57.0616 58.4201 57.5108 57.6007 57.8456L57.4132 57.9272C57.263 57.9926 57.133 58.0979 57.037 58.2321C56.9409 58.3663 56.8824 58.5244 56.8676 58.6895L56.5576 62.1608H51.7404L51.4296 58.6893C51.4148 58.5241 51.3563 58.3661 51.2602 58.2319C51.1642 58.0977 51.0342 57.9923 50.884 57.927L50.6953 57.8456C49.8676 57.488 49.0861 57.029 48.3682 56.4787L48.2048 56.3541C48.0741 56.2545 47.9193 56.1925 47.7568 56.1749C47.5942 56.1573 47.43 56.1847 47.2816 56.2541L44.1539 57.7144L41.7343 53.4868L44.5123 51.5673C44.5195 51.5623 44.5268 51.5571 44.534 51.5519L44.7097 51.4227C44.8433 51.3245 44.9479 51.1911 45.0124 51.037C45.0768 50.8828 45.0986 50.7138 45.0754 50.548L45.0452 50.3322C44.881 49.4494 44.8814 48.5432 45.0462 47.6606L45.0756 47.4503C45.0991 47.2831 45.0768 47.1127 45.0112 46.9575C44.9456 46.8024 44.8391 46.6686 44.7036 46.5707L41.8651 44.5224L44.2892 40.2871L47.4268 41.7518C47.581 41.8238 47.752 41.8503 47.9204 41.8285C48.0888 41.8066 48.2478 41.7372 48.3792 41.6281L48.5452 41.4904C49.2421 40.9398 50.0112 40.4905 50.8304 40.1557L51.0187 40.0739C51.1691 40.0086 51.2993 39.9032 51.3955 39.7689C51.4917 39.6346 51.5503 39.4764 51.565 39.311L51.8743 35.8399H56.6921L57.0029 39.3112C57.0178 39.4765 57.0764 39.6346 57.1725 39.7688C57.2687 39.903 57.3988 40.0083 57.5491 40.0735L57.7369 40.155C58.5646 40.5125 59.346 40.9715 60.0637 41.5219L60.2272 41.6467C60.3579 41.7462 60.5127 41.8081 60.6752 41.8257C60.8378 41.8433 61.0019 41.816 61.1504 41.7467L64.2824 40.2841L66.7664 44.5244L63.9325 46.571Z" fill="#DBE7EC"/>
<path d="M54.2497 41C49.4835 41 45.75 44.514 45.75 48.9999C45.75 53.4858 49.4835 57 54.2497 57C59.016 57 62.75 53.4859 62.75 48.9999C62.75 44.5138 59.0158 41 54.2497 41ZM54.2497 55.2032C52.9462 55.2031 51.6719 54.8393 50.588 54.1577C49.5042 53.4761 48.6594 52.5073 48.1606 51.3738C47.6617 50.2403 47.5312 48.9931 47.7855 47.7898C48.0399 46.5865 48.6676 45.4812 49.5893 44.6137C50.5111 43.7462 51.6855 43.1554 52.964 42.916C54.2425 42.6767 55.5677 42.7995 56.7721 43.269C57.9764 43.7385 59.0058 44.5335 59.73 45.5536C60.4542 46.5737 60.8408 47.773 60.8408 48.9999C60.8503 49.817 60.6862 50.6276 60.3583 51.3842C60.0305 52.1409 59.5453 52.8283 58.9314 53.4061C58.3174 53.9839 57.5871 54.4405 56.7832 54.7491C55.9792 55.0577 55.1179 55.2121 54.2497 55.2032Z" fill="#DBE7EC"/>
<path d="M54.2497 45.0002C53.3597 45.0003 52.4897 45.2349 51.7498 45.6744C51.0098 46.1139 50.433 46.7387 50.0925 47.4695C49.7519 48.2004 49.6628 49.0047 49.8365 49.7806C50.0101 50.5565 50.4387 51.2692 51.0681 51.8285C51.6974 52.3879 52.4992 52.7689 53.3721 52.9232C54.245 53.0775 55.1498 52.9982 55.972 52.6955C56.7943 52.3927 57.497 51.88 57.9915 51.2222C58.4859 50.5644 58.7498 49.7911 58.7497 49C58.7561 48.4731 58.6441 47.9504 58.4202 47.4626C58.1963 46.9747 57.8651 46.5315 57.446 46.159C57.0268 45.7864 56.5282 45.492 55.9793 45.293C55.4305 45.0941 54.8424 44.9945 54.2497 45.0002ZM54.2497 51.2457C53.7501 51.2456 53.2617 51.1139 52.8463 50.8672C52.4309 50.6204 52.1071 50.2697 51.9159 49.8594C51.7247 49.4491 51.6747 48.9976 51.7722 48.562C51.8697 48.1264 52.1103 47.7263 52.4636 47.4123C52.8168 47.0982 53.267 46.8844 53.757 46.7977C54.247 46.7111 54.755 46.7555 55.2166 46.9255C55.6782 47.0954 56.0727 47.3832 56.3503 47.7525C56.6279 48.1217 56.7761 48.5559 56.7761 49C56.7797 49.2958 56.7169 49.5893 56.5912 49.8632C56.4655 50.1371 56.2796 50.3859 56.0442 50.5951C55.8089 50.8043 55.529 50.9696 55.2208 51.0813C54.9127 51.193 54.5825 51.2489 54.2497 51.2457Z" fill="#DBE7EC"/>
</svg>
