<svg width="14" height="11" viewBox="0 0 14 11" fill="none" xmlns="http://www.w3.org/2000/svg">
<path d="M8.10747 2.27077L8.10551 2.2687C8.01541 2.17402 7.94271 2.06028 7.8927 1.93337C7.84267 1.80644 7.81664 1.6696 7.81664 1.53087C7.81664 1.39214 7.84267 1.2553 7.8927 1.12837C7.94271 1.00147 8.01541 0.887729 8.10551 0.793045C8.19555 0.698411 8.3011 0.624744 8.41542 0.574975C8.52968 0.525236 8.6512 0.5 8.77328 0.5C8.89536 0.5 9.01689 0.525236 9.13115 0.574975C9.24547 0.624743 9.35101 0.69841 9.44106 0.793045L13.2104 4.7545C13.5936 5.15719 13.6002 5.82303 13.2081 6.24798L9.44106 10.207C9.25952 10.3977 9.01876 10.5 8.77328 10.5C8.52781 10.5 8.28704 10.3977 8.10551 10.207C7.92316 10.0153 7.81664 9.75033 7.81664 9.46913C7.81664 9.18793 7.92316 8.92294 8.10551 8.7313L8.10747 8.72923L9.37854 7.37804L10.1712 6.53545H9.01435H1.461C0.956718 6.53545 0.5 6.09206 0.5 5.5C0.5 4.90794 0.956718 4.46455 1.461 4.46455H9.01435H10.1712L9.37854 3.62196L8.10747 2.27077L8.10747 2.27077Z" fill="white" stroke="#2285E0"/>
</svg>
