<svg width="25" height="25" viewBox="0 0 25 25" fill="none" xmlns="http://www.w3.org/2000/svg">
<path d="M13.3333 4.40583C17.8333 4.90283 21.3333 8.71783 21.3333 13.3508V22.3508H3.33325V13.3508C3.33325 8.71783 6.83325 4.90283 11.3333 4.40583V1.35083H13.3333V4.40583ZM19.3333 20.3508V13.3508C19.3333 11.4943 18.5958 9.71384 17.283 8.40108C15.9702 7.08833 14.1898 6.35083 12.3333 6.35083C10.4767 6.35083 8.69626 7.08833 7.3835 8.40108C6.07075 9.71384 5.33325 11.4943 5.33325 13.3508V20.3508H19.3333ZM12.3333 18.3508C11.0072 18.3508 9.7354 17.824 8.79772 16.8864C7.86004 15.9487 7.33325 14.6769 7.33325 13.3508C7.33325 12.0247 7.86004 10.753 8.79772 9.8153C9.7354 8.87761 11.0072 8.35083 12.3333 8.35083C13.6593 8.35083 14.9311 8.87761 15.8688 9.8153C16.8065 10.753 17.3333 12.0247 17.3333 13.3508C17.3333 14.6769 16.8065 15.9487 15.8688 16.8864C14.9311 17.824 13.6593 18.3508 12.3333 18.3508ZM12.3333 16.3508C13.1289 16.3508 13.892 16.0348 14.4546 15.4722C15.0172 14.9095 15.3333 14.1465 15.3333 13.3508C15.3333 12.5552 15.0172 11.7921 14.4546 11.2295C13.892 10.6669 13.1289 10.3508 12.3333 10.3508C11.5376 10.3508 10.7745 10.6669 10.2119 11.2295C9.64932 11.7921 9.33325 12.5552 9.33325 13.3508C9.33325 14.1465 9.64932 14.9095 10.2119 15.4722C10.7745 16.0348 11.5376 16.3508 12.3333 16.3508ZM12.3333 14.3508C12.068 14.3508 11.8137 14.2455 11.6261 14.0579C11.4386 13.8704 11.3333 13.616 11.3333 13.3508C11.3333 13.0856 11.4386 12.8313 11.6261 12.6437C11.8137 12.4562 12.068 12.3508 12.3333 12.3508C12.5985 12.3508 12.8528 12.4562 13.0404 12.6437C13.2279 12.8313 13.3333 13.0856 13.3333 13.3508C13.3333 13.616 13.2279 13.8704 13.0404 14.0579C12.8528 14.2455 12.5985 14.3508 12.3333 14.3508Z" fill="#2285E0"/>
</svg>
