<svg width="25" height="25" viewBox="0 0 25 25" fill="none" xmlns="http://www.w3.org/2000/svg">
<path d="M21.25 11.5H18.25V4.5C18.25 4.23478 18.1446 3.98043 17.9571 3.79289C17.7696 3.60536 17.5152 3.5 17.25 3.5H3.25C2.98478 3.5 2.73043 3.60536 2.54289 3.79289C2.35536 3.98043 2.25 4.23478 2.25 4.5V18.5C2.25 20.154 3.596 21.5 5.25 21.5H19.25C20.904 21.5 22.25 20.154 22.25 18.5V12.5C22.25 12.2348 22.1446 11.9804 21.9571 11.7929C21.7696 11.6054 21.5152 11.5 21.25 11.5ZM5.25 19.5C4.98478 19.5 4.73043 19.3946 4.54289 19.2071C4.35536 19.0196 4.25 18.7652 4.25 18.5V5.5H16.25V18.5C16.25 18.851 16.311 19.188 16.421 19.5H5.25ZM20.25 18.5C20.25 18.7652 20.1446 19.0196 19.9571 19.2071C19.7696 19.3946 19.5152 19.5 19.25 19.5C18.9848 19.5 18.7304 19.3946 18.5429 19.2071C18.3554 19.0196 18.25 18.7652 18.25 18.5V13.5H20.25V18.5Z" fill="#2285E0"/>
<path d="M6.25 7.5H14.25V9.5H6.25V7.5ZM6.25 11.5H14.25V13.5H6.25V11.5ZM11.25 15.5H14.25V17.5H11.25V15.5Z" fill="#2285E0"/>
</svg>
