<svg width="24" height="25" viewBox="0 0 24 25" fill="none" xmlns="http://www.w3.org/2000/svg">
<path d="M5 22.5965H19C19.5304 22.5965 20.0391 22.3858 20.4142 22.0107C20.7893 21.6356 21 21.1269 21 20.5965V11.5965C21.0008 11.4649 20.9755 11.3344 20.9258 11.2126C20.876 11.0908 20.8027 10.9799 20.71 10.8865L12.71 2.8865C12.5226 2.70024 12.2692 2.5957 12.005 2.5957C11.7408 2.5957 11.4874 2.70024 11.3 2.8865L3.3 10.8865C3.20551 10.9791 3.13034 11.0896 3.07885 11.2114C3.02735 11.3333 3.00055 11.4642 3 11.5965V20.5965C3 21.1269 3.21071 21.6356 3.58579 22.0107C3.96086 22.3858 4.46957 22.5965 5 22.5965ZM10 20.5965V15.5965H14V20.5965H10ZM5 12.0065L12 5.0065L19 12.0065V20.5965H16V15.5965C16 15.0661 15.7893 14.5574 15.4142 14.1823C15.0391 13.8072 14.5304 13.5965 14 13.5965H10C9.46957 13.5965 8.96086 13.8072 8.58579 14.1823C8.21071 14.5574 8 15.0661 8 15.5965V20.5965H5V12.0065Z" fill="white"/>
</svg>
