<svg width="150" height="149" viewBox="0 0 150 149" fill="none" xmlns="http://www.w3.org/2000/svg">
<path fill-rule="evenodd" clip-rule="evenodd" d="M74.75 19C44.0982 19 19.25 43.8482 19.25 74.5C19.25 105.152 44.0982 130 74.75 130C105.402 130 130.25 105.152 130.25 74.5C130.25 43.8482 105.402 19 74.75 19ZM0.25 74.5C0.25 33.3548 33.6048 0 74.75 0C115.895 0 149.25 33.3548 149.25 74.5C149.25 115.645 115.895 149 74.75 149C33.6048 149 0.25 115.645 0.25 74.5Z" fill="#EFF4F7"/>
<path fill-rule="evenodd" clip-rule="evenodd" d="M35.839 113.754C42.2723 120.206 50.1906 124.965 58.8912 127.612C67.5918 130.259 76.8082 130.713 85.7249 128.935C94.6417 127.156 102.986 123.198 110.018 117.411L116.055 124.746L110.018 117.411C117.05 111.623 122.552 104.183 126.036 95.748C129.52 87.313 130.876 78.1453 129.983 69.0574C129.091 59.9695 125.978 51.2445 120.921 43.6552C115.865 36.066 109.023 29.8474 101.003 25.5479C92.9823 21.2485 84.0305 19 74.9396 19L74.9396 1.29615e-05C87.165 1.24271e-05 99.2004 3.02394 109.979 8.80232C120.758 14.5806 129.947 22.9342 136.734 33.1207C143.52 43.307 147.696 55.0126 148.892 67.2004C150.089 79.3882 148.271 91.6845 143.597 103.001C138.923 114.317 131.538 124.306 122.092 132.081C112.646 139.855 101.432 145.176 89.442 147.567C77.4521 149.959 65.0589 149.349 53.361 145.79C41.6633 142.231 31.024 135.835 22.3844 127.17L35.839 113.754Z" fill="#2285E0"/>
</svg>
