<svg width="24" height="26" viewBox="0 0 24 26" fill="none" xmlns="http://www.w3.org/2000/svg">
<g clip-path="url(#clip0_803_17437)">
<path fill-rule="evenodd" clip-rule="evenodd" d="M0 7.92575C0 6.97762 0.376643 6.06833 1.04707 5.3979C1.7175 4.72747 2.62679 4.35083 3.57492 4.35083H20.2579C21.206 4.35083 22.1153 4.72747 22.7858 5.3979C23.4562 6.06833 23.8328 6.97762 23.8328 7.92575V17.4589C23.8328 18.407 23.4562 19.3163 22.7858 19.9867C22.1153 20.6572 21.206 21.0338 20.2579 21.0338H3.57492C2.62679 21.0338 1.7175 20.6572 1.04707 19.9867C0.376643 19.3163 0 18.407 0 17.4589V7.92575ZM3.57492 6.73411H20.2579C20.5739 6.73411 20.877 6.85966 21.1005 7.08314C21.324 7.30661 21.4495 7.60971 21.4495 7.92575V11.5007H2.38328V7.92575C2.38328 7.60971 2.50883 7.30661 2.73231 7.08314C2.95578 6.85966 3.25888 6.73411 3.57492 6.73411ZM2.38328 13.884V17.4589C2.38328 17.7749 2.50883 18.078 2.73231 18.3015C2.95578 18.525 3.25888 18.6505 3.57492 18.6505H7.14985V13.884H2.38328ZM9.53313 18.6505H20.2579C20.5739 18.6505 20.877 18.525 21.1005 18.3015C21.324 18.078 21.4495 17.7749 21.4495 17.4589V13.884H9.53313V18.6505Z" fill="#2285E0"/>
</g>
<defs>
<clipPath id="clip0_803_17437">
<rect y="0.35083" width="23.8328" height="24.683" fill="white"/>
</clipPath>
</defs>
</svg>
