<svg width="201" height="319" viewBox="0 0 201 319" fill="none" xmlns="http://www.w3.org/2000/svg">
<path d="M105.626 313.495L105.335 313.571C105.262 313.571 95.7434 315.392 89.2763 315.998C84.2625 316.454 79.9754 316.454 74.9616 316.378C73.4357 316.378 71.7644 316.378 70.0932 316.378C63.4081 316.378 54.1072 315.847 49.4567 315.24C45.0969 314.709 40.5918 313.571 40.5918 313.571L40.3738 313.495L40.5918 313.343C40.8098 313.192 45.9689 310.309 46.7682 310.233C47.1315 310.157 51.2733 310.309 56.4324 310.461C62.6088 310.688 70.3111 310.916 73.581 310.916C78.3768 310.916 89.8576 310.233 94.7261 309.93C95.8887 309.854 96.6153 309.778 96.8333 309.778C97.7053 309.778 98.5772 310.157 99.3039 310.461C99.5219 310.537 99.6672 310.612 99.8125 310.688C100.612 310.992 105.044 313.192 105.262 313.343L105.626 313.495ZM40.8824 313.419C41.827 313.647 45.6782 314.557 49.4567 315.088C54.1072 315.695 63.4081 316.226 70.0932 316.226C71.7644 316.226 73.4357 316.226 74.9616 316.226C79.9754 316.302 84.2625 316.302 89.2763 315.847C95.0894 315.316 103.373 313.723 105.044 313.419C104.027 312.964 100.539 311.219 99.8852 310.916C99.7399 310.84 99.5219 310.764 99.3765 310.688C98.6499 310.385 97.778 309.93 96.9786 310.006C96.7607 310.006 96.034 310.081 94.8714 310.157C89.9303 310.461 78.4495 311.143 73.7263 311.143C70.4565 311.143 62.7541 310.916 56.5777 310.764C51.564 310.612 47.2768 310.461 46.9135 310.537C46.1869 310.537 42.7717 312.357 40.8824 313.419Z" fill="#9FB7D3"/>
<path d="M45.7507 8.16263L44.5881 8.69365C43.2075 9.37639 37.1038 12.259 32.9619 13.7762C28.9655 15.2934 24.1697 19.8449 21.1178 25.155C18.0659 30.4652 15.886 43.5888 15.886 43.7405L15.5227 43.7405C15.5227 38.3545 17.2666 31.2238 18.2839 27.355C18.5746 26.2929 18.7199 25.4585 18.8652 25.0033C19.3012 22.7276 22.2804 18.5553 27.9482 14.5348C34.1972 10.0591 44.4428 8.46606 44.5154 8.46606L45.7507 8.16263ZM16.104 40.9337C16.9033 36.7615 18.6472 28.8721 20.8998 25.0033C24.0243 19.6173 28.8201 14.9899 32.9619 13.4728C36.2318 12.259 40.8096 10.135 43.2075 8.99709C40.2283 9.60396 33.0346 11.3487 28.2388 14.7624C22.7164 18.707 19.7372 22.8034 19.3012 25.0033C19.2285 25.4585 19.0106 26.2929 18.7199 27.4308C17.8479 30.6169 16.54 36.0787 16.104 40.9337Z" fill="#9FB7D3"/>
<path d="M130.696 43.6658L130.332 43.6658C130.332 43.5141 128.152 30.4663 125.1 25.0803C122.049 19.7702 117.253 15.2186 113.256 13.7015C109.187 12.1843 103.083 9.30162 101.63 8.61889L100.468 8.08786L101.703 8.31545C101.775 8.31545 112.021 9.98435 118.27 14.3842C123.938 18.4047 126.917 22.5769 127.353 24.8527C127.426 25.3079 127.644 26.1423 127.934 27.2044C128.879 31.149 130.696 38.3556 130.696 43.6658ZM103.083 8.99818C105.481 10.1361 110.132 12.2601 113.329 13.4739C117.398 14.991 122.267 19.6185 125.391 25.0044C127.644 28.8733 129.388 36.7626 130.187 40.9348C129.751 36.0799 128.37 30.618 127.571 27.3561C127.28 26.2941 127.062 25.4596 126.99 24.9286C126.554 22.8045 123.647 18.6323 118.052 14.6876C113.256 11.3498 106.135 9.60505 103.083 8.99818Z" fill="#9FB7D3"/>
<path d="M42.046 307.123L41.7553 307.274C41.61 307.35 38.7761 308.867 34.9249 307.654C31.3644 306.516 23.2988 301.888 19.8109 296.73C16.3231 291.572 15.3784 288.537 15.4511 283.227C15.5238 277.765 17.3403 269.573 17.413 269.497L17.413 269.421L20.1016 267.069L20.1742 267.297C20.2469 267.524 28.2399 287.02 30.7104 292.406L31.2191 293.468C33.4717 298.247 35.2156 302.04 37.5408 303.937C39.4301 305.454 41.6826 306.895 41.6826 306.895L42.046 307.123ZM15.8871 283.758C15.8871 288.689 16.9044 291.647 20.1742 296.578C23.5894 301.661 31.5824 306.212 35.0703 307.35C38.0495 308.336 40.4474 307.502 41.3193 307.123C40.6654 306.668 38.9214 305.53 37.4682 304.316C35.0703 302.344 33.2537 298.551 31.0011 293.696L30.4925 292.634C28.0946 287.551 20.9735 270.028 20.0289 267.752L17.849 269.724C17.7037 270.483 16.0324 278.145 15.9597 283.303C15.8871 283.455 15.8871 283.606 15.8871 283.758Z" fill="#9FB7D3"/>
<path d="M145.08 211.239L145.08 211.467C145.08 211.543 144.862 214.273 143.481 215.791C142.1 217.308 138.322 219.659 135.488 220.342C133.017 220.949 129.748 222.011 128.44 222.921C127.204 223.756 126.405 225.273 126.405 225.273L126.042 225.88L126.042 216.018L128.876 216.018C128.803 215.184 128.803 214.273 128.948 214.122C129.021 214.046 129.166 213.818 144.934 211.315L145.08 211.239ZM126.332 224.514C126.696 223.983 127.35 223.149 128.149 222.618C129.53 221.708 132.727 220.646 135.343 220.039C138.031 219.356 141.81 217.08 143.19 215.639C144.28 214.425 144.571 212.453 144.716 211.77C138.758 212.756 129.966 214.198 129.166 214.425C129.094 214.653 129.166 215.487 129.239 216.246L129.239 216.473L126.405 216.473L126.405 224.514L126.332 224.514Z" fill="#9FB7D3"/>
<path d="M30.0532 148.274L30.0532 148.577C29.9079 163.522 29.1086 175.811 27.51 186.127C26.4201 193.106 24.6035 202.361 22.0603 213.588L22.0603 213.74L18.7904 213.74L18.7904 213.588C18.3544 199.479 17.7731 177.48 17.7004 153.053L17.7004 152.901L17.8458 152.825L30.0532 148.274ZM21.6969 213.361C24.2402 202.209 26.0567 193.031 27.074 186.052C28.6726 175.811 29.4719 163.673 29.6173 148.805L17.9184 153.129C17.9911 177.404 18.5724 199.251 19.0084 213.361L21.6969 213.361Z" fill="#9FB7D3"/>
<path d="M29.9833 139.549L17.5579 141.142L17.5579 140.915C17.7759 99.7234 20.1737 90.8479 21.7723 84.9309L21.9903 84.0206L29.2567 90.0893L29.2567 90.1652C29.6927 103.592 29.7653 122.784 29.838 133.177C29.838 135.377 29.838 137.274 29.838 138.639L29.9833 139.549ZM17.9938 140.763L29.6927 139.246L29.6927 138.715C29.6927 137.349 29.6927 135.529 29.6927 133.329C29.62 123.012 29.5473 103.82 29.1114 90.3927L22.3537 84.7792L22.281 85.1585C20.6097 90.9238 18.2118 99.7992 17.9938 140.763Z" fill="#9FB7D3"/>
<path d="M128.302 152.827L128.302 152.979C128.229 177.405 127.648 199.404 127.212 213.514L127.212 213.666L123.942 213.666L123.942 213.514C121.399 202.287 119.582 193.032 118.492 186.053C116.894 175.736 116.022 163.447 115.949 148.503L115.949 148.2L116.167 148.276L128.302 152.827ZM126.849 213.362C127.284 199.253 127.866 177.481 127.938 153.13L116.24 148.807C116.385 163.599 117.184 175.812 118.783 186.053C119.873 193.032 121.689 202.211 124.16 213.362L126.849 213.362Z" fill="#9FB7D3"/>
<path d="M128.299 141.147L115.874 139.554L115.874 138.644C115.874 137.278 115.874 135.458 115.874 133.258C115.946 122.865 116.019 103.673 116.455 90.2457L116.455 90.1698L123.794 84.1011L124.012 85.0114C125.61 90.9284 128.008 99.8039 128.226 140.995L128.299 141.147ZM116.31 139.251L128.008 140.768C127.79 99.8039 125.392 91.0042 123.794 85.0873L123.721 84.708L116.963 90.3215C116.528 103.749 116.455 122.865 116.382 133.182C116.382 135.382 116.382 137.278 116.382 138.644L116.31 139.251Z" fill="#9FB7D3"/>
<path d="M122.993 237.869C122.993 238.4 122.921 238.855 122.848 239.158L122.848 239.234C122.775 239.31 116.163 247.503 108.315 251.144C100.395 254.785 84.7724 257.668 72.7829 257.668C60.7934 257.668 45.1707 254.785 37.2504 251.144C29.4028 247.503 22.7177 239.386 22.7177 239.234L22.7177 239.158C21.9184 236.655 25.0429 221.18 25.9149 217.159C26.9322 212.38 32.7453 185.299 32.8179 184.995L32.8906 184.844L33.0359 184.844C37.4684 185.526 63.1913 187.423 72.7829 187.423C82.3745 187.423 108.097 185.526 112.53 184.844L112.675 184.844L112.748 184.995C112.82 185.299 118.634 212.38 119.651 217.159C120.45 220.725 122.993 233.393 122.993 237.869ZM122.557 239.007C123.211 236.731 120.595 223.152 119.288 217.235C118.27 212.684 112.893 187.574 112.384 185.223C107.516 185.906 82.2291 187.802 72.7102 187.802C63.1913 187.802 37.9044 185.981 33.0359 185.223C32.5273 187.574 27.1502 212.684 26.1329 217.235C24.825 223.152 22.2091 236.731 22.863 239.007C23.299 239.538 29.7661 247.275 37.2504 250.765C45.2434 254.406 60.7934 257.213 72.7829 257.213C84.6997 257.213 100.25 254.33 108.17 250.765C115.654 247.275 122.121 239.538 122.557 239.007Z" fill="#9FB7D3"/>
<path d="M119.362 229.901C119.362 234.3 117.182 240.066 113.549 242.493C112.314 243.328 110.788 244.01 109.189 244.693C108.535 244.997 107.954 245.224 107.3 245.528C99.307 249.245 82.2311 249.776 72.7848 249.776C63.3386 249.776 46.3353 249.245 38.2696 245.528C37.6157 245.224 37.0344 244.997 36.3804 244.693C34.7818 244.01 33.3285 243.404 32.0206 242.493C27.7334 239.611 25.4809 232.252 26.3528 227.777C26.6435 226.184 27.0068 224.515 27.2974 222.997C27.7334 220.873 28.0241 219.053 28.3147 217.763C29.1867 213.894 33.1105 195.612 34.7091 187.875L34.7091 187.723L34.8545 187.723C42.3388 188.482 63.9199 190.075 72.6395 190.075C81.3591 190.075 102.94 188.558 110.425 187.723L110.57 187.723L110.57 187.875C112.241 195.537 116.165 213.894 116.964 217.763C117.255 219.053 117.618 220.949 117.982 222.997C118.272 224.515 118.563 226.184 118.926 227.777C119.289 228.459 119.362 229.142 119.362 229.901ZM26.4981 229.901C26.4981 234.225 28.6054 239.838 32.1659 242.19C33.4012 243.024 34.8545 243.631 36.453 244.314C37.107 244.617 37.6883 244.845 38.3423 245.148C46.3353 248.789 63.2659 249.32 72.7122 249.32C82.1584 249.32 99.089 248.789 107.082 245.148C107.736 244.845 108.39 244.617 108.971 244.314C110.57 243.631 112.023 243.024 113.258 242.19C117.4 239.383 119.653 232.176 118.781 227.852C118.49 226.259 118.127 224.591 117.836 223.073C117.4 220.949 117.11 219.129 116.819 217.839C115.947 214.046 112.096 195.916 110.425 188.178C102.795 188.937 81.4318 190.454 72.7122 190.454C64.0652 190.454 42.6294 188.937 34.9998 188.178C33.3285 195.992 29.4773 214.046 28.6054 217.839C28.3147 219.129 27.9514 220.949 27.5881 223.073C27.2974 224.591 27.0068 226.259 26.6435 227.852C26.5708 228.535 26.4981 229.218 26.4981 229.901Z" fill="#9FB7D3"/>
<path d="M109.325 64.4507C109.325 69.5332 108.962 77.7259 108.672 83.6429C108.672 83.7188 108.744 85.3876 107.727 86.6014C107.073 87.36 106.056 87.7393 104.748 87.7393L41.0944 87.7393C39.7865 87.7393 38.8418 87.36 38.1152 86.6014C37.0252 85.3876 37.1706 83.7188 37.1706 83.6429C36.8799 77.7259 36.5166 69.5332 36.5166 64.4507C36.5166 63.4645 36.5166 62.63 36.5893 61.9473C36.6619 60.6577 36.6619 59.5198 36.6619 58.5337L36.6619 57.5475C36.6619 52.6926 36.9526 50.6444 39.6411 48.9755C43.565 46.4722 51.34 43.2102 72.9937 43.2102C94.6474 43.2102 102.422 46.4722 106.346 48.9755C109.035 50.6444 109.325 52.6926 109.325 57.5475L109.325 58.5337C109.325 59.5198 109.325 60.6577 109.398 61.9473C109.325 62.63 109.325 63.4645 109.325 64.4507ZM108.308 83.7188C108.599 77.7259 108.962 69.5332 108.962 64.4507C108.962 63.4645 108.962 62.63 108.889 61.9473C108.817 60.6577 108.817 59.5198 108.817 58.5337L108.817 57.5475C108.817 52.8443 108.599 50.872 106.056 49.2789C102.132 46.8514 94.5021 43.5895 72.921 43.5895C51.34 43.5895 43.7103 46.8514 39.7865 49.2789C37.2432 50.872 37.0252 52.8443 37.0252 57.5475L37.0252 58.5337C37.0252 59.5198 37.0252 60.6577 36.9526 61.9473C36.9526 62.63 36.8799 63.4645 36.8799 64.4507C36.8799 69.5332 37.2432 77.7259 37.5339 83.6429C37.5339 83.7188 37.4612 85.2359 38.4059 86.3738C38.9872 87.0565 39.9318 87.4358 41.0944 87.4358L104.748 87.4358C105.91 87.4358 106.855 87.0565 107.436 86.3738C108.381 85.3118 108.308 83.7188 108.308 83.7188Z" fill="#9FB7D3"/>
<path d="M129.245 146.528C129.245 174.671 128.591 199.932 128.009 216.242L128.009 216.394L126.411 216.394L126.411 224.435C126.629 224.056 126.992 223.6 127.501 223.145L127.791 222.842L127.791 223.297C127.646 228 127.501 230.731 127.501 230.731L127.428 231.945L127.138 230.731C127.065 230.428 120.38 203.725 117.691 186.126C114.93 168.375 115.075 148.273 115.148 138.563C115.148 137.197 115.148 135.377 115.148 133.177C115.221 119.75 115.366 91.8337 116.238 80.3032C117.328 66.421 118.055 66.3452 118.563 66.3452C119.363 66.2693 123.795 80.3032 125.03 84.6271C126.629 90.9993 129.245 100.406 129.245 146.528ZM127.646 216.014C128.227 199.705 128.881 174.52 128.881 146.528C128.881 100.482 126.338 91.0751 124.594 84.8547C122.85 78.4826 119.145 67.7106 118.491 66.8762C117.837 67.1796 117.183 71.5794 116.529 80.4549C115.657 91.9854 115.511 119.901 115.439 133.328C115.439 135.528 115.439 137.349 115.439 138.714C115.366 148.348 115.221 168.451 117.982 186.202C119.944 198.719 123.868 216.014 126.048 224.89L126.048 216.09L127.646 216.09L127.646 216.014ZM127.138 229.517C127.21 228.379 127.283 226.407 127.356 223.828C126.702 224.511 126.338 225.269 126.338 225.269L126.193 225.573C126.556 227.242 126.92 228.607 127.138 229.517Z" fill="#9FB7D3"/>
<path d="M19.9548 216.017L19.9548 225.879L19.5915 225.272C19.5915 225.272 18.7922 223.755 17.5569 222.92C16.249 222.01 12.9791 220.948 10.5086 220.341C7.6747 219.658 3.8962 217.383 2.51559 215.79C1.13498 214.197 0.916992 211.542 0.916992 211.466L0.916992 211.238L1.13498 211.238C16.903 213.817 17.0483 213.969 17.121 214.045C17.2663 214.273 17.2663 215.183 17.1936 215.941L19.9548 215.941L19.9548 216.017ZM19.5915 224.513L19.5915 216.472L16.7576 216.472L16.7576 216.245C16.8303 215.486 16.8303 214.652 16.8303 214.424C16.031 214.197 7.23872 212.679 1.28031 211.769C1.35297 212.452 1.71629 214.424 2.80624 215.638C4.11419 217.079 7.89269 219.431 10.6539 220.038C13.2698 220.645 16.467 221.707 17.8476 222.617C18.5742 223.148 19.2282 223.982 19.5915 224.513Z" fill="#9FB7D3"/>
<path d="M145.083 211.237L145.083 211.464C145.083 211.54 144.865 214.271 143.484 215.788C142.104 217.305 138.325 219.657 135.491 220.34C135.273 220.415 135.128 220.415 134.91 220.491C134.619 241.504 134.038 276.551 133.893 281.861C133.675 287.55 132.512 288.764 132.076 288.992C131.931 289.675 131.131 294.226 130.913 295.44C130.841 295.667 130.841 295.971 130.768 296.35C130.477 298.474 129.969 302.874 128.08 304.77C125.972 306.819 117.471 313.191 108.824 315.391C100.613 317.591 82.3016 318.122 72.7827 318.122C63.2637 318.122 44.9525 317.591 36.8142 315.467C28.2399 313.267 19.7383 306.894 17.5584 304.846C15.5965 302.95 15.0878 298.55 14.8699 296.426C14.7972 296.047 14.7972 295.667 14.7245 295.516C14.5065 294.302 13.7072 289.75 13.5619 289.068C13.1986 288.84 11.9633 287.626 11.7453 281.937C11.6 277.082 11.0187 244.387 10.728 220.491C10.6554 220.491 10.5827 220.415 10.51 220.415C7.67616 219.733 3.89766 217.457 2.51706 215.864C1.13645 214.271 0.918458 211.616 0.918458 211.54L0.918458 211.312L1.13645 211.312C1.20911 211.312 6.29556 212.147 10.6554 212.905C10.5827 209.795 10.5827 207.064 10.5827 205.016C10.51 199.023 10.5827 188.1 10.728 172.473L10.6554 172.321C10.6554 172.245 9.78341 170.88 9.78341 169.438C9.78341 167.997 9.85607 161.928 10.0014 159.804C10.0741 157.604 10.8734 153.887 10.946 153.887L11.0187 153.432C11.164 142.812 11.3093 133.33 11.382 127.868C11.5273 119.447 11.6727 107.386 11.6 97.7518C11.4547 97.2208 11.3093 96.7657 11.3093 96.3105C11.3093 95.2485 11.382 91.3797 11.4547 88.6488C11.382 87.3592 11.382 86.2971 11.3093 85.4627C10.8007 77.4216 12.1813 50.8711 12.5446 48.3677C12.7626 47.0023 13.7799 42.6025 14.8699 37.9751C16.0325 33.1201 17.2677 28.1135 17.6311 25.8377C18.3577 21.5896 23.0082 10.1349 30.1292 7.25229C37.3955 4.29379 59.3399 0.500855 72.7827 0.500855C86.2254 0.500856 108.242 4.29379 115.436 7.25229C122.557 10.1349 127.208 21.5896 127.934 25.8377C128.298 28.1135 129.533 33.1201 130.695 37.9751C131.785 42.6025 132.875 47.0023 133.021 48.3677C133.384 50.9469 134.765 77.4975 134.256 85.4627L134.256 85.9937C134.256 86.2213 134.329 86.4489 134.329 86.6006C134.401 88.8005 134.547 94.7933 134.547 96.2346C134.547 96.9932 134.256 97.8277 134.038 98.3587C133.965 107.993 134.111 119.751 134.256 127.868L134.256 128.095C134.329 133.633 134.474 143.191 134.619 153.811L134.837 153.356L134.983 153.887C134.983 153.887 135.782 157.604 135.927 159.804C136 162.004 136.145 167.997 136.145 169.438C136.145 170.88 135.273 172.245 135.273 172.321L135.201 172.473L135.055 172.397C135.055 172.397 134.983 172.397 134.983 172.321C135.128 187.948 135.201 198.947 135.128 204.94C135.128 206.988 135.055 209.719 135.055 212.83C139.488 212.071 144.938 211.161 144.938 211.161L145.083 211.237ZM1.28178 211.692C1.35444 212.374 1.71776 214.347 2.80771 215.561C4.11565 217.002 7.89415 219.353 10.6554 219.96C10.8007 219.96 10.8734 220.036 11.0187 220.036L11.164 220.036L11.164 220.188C11.5273 244.083 12.036 276.854 12.1813 281.785C12.3993 287.93 13.8526 288.688 13.8526 288.688L13.9252 288.764L13.9252 288.84C13.9252 288.84 14.8699 294.074 15.0878 295.364C15.1605 295.592 15.1605 295.895 15.2332 296.35C15.4512 298.398 16.0325 302.722 17.8491 304.543C19.8836 306.591 28.3853 312.887 36.8869 315.087C45.0252 317.211 63.2637 317.742 72.7827 317.742C82.3016 317.742 100.54 317.211 108.678 315.087C117.18 312.887 125.609 306.591 127.716 304.543C129.533 302.798 130.042 298.474 130.332 296.35C130.405 295.895 130.405 295.592 130.477 295.364C130.695 294.074 131.64 288.84 131.64 288.84L131.64 288.764L131.713 288.764C131.713 288.764 133.166 288.082 133.384 281.861C133.529 277.006 134.111 244.235 134.401 220.34L134.401 220.188L134.547 220.188C134.837 220.112 135.055 220.036 135.273 220.036C137.962 219.353 141.74 217.078 143.121 215.636C144.211 214.423 144.502 212.45 144.647 211.768C143.557 211.919 138.761 212.754 134.765 213.436L134.547 213.436L134.547 213.209C134.619 209.947 134.619 207.14 134.619 205.092C134.692 199.023 134.619 187.872 134.474 171.942L134.474 171.259L134.837 171.79C134.91 171.866 134.91 171.942 134.983 171.942C135.201 171.562 135.709 170.5 135.709 169.438C135.709 167.997 135.637 162.004 135.491 159.804C135.419 158.135 134.91 155.708 134.692 154.57C134.692 154.646 134.619 154.722 134.619 154.873L134.256 155.936L134.256 154.798C134.111 143.798 133.965 133.861 133.893 128.095L133.893 127.868C133.747 119.675 133.602 107.917 133.675 98.2828L133.675 98.207C133.893 97.676 134.183 96.9932 134.183 96.2346C134.183 94.7933 134.111 88.8005 133.965 86.6006C133.965 86.373 133.965 86.1454 133.893 85.9178L133.893 85.311C134.401 77.2699 133.021 50.7952 132.657 48.2919C132.439 46.9264 131.422 42.6025 130.332 37.9751C129.17 33.1201 127.934 28.1135 127.571 25.8377C126.844 21.5896 122.267 10.3625 115.291 7.55573C108.242 4.6731 85.9348 0.880128 72.71 0.880128C59.5579 0.880128 37.2502 4.74896 30.1292 7.55573C23.1535 10.3625 18.5757 21.6655 17.8491 25.8377C17.4857 28.1135 16.2505 33.1201 15.0878 37.9751C13.9979 42.6025 12.9079 47.0023 12.7626 48.2919C12.3993 50.8711 11.0187 77.3458 11.5273 85.311C11.6 86.2213 11.6 87.2833 11.6727 88.5729C11.6 91.3038 11.5273 95.0968 11.5273 96.2346C11.5273 96.6898 11.6 97.1449 11.818 97.6001L11.818 97.6759C11.8906 107.386 11.7453 119.447 11.6 127.868C11.5273 133.481 11.382 143.267 11.2367 154.191L11.2367 155.101L11.0187 154.57C10.8007 155.708 10.2921 158.211 10.2194 159.804C10.0741 162.08 10.0014 168.073 10.0014 169.438C10.0014 170.5 10.51 171.487 10.728 171.942L11.0187 171.714L11.0187 172.093C10.8734 187.872 10.8007 198.947 10.8734 204.94C10.8734 207.064 10.946 209.795 10.946 213.057L10.946 213.285L10.728 213.285C6.87687 212.602 2.29906 211.843 1.28178 211.692Z" fill="#9FB7D3"/>
<path d="M30.9233 144.71C30.9233 155.406 30.6326 171.564 28.3074 186.205C25.5462 203.804 18.9338 230.507 18.8611 230.81L18.5705 232.024L18.4978 230.81C18.4978 230.81 18.3525 228.079 18.2072 223.376L18.2072 222.921L18.4978 223.224C18.9338 223.679 19.2971 224.134 19.5878 224.514L19.5878 216.473L17.9892 216.473L17.9892 216.321C17.4079 200.011 16.7539 174.75 16.7539 146.607C16.7539 100.485 19.2971 91.0781 21.0411 84.7818C22.2037 80.382 26.7088 66.424 27.5081 66.4998C28.0894 66.4998 28.816 66.5757 29.8333 80.4578C30.7053 91.9884 30.8506 119.904 30.9233 133.331C30.9233 135.531 30.9233 137.352 30.9233 138.717C30.9233 140.386 30.9233 142.434 30.9233 144.71ZM19.9511 224.893C22.0583 216.017 26.0548 198.722 28.0167 186.205C30.778 168.454 30.6326 148.351 30.56 138.717C30.56 137.352 30.56 135.531 30.56 133.331C30.4873 119.904 30.342 91.9884 29.47 80.4578C28.816 71.5824 28.1621 67.1067 27.5081 66.8791C26.8541 67.7135 23.1483 78.5614 21.4044 84.8576C19.7331 91.0781 17.1172 100.485 17.1172 146.531C17.1172 174.523 17.7712 199.784 18.3525 216.017L19.9511 216.017L19.9511 224.893ZM18.7885 229.52C19.0065 228.61 19.3698 227.32 19.7331 225.576L19.5878 225.272C19.5878 225.272 19.2245 224.59 18.5705 223.831C18.6432 226.41 18.7885 228.307 18.7885 229.52Z" fill="#9FB7D3"/>
<path d="M134.979 199.48C134.979 201.604 134.979 203.425 134.979 204.942C134.979 207.066 134.907 209.797 134.907 213.059L134.907 213.135L134.834 213.135C133.017 213.438 131.637 213.666 130.619 213.894L130.547 213.894L130.547 213.818C130.547 202.439 130.401 182.412 130.256 166.406C130.183 158.441 130.183 151.462 130.111 147.214C129.965 120.587 128.657 100.788 126.187 88.1956C124.37 79.0167 120.301 70.293 119.066 67.8655C118.703 66.9552 118.557 66.7276 118.485 66.7276C117.976 66.8035 117.322 68.4724 116.377 80.4581C115.505 91.9886 115.36 119.905 115.287 133.332C115.287 135.531 115.287 137.352 115.287 138.718C115.215 148.352 115.069 168.454 117.831 186.205C120.301 202.287 126.114 226.107 127.132 230.127C127.132 229.9 127.132 229.596 127.204 229.293L127.422 229.293C127.495 230.81 127.495 232.176 127.495 233.465C127.422 242.341 125.751 266.919 125.751 267.222L125.751 267.677C124.952 269.65 117.685 287.477 115.287 292.635L114.779 293.697C112.526 298.552 110.71 302.345 108.384 304.241C107.004 305.379 105.405 306.441 104.606 306.972L104.097 307.2L101.772 308.641C102.499 309.02 105.986 310.917 109.329 310.31C113.107 309.627 121.754 303.103 124.443 300.145C126.696 297.642 130.038 292.256 130.038 287.401L130.038 287.325C130.038 287.097 129.965 286.87 129.893 286.642C129.965 285.656 130.038 284.518 130.038 283.38C129.965 278.753 128.657 272.229 128.222 270.332C128.222 270.257 128.222 270.181 128.294 270.105C129.239 265.022 130.401 228.838 130.547 222.314C130.547 222.162 130.547 222.01 130.547 221.783L130.547 221.707L130.619 221.707C131.782 221.252 133.235 220.797 134.761 220.417L134.907 220.417L134.907 220.569C134.616 241.582 134.035 276.78 133.889 282.091C133.671 288.008 132.363 289.07 132.073 289.221C132 289.752 131.128 294.531 130.91 295.745C130.837 295.973 130.837 296.276 130.765 296.655C130.619 298.021 130.329 300.373 129.602 302.345L129.602 302.421L129.529 302.421C129.239 302.421 129.021 302.497 128.73 302.648C128.076 303.028 126.914 303.862 125.533 304.848C122.045 307.276 117.322 310.538 115.142 311.372C112.744 312.207 106.422 314.862 102.717 316.758C91.1631 318.275 74.7411 318.351 72.9245 318.351C71.1806 318.351 55.558 318.275 44.0045 316.91C40.2986 314.937 33.8316 312.282 31.361 311.372C29.1811 310.613 24.458 307.276 20.9701 304.848C19.5895 303.862 18.4269 303.103 17.7729 302.648C17.2643 302.345 16.8283 302.345 16.465 302.572L16.3923 302.648L16.3196 302.572C15.5203 300.524 15.2297 298.097 15.0844 296.655C15.0117 296.276 15.0117 295.897 14.939 295.745C14.721 294.531 13.8491 289.752 13.7764 289.221C13.4858 289.07 12.1778 288.008 11.9598 282.091C11.8145 277.16 11.2332 244.389 10.9425 220.493L10.9425 220.342L11.0879 220.342C12.6865 220.721 14.2124 221.252 15.5203 221.707L15.593 221.707L15.593 221.783C15.593 222.01 15.593 222.162 15.593 222.314C15.7383 228.838 16.8283 265.022 17.8456 270.105L17.8456 270.181C17.4096 272.077 16.1017 278.753 16.029 283.456C16.029 284.897 16.1017 286.187 16.247 287.325C16.247 287.401 16.247 287.401 16.247 287.401C16.247 287.477 16.247 287.552 16.247 287.628C16.247 292.483 19.5895 297.945 21.8421 300.373C24.5306 303.331 33.1776 309.855 36.9561 310.538C40.0806 310.917 43.5685 309.02 44.2951 308.641L42.1152 307.124L41.3886 306.972C40.7346 306.517 38.9907 305.379 37.5374 304.165C35.1395 302.269 33.3956 298.4 31.143 293.621L30.6344 292.559C28.3091 287.628 21.5514 271.091 20.2435 267.829L20.2435 267.222C20.2435 266.995 18.5722 242.341 18.4996 233.465C18.4996 232.024 18.4996 230.431 18.5722 228.686L18.7902 228.686C18.7902 229.293 18.8629 229.824 18.8629 230.127C19.8802 226.031 25.6932 202.287 28.1638 186.205C30.925 168.454 30.7797 148.352 30.707 138.718C30.707 137.352 30.707 135.531 30.707 133.332C30.6344 119.905 30.489 91.9886 29.6171 80.4581C28.6725 68.5482 28.0185 66.8035 27.5098 66.7276C27.5098 66.7276 27.4372 66.8035 27.2918 67.1069L27.1465 67.4862C26.2019 69.3068 21.6967 78.5616 19.8075 88.2715C17.3369 100.864 16.029 120.739 15.8837 147.29C15.8837 151.462 15.811 158.289 15.7383 166.103C15.593 182.26 15.5203 202.363 15.4477 213.894L15.4477 213.969L15.375 213.969C14.3577 213.742 12.7591 213.514 10.8699 213.211L10.7972 213.211L10.7972 213.135C10.7246 209.873 10.7246 207.142 10.7246 205.018C10.6519 199.025 10.7246 187.95 10.8699 172.171L10.8699 172.095C11.5965 171.413 11.7418 168.985 11.7418 168.53L10.8699 167.923L11.0879 160.11L11.9598 159.655C11.9598 156.772 11.3059 154.875 11.0152 154.117C11.1605 142.662 11.3059 132.27 11.3785 127.794C11.5239 119.374 11.6692 107.312 11.5965 97.6021L11.5965 96.9953L11.7418 97.5263C11.9598 98.1331 12.1778 98.5883 12.2505 98.74C13.0498 98.1331 13.1225 95.554 13.1951 95.1747L12.3232 94.5677L12.5411 86.7543L13.4131 86.2992C13.4131 83.4924 12.7591 81.5201 12.5411 80.8374C12.3232 81.7477 11.8145 84.5544 11.6692 86.4509C11.6692 86.906 11.5965 87.5887 11.5965 88.4991L11.3785 88.4991C11.3059 87.2095 11.3059 86.1475 11.2332 85.2372C10.7246 77.1961 12.1052 50.7214 12.4685 48.1422C12.6865 46.7768 13.7038 42.377 14.7937 37.7496C15.9563 32.8946 17.1916 27.8879 17.5549 25.6122C18.2816 21.3641 22.932 9.98526 30.0531 7.10263C37.3194 4.14417 59.2638 0.351227 72.7066 0.351228C86.1493 0.351228 108.094 4.14417 115.36 7.10263C122.408 9.98526 127.059 21.3641 127.858 25.6122C128.222 27.8879 129.457 32.8946 130.619 37.7496C131.709 42.377 132.799 46.7768 132.945 48.1422C133.308 50.7214 134.689 77.1961 134.18 85.2372C134.18 85.3889 134.18 85.5406 134.18 85.6164L134.18 85.7682L134.035 85.7682C133.889 83.9476 133.381 81.6718 133.235 80.8374C132.945 81.5201 132.363 83.4924 132.363 86.2992L133.235 86.7543L133.235 86.8302L133.453 94.5678L132.581 95.1747C132.581 95.554 132.727 98.1331 133.526 98.74C133.599 98.6641 133.671 98.4366 133.817 98.1331L133.962 97.7538L133.962 98.209C133.889 107.843 134.035 119.601 134.18 127.794L134.18 128.021C134.253 133.863 134.398 143.724 134.543 154.724C134.253 155.71 133.817 157.379 133.817 159.579L134.616 160.034L134.616 160.11C134.616 162.689 134.689 165.344 134.689 167.999L134.689 168.075L134.035 168.53C134.035 168.909 134.18 170.882 134.689 171.792C134.907 183.778 134.979 193.032 134.979 199.48ZM134.689 213.059C134.761 209.873 134.761 207.066 134.761 205.018C134.834 198.949 134.761 187.798 134.616 171.868C133.962 170.806 133.889 168.53 133.889 168.454L133.889 168.378L134.543 167.923C134.543 165.344 134.471 162.765 134.471 160.186L133.671 159.73L133.671 159.655C133.671 157.379 134.035 155.71 134.398 154.648C134.253 143.648 134.107 133.787 134.035 127.946L134.035 127.718C133.889 119.677 133.744 108.147 133.817 98.5883C133.744 98.8159 133.599 98.9676 133.599 98.9676L133.526 99.0434L133.453 98.9676C132.436 98.3607 132.363 95.2505 132.363 95.1747L132.363 95.0988L133.235 94.4919L133.017 86.9061L132.145 86.4509L132.145 86.375C132.145 82.7338 133.163 80.5339 133.163 80.5339L133.308 80.3063L133.381 80.5339C133.381 80.5339 133.817 82.7338 134.107 84.7061C134.471 76.1341 133.163 50.6456 132.872 48.1422C132.654 46.7768 131.637 42.4528 130.547 37.8254C129.384 32.9705 128.149 27.9638 127.786 25.688C127.059 21.4399 122.481 10.137 115.433 7.3302C108.384 4.44757 86.004 0.654633 72.8519 0.654633C59.6998 0.654633 37.3194 4.52344 30.271 7.3302C23.2953 10.2128 18.6449 21.5158 17.9182 25.688C17.5549 27.9638 16.3196 32.9705 15.157 37.8254C14.0671 42.4528 12.9771 46.8526 12.8318 48.1422C12.4685 50.7214 11.0879 77.1961 11.5965 85.1613C11.5965 85.4647 11.5965 85.7682 11.6692 86.0716C11.8145 83.8717 12.5411 80.5339 12.5411 80.4581L12.6138 80.2305L12.7591 80.4581C12.7591 80.4581 13.7764 82.6579 13.7764 86.2992L13.7764 86.375L12.9045 86.8302L12.6865 94.4161L13.5584 95.0229L13.5584 95.0988C13.5584 95.2505 13.4858 98.2849 12.4685 98.8917L12.3958 98.9676L12.3232 98.8917C12.3232 98.8917 12.1052 98.5124 11.8872 98.0573C11.9598 107.691 11.8145 119.449 11.6692 127.718C11.5965 132.194 11.4512 142.586 11.3059 153.965C11.5965 154.724 12.2505 156.62 12.2505 159.579L12.2505 159.655L11.3785 160.11L11.1605 167.696L12.0325 168.302L12.0325 168.378C12.0325 168.53 11.9598 171.261 11.0879 172.095C10.9425 187.874 10.8699 198.874 10.9425 204.942C10.9425 206.99 11.0152 209.721 11.0152 212.907C12.8318 213.211 14.2851 213.514 15.3024 213.666C15.3024 202.135 15.4477 182.109 15.593 166.027C15.6657 158.213 15.6657 151.386 15.7383 147.214C15.8837 120.587 17.1916 100.788 19.6622 88.1956C21.6241 77.4237 27.0012 67.1828 27.0012 67.0311C27.2192 66.5759 27.2918 66.5 27.3645 66.5C27.8732 66.5 28.5998 66.5759 29.6171 80.3822C30.489 91.9127 30.6344 119.829 30.707 133.256C30.707 135.456 30.707 137.276 30.707 138.642C30.7797 148.276 30.925 168.378 28.1638 186.129C25.4026 203.729 18.7902 230.431 18.7175 230.734L18.5722 231.341L18.5722 231.038C18.5722 231.872 18.5722 232.631 18.5722 233.389C18.6449 242.265 20.3161 266.843 20.3161 267.146L20.3161 267.753C21.6241 271.091 28.3818 287.628 30.707 292.483L31.2157 293.545C33.4682 298.4 35.2122 302.193 37.6101 304.09C39.136 305.303 40.8073 306.441 41.4612 306.821L42.1879 306.972L43.2052 307.655C41.0979 305.531 38.264 301.51 38.1187 301.283C38.046 301.207 33.6862 295.442 28.2365 278.905C23.6587 265.174 22.4234 252.809 21.6967 245.375C21.5514 243.782 21.4061 242.492 21.2608 241.354C21.2608 241.354 20.6068 237.865 21.2608 234.072C21.7694 231.038 25.4753 213.818 27.8732 202.439C28.5271 199.48 29.0358 196.977 29.3991 195.156C31.2883 186.129 33.2503 160.792 33.3956 141.979C33.4682 136.669 33.5409 131.587 33.6136 126.58C33.8316 112.85 34.0496 99.8779 33.6136 85.1613C33.3956 77.9547 33.1049 71.2791 32.8143 65.3621C32.3783 54.666 31.9423 45.4113 32.015 38.053C32.015 37.3703 32.015 36.6876 32.015 36.0048C32.0876 25.6122 32.0876 18.709 38.5547 16.2815C45.5304 13.7023 60.5718 10.8197 72.8519 10.8197C85.132 10.8197 100.246 13.6265 107.149 16.2815C113.616 18.709 113.689 25.6122 113.689 36.0048C113.689 36.6876 113.689 37.3703 113.689 38.053C113.689 38.4323 113.689 38.8116 113.689 39.1909C113.689 46.3216 113.325 55.1971 112.889 65.2863C112.672 71.2033 112.381 77.8788 112.09 85.0854C111.582 99.802 111.8 112.774 112.09 126.504C112.163 131.435 112.236 136.593 112.308 141.904C112.526 160.717 114.415 186.053 116.305 195.081C116.668 196.901 117.249 199.405 117.831 202.287C120.229 213.666 123.934 230.886 124.443 233.92C125.097 237.713 124.443 241.203 124.443 241.203C124.298 242.265 124.152 243.63 124.007 245.147C123.28 252.506 121.972 264.871 117.467 278.677C112.018 295.214 107.658 301.055 107.585 301.055C107.44 301.283 104.17 305.91 101.99 307.883L103.734 306.745L104.243 306.517C105.042 305.986 106.64 304.924 108.021 303.786C110.346 301.89 112.163 298.097 114.415 293.318L114.924 292.256C117.322 287.097 124.516 269.422 125.388 267.374L125.388 266.995C125.388 266.767 127.059 242.113 127.132 233.238C127.132 232.555 127.132 231.796 127.132 231.038L126.986 230.583C126.914 230.279 120.229 203.577 117.54 185.978C114.779 168.227 114.924 148.124 114.997 138.49C114.997 137.125 114.997 135.304 114.997 133.104C115.069 119.677 115.215 91.761 116.087 80.2305C117.177 66.4242 117.903 66.3483 118.339 66.3483C118.412 66.3483 118.557 66.3483 119.066 67.6379C120.301 70.0654 124.443 78.865 126.187 88.0439C128.657 100.636 129.965 120.511 130.111 147.062C130.111 151.31 130.183 158.289 130.256 166.254C130.329 182.26 130.474 202.135 130.547 213.59C131.637 213.59 133.017 213.363 134.689 213.059ZM129.311 301.966C129.965 299.993 130.256 297.717 130.474 296.352C130.547 295.973 130.547 295.593 130.619 295.366C130.837 294.076 131.782 288.842 131.782 288.842L131.782 288.766L131.855 288.766C131.855 288.766 133.381 288.083 133.599 281.787C133.744 276.932 134.325 244.313 134.616 220.417C133.235 220.797 131.855 221.252 130.692 221.631C130.692 221.783 130.692 221.935 130.692 222.086C130.547 228.61 129.457 264.871 128.44 269.953C128.44 270.029 128.44 270.105 128.44 270.105C128.875 272.001 130.183 278.525 130.256 283.228C130.256 284.442 130.256 285.504 130.111 286.49C130.183 286.718 130.256 286.946 130.256 287.249L130.256 287.325C130.256 292.256 126.914 297.717 124.661 300.221C121.972 303.179 113.253 309.779 109.402 310.462C105.55 311.144 101.627 308.717 101.554 308.717C101.481 308.793 101.409 308.793 101.336 308.869C101.191 308.869 89.8552 310.538 72.9972 310.538C56.1393 310.538 44.8038 308.869 44.6584 308.869L44.5858 308.793C44.0045 309.02 40.2986 311.144 36.6654 310.538C32.8869 309.855 24.0946 303.255 21.4061 300.297C19.1535 297.793 15.811 292.332 15.811 287.401C15.811 287.325 15.811 287.249 15.811 287.173L15.811 287.097C15.6657 285.959 15.593 284.67 15.593 283.228C15.6657 278.525 17.0463 271.85 17.4096 269.953C16.465 264.795 15.3024 228.61 15.157 222.086C15.157 221.935 15.157 221.783 15.157 221.631C13.9217 221.176 12.4685 220.721 10.9425 220.342C11.3059 244.237 11.8145 276.932 11.9598 281.787C12.1778 288.083 13.7038 288.766 13.7038 288.766L13.7764 288.766L13.7764 288.842C13.7764 288.842 14.721 294.076 14.939 295.366C15.0117 295.593 15.0117 295.897 15.0844 296.352C15.2297 297.793 15.5203 300.145 16.247 302.117C16.683 301.89 17.1916 301.89 17.7003 302.193C18.3542 302.572 19.5168 303.407 20.8974 304.393C24.3853 306.821 29.1084 310.082 31.2157 310.841C33.6862 311.751 40.1533 314.406 43.8591 316.379C55.4126 317.82 71.0353 317.82 72.7792 317.82C74.5958 317.82 90.9451 317.744 102.499 316.303C106.204 314.331 112.599 311.751 114.924 310.917C117.031 310.158 121.754 306.821 125.242 304.469C126.623 303.483 127.786 302.724 128.44 302.269C128.803 302.041 129.093 301.966 129.311 301.966ZM101.191 308.641C103.153 307.503 107.512 301.283 107.585 301.207C107.658 301.131 112.018 295.366 117.467 278.829C121.972 265.098 123.28 252.733 124.007 245.375C124.152 243.782 124.298 242.492 124.443 241.354C124.443 241.279 125.097 237.865 124.443 234.148C123.934 231.114 120.229 213.894 117.831 202.515C117.177 199.556 116.668 197.053 116.305 195.308C114.415 186.281 112.454 160.944 112.308 142.055C112.236 136.745 112.163 131.663 112.09 126.656C111.872 112.926 111.654 99.9537 112.09 85.1613C112.308 77.9547 112.599 71.2791 112.889 65.3621C113.325 54.666 113.761 45.4113 113.689 38.1288C113.689 37.4461 113.689 36.7634 113.689 36.0807C113.616 25.7639 113.616 18.9366 107.294 16.5091C100.391 13.9299 85.2774 11.1231 72.9972 11.1231C60.7171 11.1231 45.6757 13.9299 38.7 16.5091C32.3056 18.9366 32.3056 25.7639 32.3056 36.0807C32.3056 36.7634 32.3056 37.4461 32.3056 38.1288C32.233 45.4872 32.6689 54.7419 33.1049 65.3621C33.3229 71.2791 33.6136 77.9547 33.9042 85.1613C34.4129 99.9537 34.1949 112.926 33.9042 126.656C33.8316 131.587 33.7589 136.745 33.6862 142.055C33.4682 160.868 31.579 186.281 29.6897 195.308C29.3264 197.129 28.7451 199.632 28.1638 202.591C25.7659 213.969 22.0601 231.189 21.5514 234.148C20.8974 237.865 21.5514 241.354 21.5514 241.354C21.6967 242.416 21.8421 243.782 21.9874 245.375C22.714 252.733 24.022 265.098 28.5271 278.829C33.8316 295.366 38.1914 301.131 38.1914 301.207C38.264 301.283 42.3332 307.124 44.3678 308.489L44.2951 308.565L44.3678 308.565L44.4404 308.641L44.5131 308.565C44.5858 308.565 44.5858 308.641 44.6584 308.641C45.1671 308.717 56.3573 310.31 72.9245 310.31C89.4918 310.31 100.682 308.717 101.191 308.641ZM101.917 8.69565L101.699 8.61981C99.7374 8.24051 86.44 6.26819 74.7411 6.26819C69.582 6.26819 63.0423 6.72333 57.4472 7.25436C62.9697 6.87506 72.8519 6.41989 77.2844 6.41989C82.8068 6.41989 90.6545 7.33023 93.997 7.86124C96.1042 8.16467 98.5748 9.30255 100.319 10.137L100.827 10.4404L100.246 10.3645C94.215 9.45426 82.0802 8.08878 73.6512 8.08878C65.7309 8.08878 54.3953 9.22669 47.2017 10.2128L46.911 10.2887L47.129 10.0611C48.5823 8.69568 51.6341 7.9371 53.9594 7.63367C49.0909 8.08881 45.3851 8.61981 44.5858 8.69565L44.2225 8.77152L44.5131 8.54395C44.8038 8.31638 47.0563 6.57163 49.5269 6.04062C52.0701 5.43375 64.1323 3.99243 71.7619 3.99243C79.101 3.99243 87.0939 4.52344 93.7063 5.35788C99.9554 6.19235 101.699 8.46811 101.772 8.54395L101.917 8.69565ZM44.8764 8.39224C48.001 8.01294 63.9869 6.04062 74.6685 6.04062C85.9313 6.04062 98.7201 7.9371 101.409 8.39224C100.827 7.78537 98.7201 6.11646 93.6337 5.43375C87.0939 4.59931 79.101 4.0683 71.7619 4.0683C64.1323 4.0683 52.0701 5.50961 49.5269 6.04062C47.565 6.57163 45.6031 7.86124 44.8764 8.39224ZM47.4923 9.90942C54.686 8.92325 65.8035 7.78537 73.6512 7.78537C81.8622 7.78537 93.4157 9.07495 99.6647 9.98526C97.9935 9.15082 95.7409 8.24051 93.9243 7.93707C90.5818 7.48193 82.7341 6.49576 77.2117 6.49576C71.6166 6.49576 57.3019 7.1785 54.1047 7.63367C51.9248 8.01294 49.0182 8.69568 47.4923 9.90942Z" fill="#9FB7D3"/>
<path d="M112.599 185.143L111.145 185.371L111.145 185.295C111.145 184.991 109.402 158.517 108.966 141.752C108.53 123.773 108.384 110.27 109.256 90.2437L109.256 90.1679L110.709 90.1679L110.709 90.2437C109.838 110.195 109.91 123.773 110.419 141.752C110.855 158.517 112.599 184.764 112.599 185.067L112.599 185.143ZM111.363 185.143L112.453 184.915C112.381 183.247 110.709 157.986 110.274 141.676C109.838 123.697 109.692 110.195 110.564 90.3196L109.474 90.3196C108.602 110.27 108.675 123.773 109.184 141.676C109.62 157.986 111.218 183.322 111.363 185.143Z" fill="#9FB7D3"/>
<path d="M111.881 64.4551C111.881 72.9512 110.864 90.0953 110.864 90.247L110.864 90.3987L35.0028 90.3987L35.0028 90.247C35.0028 90.0194 33.7675 68.7032 34.0582 61.8C34.1309 60.4346 34.1309 59.2208 34.1309 58.0071C34.1309 53.1521 34.1309 49.2834 38.3453 46.6283C42.9231 43.7457 50.9161 40.4838 73.0059 40.4838C95.0229 40.4838 103.089 43.7457 107.666 46.6283C111.881 49.2834 111.881 53.1522 111.881 58.0071C111.881 59.2208 111.881 60.4346 111.953 61.8C111.881 62.5586 111.881 63.4689 111.881 64.4551ZM110.5 90.0953C110.646 88.0471 111.736 68.3997 111.445 61.8759C111.372 60.5104 111.372 59.2967 111.372 58.083C111.372 53.1522 111.372 49.5868 107.376 47.0835C103.234 44.5043 95.0956 41.0148 72.9332 41.0148C50.7708 41.0148 42.6325 44.5043 38.4907 47.0835C34.4942 49.5868 34.4942 53.1522 34.4942 58.083C34.4942 59.2967 34.4942 60.5863 34.4215 61.8759C34.1309 68.3997 35.2208 87.9712 35.3661 90.0953L110.5 90.0953Z" fill="#9FB7D3"/>
<path d="M37.0331 112.315C37.0331 120.735 36.8151 128.473 36.5971 136.893C36.5244 138.486 36.5244 140.155 36.4518 141.824C36.0158 158.588 34.2719 184.911 34.2719 185.139L34.2719 185.215L32.8186 185.215L32.8186 185.139C32.8186 184.911 34.5625 158.588 34.9985 141.824C35.0712 140.155 35.0712 138.486 35.1438 136.893C35.5798 121.873 35.8705 108.825 35.0712 90.1639L35.2892 90.1639L35.2892 90.3156L36.5244 90.3156L36.5244 90.3914C36.8878 98.5083 37.0331 105.563 37.0331 112.315ZM34.1265 184.987C34.2719 183.318 35.8705 158.057 36.3065 141.748C36.3791 140.079 36.3791 138.41 36.4518 136.817C36.8878 121.873 37.1784 108.901 36.3791 90.3156L35.2892 90.3156C36.0885 108.901 35.7251 121.797 35.3618 136.741C35.2892 138.334 35.2892 140.003 35.2165 141.672C34.7805 157.906 33.1819 183.091 33.0366 184.911L34.1265 184.911L34.1265 184.987Z" fill="#9FB7D3"/>
<path d="M22.4998 80.154L13.4896 74.0853L11.3823 73.0991C11.3823 73.175 11.3823 73.2508 11.3823 73.3267L13.4169 74.237L22.4272 80.3816C22.4998 80.3057 22.4998 80.2299 22.4998 80.154Z" fill="#9FB7D3"/>
<path d="M16.903 146.836L11.1626 148.049C11.1626 148.125 11.1626 148.201 11.1626 148.277L16.903 147.063C16.903 146.987 16.903 146.911 16.903 146.836Z" fill="#9FB7D3"/>
<path d="M18.4965 227.092C18.4965 227.016 18.4965 226.94 18.4965 226.864L15.9533 227.395L11.0122 229.823C11.0122 229.899 11.0122 229.975 11.0122 230.051L15.9533 227.623L18.4965 227.092Z" fill="#9FB7D3"/>
<path d="M33.1873 13.5492C33.2599 17.7214 33.4778 33.8035 33.4778 40.7825C33.4778 45.9409 34.785 48.3684 35.8017 49.4304C35.8744 49.3546 35.8744 49.2787 35.947 49.2029C35.0029 48.1408 33.6956 45.7133 33.6956 40.7825C33.6956 33.7276 33.4778 17.4938 33.4051 13.4733C33.3325 13.4733 33.2599 13.4733 33.1873 13.5492Z" fill="#9FB7D3"/>
<path d="M113.182 13.5471C113.109 13.5471 113.037 13.4712 112.964 13.4712C112.891 17.5676 112.674 33.7255 112.674 40.7803C112.674 46.2422 111.148 48.5938 110.204 49.5041C110.277 49.58 110.277 49.6558 110.35 49.7317C111.366 48.8214 112.964 46.3939 112.964 40.7803C112.891 33.8013 113.109 17.7193 113.182 13.5471Z" fill="#9FB7D3"/>
<path d="M127.423 227.016L130.33 227.547L134.544 229.595C134.544 229.519 134.544 229.443 134.544 229.367L130.402 227.319L127.423 226.712C127.423 226.864 127.423 226.94 127.423 227.016Z" fill="#9FB7D3"/>
<path d="M129.026 146.985L134.403 148.123C134.403 148.047 134.403 147.971 134.403 147.895L129.026 146.758C129.026 146.833 129.026 146.909 129.026 146.985Z" fill="#9FB7D3"/>
<path d="M123.501 80.3833C123.501 80.4591 123.574 80.535 123.574 80.6108L132.875 74.3147L134.183 73.7078C134.183 73.6319 134.183 73.5561 134.183 73.4802L132.802 74.0871L123.501 80.3833Z" fill="#9FB7D3"/>
<path d="M122.701 239.077C122.701 239.077 122.628 239.153 122.555 239.229L124.444 239.76L126.988 244.994L125.68 267.676C125.752 267.524 125.752 267.448 125.752 267.448L125.898 267.6L127.206 245.07L124.59 239.684L122.701 239.077Z" fill="#9FB7D3"/>
<path d="M130.259 283.758C130.259 288.765 129.242 291.799 125.899 296.73C122.484 301.888 114.346 306.516 110.785 307.654C106.934 308.867 104.1 307.35 103.955 307.274L103.664 307.123L103.955 306.971C103.955 306.971 106.207 305.53 108.097 304.012C110.422 302.116 112.238 298.323 114.418 293.544L114.927 292.482C117.47 287.096 125.39 267.6 125.463 267.373L125.536 267.145L128.224 269.497L128.224 269.573C128.224 269.648 130.114 277.841 130.186 283.303C130.259 283.455 130.259 283.606 130.259 283.758ZM104.463 307.123C105.263 307.502 107.661 308.336 110.712 307.35C114.2 306.212 122.193 301.661 125.608 296.578C129.024 291.496 129.968 288.537 129.896 283.303C129.823 278.145 128.152 270.483 128.006 269.724L125.826 267.752C124.882 270.028 117.761 287.551 115.363 292.634L114.854 293.696C112.602 298.551 110.785 302.344 108.387 304.316C106.861 305.53 105.19 306.668 104.463 307.123Z" fill="#9FB7D3"/>
<path d="M130.041 285.959C131.494 281.636 132.874 279.132 133.746 277.767C133.746 277.615 133.746 277.463 133.746 277.312C132.874 278.525 131.566 280.877 130.041 285.125C130.041 285.428 130.041 285.656 130.041 285.959Z" fill="#9FB7D3"/>
<path d="M80.4857 305.833L65.2991 305.833L38.5589 301.737L33.6904 298.93C33.7631 299.082 33.8358 299.157 33.9084 299.309L38.4862 301.964L65.2991 306.061L80.4857 306.061L107.081 301.888L111.586 299.764C111.658 299.688 111.731 299.537 111.804 299.385L107.081 301.585L80.4857 305.833Z" fill="#9FB7D3"/>
<path d="M15.6693 283.604C13.9254 278.977 12.3994 277.004 11.8181 276.322C11.8181 276.473 11.8181 276.549 11.8181 276.701C12.5448 277.535 13.998 279.659 15.6693 284.211C15.6693 284.059 15.6693 283.832 15.6693 283.604Z" fill="#9FB7D3"/>
<path d="M161 255.337L175.815 269.337L201 269.337" stroke="#9FB7D3" stroke-width="0.5"/>
<path d="M161.477 159.337L201 159.337" stroke="#9FB7D3" stroke-width="0.5"/>
<path d="M161 63.3374L175.815 49.3647L201 49.3647" stroke="#9FB7D3" stroke-width="0.5"/>
</svg>
