<svg width="24" height="25" viewBox="0 0 24 25" fill="none" xmlns="http://www.w3.org/2000/svg">
<path d="M5 9.35083C5.26522 9.35083 5.51957 9.45619 5.70711 9.64372C5.89464 9.83126 6 10.0856 6 10.3508C7.57114 10.3485 9.09698 10.8771 10.33 11.8508H12.5C13.833 11.8508 15.03 12.4308 15.854 13.3508H19C19.9453 13.3506 20.8712 13.6183 21.6705 14.1229C22.4698 14.6275 23.1097 15.3483 23.516 16.2018C21.151 19.3228 17.322 21.3508 13 21.3508C10.21 21.3508 7.85 20.7478 5.94 19.6928C5.87004 19.8859 5.74224 20.0527 5.57402 20.1704C5.40579 20.2882 5.20534 20.3512 5 20.3508H2C1.73478 20.3508 1.48043 20.2455 1.29289 20.0579C1.10536 19.8704 1 19.616 1 19.3508V10.3508C1 10.0856 1.10536 9.83126 1.29289 9.64372C1.48043 9.45619 1.73478 9.35083 2 9.35083H5ZM6.001 12.3508L6 17.3728L6.045 17.4048C7.84 18.6648 10.178 19.3508 13 19.3508C16.004 19.3508 18.799 18.1948 20.835 16.2208L20.968 16.0878L20.848 15.9878C20.3758 15.618 19.8034 15.3985 19.205 15.3578L19 15.3508H16.889C16.961 15.6728 17 16.0068 17 16.3508V17.3508H8V15.3508L14.79 15.3498L14.756 15.2718C14.5644 14.8714 14.2696 14.5291 13.9019 14.2803C13.5343 14.0314 13.107 13.8849 12.664 13.8558L12.5 13.8508H9.57C9.10531 13.3756 8.55027 12.998 7.93752 12.7404C7.32477 12.4828 6.66669 12.3504 6.002 12.3508H6.001ZM4 11.3508H3V18.3508H4V11.3508ZM18 5.35083C18.7956 5.35083 19.5587 5.6669 20.1213 6.22951C20.6839 6.79212 21 7.55518 21 8.35083C21 9.14648 20.6839 9.90954 20.1213 10.4722C19.5587 11.0348 18.7956 11.3508 18 11.3508C17.2044 11.3508 16.4413 11.0348 15.8787 10.4722C15.3161 9.90954 15 9.14648 15 8.35083C15 7.55518 15.3161 6.79212 15.8787 6.22951C16.4413 5.6669 17.2044 5.35083 18 5.35083ZM18 7.35083C17.7348 7.35083 17.4804 7.45619 17.2929 7.64372C17.1054 7.83126 17 8.08561 17 8.35083C17 8.61605 17.1054 8.8704 17.2929 9.05794C17.4804 9.24547 17.7348 9.35083 18 9.35083C18.2652 9.35083 18.5196 9.24547 18.7071 9.05794C18.8946 8.8704 19 8.61605 19 8.35083C19 8.08561 18.8946 7.83126 18.7071 7.64372C18.5196 7.45619 18.2652 7.35083 18 7.35083ZM11 2.35083C11.7956 2.35083 12.5587 2.6669 13.1213 3.22951C13.6839 3.79212 14 4.55518 14 5.35083C14 6.14648 13.6839 6.90954 13.1213 7.47215C12.5587 8.03476 11.7956 8.35083 11 8.35083C10.2044 8.35083 9.44129 8.03476 8.87868 7.47215C8.31607 6.90954 8 6.14648 8 5.35083C8 4.55518 8.31607 3.79212 8.87868 3.22951C9.44129 2.6669 10.2044 2.35083 11 2.35083ZM11 4.35083C10.7348 4.35083 10.4804 4.45619 10.2929 4.64372C10.1054 4.83126 10 5.08561 10 5.35083C10 5.61605 10.1054 5.8704 10.2929 6.05794C10.4804 6.24547 10.7348 6.35083 11 6.35083C11.2652 6.35083 11.5196 6.24547 11.7071 6.05794C11.8946 5.8704 12 5.61605 12 5.35083C12 5.08561 11.8946 4.83126 11.7071 4.64372C11.5196 4.45619 11.2652 4.35083 11 4.35083Z" fill="white"/>
</svg>
