<svg width="46" height="57" viewBox="0 0 46 57" fill="none" xmlns="http://www.w3.org/2000/svg">
<g clip-path="url(#clip0_803_16944)">
<path d="M22.2232 56.3501C19.8411 55.5658 17.6897 54.3243 15.6124 52.9551C13.3278 51.448 11.2638 49.6631 9.42628 47.6384C6.32818 44.2244 3.97295 40.3531 2.43006 35.9934C1.60427 33.6606 1.02499 31.2695 0.697813 28.8224C0.549911 27.712 0.450189 26.5893 0.45243 25.461C0.462514 20.941 0.455791 16.4222 0.455791 11.9022C0.455791 10.9632 0.793053 10.6327 1.74321 10.6293C3.21215 10.6237 4.68669 10.7167 6.11193 10.217C8.67556 9.31726 10.6241 6.81525 10.6521 3.95917C10.661 3.074 10.7305 2.18211 10.7383 1.29246C10.7428 0.82522 11.0924 0.604488 11.3949 0.3479C19.1239 0.3479 26.853 0.3479 34.582 0.3479C35.0884 0.671716 35.2531 1.12102 35.2554 1.73056C35.2598 3.21406 35.1747 4.72333 35.736 6.13961C36.7366 8.66403 38.5876 10.1296 41.2913 10.5307C42.3278 10.6842 43.3608 10.5935 44.395 10.6271C45.1245 10.6506 45.5177 11.0159 45.5189 11.7352C45.5211 16.6194 45.5995 21.5046 45.4875 26.3854C45.4214 29.2302 44.8208 32.0213 43.9637 34.7508C42.7345 38.6601 40.8555 42.2266 38.3647 45.4658C36.8341 47.4569 35.0907 49.253 33.1478 50.8609C30.8799 52.7388 28.4138 54.2862 25.7683 55.5635C25.1162 55.8784 24.4305 56.1002 23.7537 56.3467C23.2439 56.3501 22.733 56.3501 22.2232 56.3501ZM26.4944 3.75077C22.5212 3.74741 18.548 3.74965 14.5748 3.73284C14.1267 3.7306 14.0292 3.91099 14.018 4.31772C13.9496 6.85447 12.9412 9.01137 11.2291 10.8333C9.3781 12.8019 7.03631 13.7902 4.36623 13.9975C3.91244 14.0333 3.83513 14.1812 3.83625 14.5812C3.8497 18.3538 3.85306 22.1265 3.84409 25.9002C3.84185 26.8649 3.94606 27.8241 4.0962 28.7653C4.50517 31.3154 5.1472 33.8085 6.14778 36.2007C7.60103 39.6753 9.57642 42.8126 12.1513 45.5644C14.037 47.5802 16.1457 49.327 18.5021 50.7701C19.5957 51.4962 20.7845 52.0441 21.9453 52.6481C22.7576 53.0716 23.4467 52.9293 24.2154 52.5651C28.2558 50.6536 31.7382 48.0205 34.6582 44.6356C36.7915 42.1627 38.4924 39.4265 39.7462 36.4113C40.6762 34.1726 41.3855 31.8768 41.7115 29.4633C41.874 28.2622 42.116 27.0711 42.1227 25.8554C42.1373 23.1943 42.1339 20.5332 42.1362 17.8732C42.1373 16.7617 42.1272 15.649 42.1418 14.5375C42.1463 14.1947 42.0936 14.0344 41.6801 14.0019C41.0179 13.9493 40.3546 13.8619 39.7003 13.6972C35.326 12.5946 32.0923 8.72453 31.9567 4.26842C31.9444 3.86617 31.8155 3.72836 31.4121 3.73284C29.7751 3.75413 28.1348 3.74741 26.4944 3.75077Z" fill="#EFF4F7"/>
<path d="M18.5045 50.7705C16.1481 49.3273 14.0394 47.5805 12.1536 45.5648C9.5788 42.8129 7.60342 39.6756 6.15017 36.201C5.14959 33.8077 4.50756 31.3147 4.09858 28.7656C3.94732 27.8244 3.84424 26.8653 3.84648 25.9005C3.85432 22.1279 3.85208 18.3553 3.83863 14.5816C3.83751 14.1815 3.91483 14.0325 4.36862 13.9978C7.0387 13.7894 9.38048 12.8022 11.2315 10.8336C12.9436 9.0117 13.952 6.85479 14.0203 4.31805C14.0316 3.91131 14.1279 3.73204 14.5772 3.73316C18.5504 3.74997 22.5236 3.74773 26.4968 3.75109C27.3058 4.6329 28.1719 5.46429 28.7299 6.55226C29.3293 7.72091 30.2347 8.65875 31.233 9.47781C32.3882 10.4246 33.4896 11.405 34.4129 12.586C36.3513 15.0645 37.3777 17.897 37.6331 21.0041C37.7732 22.7083 37.6287 24.4215 37.4057 26.1123C37.0964 28.4519 36.5228 30.7298 35.7037 32.9528C33.7832 38.1619 30.6414 42.5026 26.4206 46.0578C24.0474 48.0534 21.4099 49.65 18.5045 50.7705ZM20.8507 36.2996C20.9393 36.2234 21.0513 36.136 21.1544 36.0374C22.0384 35.1971 22.9023 34.3366 23.7774 33.4873C27.02 30.3421 30.2145 27.1465 33.4392 23.9823C33.7664 23.6618 33.7104 23.4669 33.4112 23.1868C32.5216 22.3531 31.6409 21.5094 30.7792 20.6455C30.5081 20.3733 30.3467 20.3834 30.0778 20.65C27.8794 22.8305 25.6665 24.9963 23.4603 27.1689C22.7331 27.8849 21.997 28.593 21.2967 29.3348C20.9393 29.7135 20.6905 29.7292 20.3152 29.346C18.8877 27.8883 17.4255 26.463 15.989 25.0131C15.6831 24.705 15.4523 24.6568 15.1274 24.9907C14.2769 25.8669 13.4086 26.7263 12.5324 27.5757C12.2847 27.8154 12.25 27.9701 12.5178 28.2334C15.1868 30.8452 17.8423 33.4704 20.5034 36.0901C20.593 36.1786 20.6681 36.2918 20.8507 36.2996Z" fill="#56AEFF"/>
<path d="M18.5044 50.7712C21.4098 49.6507 24.0474 48.0541 26.4172 46.0585C30.638 42.5032 33.7798 38.1614 35.7003 32.9535C36.5204 30.7293 37.093 28.4525 37.4023 26.113C37.6263 24.4211 37.7698 22.7079 37.6297 21.0048C37.3742 17.8977 36.3479 15.0652 34.4095 12.5867C33.4862 11.4068 32.3848 10.4253 31.2296 9.4785C30.2312 8.66056 29.3259 7.72272 28.7264 6.55295C28.1685 5.46497 27.3023 4.63359 26.4934 3.75178C28.1337 3.74841 29.7741 3.75514 31.4145 3.73497C31.8178 3.73049 31.9467 3.8683 31.959 4.27055C32.0946 8.72666 35.3283 12.5968 39.7026 13.6993C40.3558 13.864 41.0203 13.9514 41.6824 14.0041C42.0959 14.0366 42.1486 14.1968 42.1441 14.5397C42.1295 15.6512 42.1396 16.7627 42.1385 17.8753C42.1351 20.5364 42.1396 23.1975 42.125 25.8575C42.1183 27.0732 41.8763 28.2643 41.7138 29.4655C41.3878 31.8778 40.6785 34.1748 39.7485 36.4135C38.4958 39.4298 36.795 42.1649 34.6605 44.6377C31.7394 48.0227 28.2581 50.6558 24.2177 52.5673C23.4479 52.9315 22.7599 53.0738 21.9476 52.6502C20.7868 52.0452 19.598 51.4973 18.5044 50.7712Z" fill="#2285E0"/>
<path d="M20.8507 36.2989C20.6681 36.2911 20.593 36.1779 20.5045 36.0905C17.8434 33.4709 15.1879 30.8456 12.5189 28.2338C12.25 27.9705 12.2859 27.817 12.5335 27.5761C13.4097 26.7267 14.278 25.8673 15.1285 24.9911C15.4523 24.6572 15.6842 24.7054 15.9901 25.0135C17.4266 26.4634 18.8888 27.8876 20.3163 29.3464C20.6916 29.7296 20.9404 29.7139 21.2978 29.3352C21.9981 28.5935 22.7342 27.8853 23.4614 27.1693C25.6676 24.9967 27.8806 22.8309 30.0789 20.6504C30.3478 20.3838 30.5092 20.3737 30.7803 20.6459C31.6409 21.5087 32.5215 22.3535 33.4123 23.1872C33.7115 23.4673 33.7675 23.6611 33.4403 23.9827C30.2156 27.1469 27.0212 30.3425 23.7785 33.4877C22.9034 34.337 22.0384 35.1975 21.1555 36.0379C21.0513 36.1354 20.9392 36.2239 20.8507 36.2989Z" fill="white"/>
</g>
<defs>
<clipPath id="clip0_803_16944">
<rect width="45.0956" height="56" fill="white" transform="translate(0.452393 0.351074)"/>
</clipPath>
</defs>
</svg>
