<svg width="41" height="40" viewBox="0 0 41 40" fill="none" xmlns="http://www.w3.org/2000/svg">
<path d="M39.2578 39.2571C38.763 39.7524 38.1706 40 37.4805 40C36.7904 40 36.1979 39.7524 35.7031 39.2571L27.9688 31.5152C24.8438 33.8351 21.3542 34.9951 17.5 34.9951C15.1302 34.9951 12.8646 34.5324 10.7031 33.607C8.54167 32.6817 6.67969 31.437 5.11719 29.8729C3.55469 28.3089 2.3112 26.4516 1.38672 24.3011C0.46224 22.1505 0 19.8827 0 17.4976C0 15.1124 0.46224 12.8381 1.38672 10.6745C2.3112 8.51092 3.55469 6.65363 5.11719 5.10264C6.67969 3.55165 8.54167 2.31346 10.7031 1.38807C12.8646 0.462691 15.1302 0 17.5 0C19.8698 0 22.1354 0.462691 24.2969 1.38807C26.4583 2.31346 28.3203 3.55165 29.8828 5.10264C31.4453 6.65363 32.6888 8.51092 33.6133 10.6745C34.5378 12.8381 35 15.1059 35 17.478C35 21.362 33.8411 24.855 31.5234 27.957L39.2578 35.6989C39.7526 36.1942 40 36.7872 40 37.478C40 38.1688 39.7526 38.7618 39.2578 39.2571ZM17.5 5.00489C15.2344 5.00489 13.1445 5.55881 11.2305 6.66667C9.31641 7.77452 7.79948 9.29293 6.67969 11.2219C5.5599 13.1509 5 15.2428 5 17.4976C5 19.7524 5.5599 21.8442 6.67969 23.7732C7.79948 25.7022 9.31641 27.2206 11.2305 28.3284C13.1445 29.4363 15.2344 29.9902 17.5 29.9902C19.7656 29.9902 21.8555 29.4363 23.7695 28.3284C25.6836 27.2206 27.2005 25.7022 28.3203 23.7732C29.4401 21.8442 30 19.7524 30 17.4976C30 15.2428 29.4401 13.1509 28.3203 11.2219C27.2005 9.29293 25.6836 7.77452 23.7695 6.66667C21.8555 5.55881 19.7656 5.00489 17.5 5.00489Z" fill="#2285E0"/>
</svg>
