<svg width="24" height="25" viewBox="0 0 24 25" fill="none" xmlns="http://www.w3.org/2000/svg">
<path d="M11.628 16.7698L9.581 14.6298L16.372 8.67683L17.582 9.97883L11.628 16.7698ZM20.465 22.8168C22.605 20.6768 24 17.6998 24 14.3508C24 7.74683 18.605 2.35083 12 2.35083C5.395 2.35083 0 7.74683 0 14.3508C0 17.7008 1.302 20.6768 3.535 22.8168L5.209 21.1418C3.442 19.3748 2.419 17.0488 2.419 14.3518C2.41703 13.093 2.66348 11.8461 3.14425 10.6827C3.62502 9.51928 4.33064 8.46216 5.22068 7.57193C6.11073 6.6817 7.1677 5.97585 8.33102 5.49485C9.49435 5.01384 10.7412 4.76712 12 4.76883C13.2587 4.76712 14.5053 5.01377 15.6685 5.49465C16.8317 5.97554 17.8886 6.6812 18.7786 7.57122C19.6686 8.46124 20.3743 9.51812 20.8552 10.6813C21.3361 11.8445 21.5827 13.0912 21.581 14.3498C21.581 16.9548 20.465 19.3738 18.791 21.1408L20.465 22.8168Z" fill="#2285E0"/>
</svg>
