<svg width="114" height="57" viewBox="0 0 114 57" fill="none" xmlns="http://www.w3.org/2000/svg">
<path d="M113.154 29.3063C112.211 31.5731 110.38 32.2947 108.085 32.1926C105.414 32.0764 102.721 32.4988 100.074 31.9462C97.9305 31.4992 96.857 29.954 97.0682 27.8315C97.2441 26.054 98.9759 24.5756 100.919 24.5651C103.383 24.5545 105.85 24.6707 108.304 24.5299C110.672 24.3961 112.274 25.2655 113.157 27.4584C113.154 28.0744 113.154 28.6903 113.154 29.3063Z" fill="#EFF4F7"/>
<path d="M64.8859 49.8092C63.1717 48.5878 61.4752 47.3418 59.7399 46.1556C57.8004 44.8286 55.9349 44.9236 54.0201 46.321C49.733 49.4537 45.4387 52.5687 41.148 55.6944C40.4406 56.2083 39.6944 56.6201 38.8672 56.0147C38.0259 55.3987 38.2653 54.5751 38.5363 53.7514C40.1238 48.9257 41.7077 44.0965 43.274 39.2637C44.3089 36.0712 43.883 34.6492 41.2044 32.6816C37.3149 29.8235 33.3938 27.0111 29.4903 24.1776C29.1348 23.9207 28.7934 23.6426 28.4273 23.3998C27.7585 22.9527 27.4946 22.3403 27.7374 21.5835C27.9908 20.7916 28.642 20.605 29.4129 20.605C34.7314 20.6156 40.0499 20.612 45.3683 20.6085C48.1983 20.605 49.652 19.5666 50.539 16.8669C52.1652 11.9145 53.7773 6.95855 55.3823 1.99908C55.6498 1.17192 55.9349 0.37995 56.9803 0.351791C58.0504 0.323632 58.3284 1.12968 58.5995 1.95332C60.1975 6.86703 61.806 11.7807 63.4216 16.6874C64.4037 19.6722 65.706 20.598 68.8457 20.6085C69.3737 20.6085 69.8982 20.6437 70.4262 20.6613C70.3593 21.2104 69.9299 21.4286 69.5356 21.7208C67.6068 23.1534 65.4596 24.3924 63.8335 26.1136C60.5741 29.5736 59.7892 33.7376 61.3273 38.2852C61.8905 39.9431 62.5382 41.5798 62.9711 43.2728C63.5378 45.4798 64.5797 47.5389 64.8859 49.8092Z" fill="#56AEFF"/>
<path d="M64.8859 49.8096C64.5796 47.5358 63.5378 45.4766 62.9711 43.2767C62.5346 41.5837 61.8869 39.947 61.3273 38.2891C59.7891 33.7415 60.574 29.5775 63.8334 26.1175C65.4596 24.3927 67.6067 23.1573 69.5356 21.7247C69.9298 21.4326 70.3592 21.2143 70.4261 20.6652C75.2166 20.6441 80.0071 20.6335 84.7941 20.5948C85.6213 20.5878 86.1281 20.9503 86.3921 21.693C86.6913 22.5272 86.1739 23.0411 85.5967 23.467C83.1961 25.2375 80.7745 26.9798 78.3634 28.7327C76.4098 30.1477 74.4528 31.5592 72.5028 32.9777C70.4191 34.4947 69.8383 36.2476 70.6373 38.7361C72.1825 43.5231 73.7488 48.3066 75.3081 53.0901C75.4313 53.4632 75.5862 53.8328 75.6601 54.2164C75.7939 54.931 75.7939 55.6173 75.0793 56.089C74.3683 56.5606 73.7664 56.3354 73.1505 55.8848C70.9189 54.2551 68.6767 52.6395 66.4416 51.0098C65.9101 50.6262 65.4033 50.2108 64.8859 49.8096Z" fill="#2285E0"/>
<path d="M8.98721 24.5649C10.2579 24.5649 11.5321 24.5614 12.8027 24.5649C15.2385 24.5719 16.6922 25.8532 16.8857 27.8982C17.1427 30.6155 15.2314 32.0903 13.0069 32.1678C10.2016 32.2628 7.3892 32.2593 4.58388 32.1678C2.45789 32.1009 0.76132 30.1861 0.845797 28.1763C0.933793 26.1136 2.57404 24.5931 4.77043 24.5684C6.17837 24.5508 7.58279 24.5649 8.98721 24.5649Z" fill="#EFF4F7"/>
<path d="M21.6023 11.732C21.5812 14.136 18.9871 16.0614 16.671 15.0266C13.7143 13.7066 10.909 12.0452 8.23394 10.2255C6.3649 8.95481 6.17131 6.9133 7.38566 5.0161C8.37474 3.47441 10.4374 2.98867 12.2853 3.98831C14.8266 5.36457 17.3433 6.79363 19.8178 8.28604C21.004 9.00761 21.6798 10.1304 21.6023 11.732Z" fill="#EFF4F7"/>
<path d="M96.2935 41.4222C96.818 41.3518 97.353 41.5278 97.8599 41.8165C100.447 43.2878 103.062 44.7168 105.614 46.248C107.363 47.3004 107.835 49.4792 106.857 51.3306C106.019 52.9145 103.798 53.7312 102.098 52.8441C99.3804 51.4292 96.7159 49.9051 94.1147 48.2859C92.5379 47.3074 92.0521 45.6109 92.5977 44.0692C93.2348 42.267 94.4175 41.4011 96.2935 41.4222Z" fill="#EFF4F7"/>
<path d="M21.599 45.5712C21.5074 46.4969 21.0851 47.6303 19.927 48.3026C17.3153 49.8161 14.6895 51.3085 12.0496 52.7693C9.8145 54.0083 7.95954 52.5616 7.1183 51.1713C6.12218 49.5275 6.68184 47.3417 8.42416 46.2787C10.962 44.7299 13.5244 43.2164 16.1432 41.8049C18.6071 40.4744 21.6588 42.435 21.599 45.5712Z" fill="#EFF4F7"/>
<path d="M103.516 3.49585C105.297 3.51345 106.87 4.74188 107.289 6.35749C107.68 7.87454 106.891 9.67671 105.462 10.4968C102.995 11.9118 100.524 13.3198 98.0567 14.7277C95.6069 16.1286 93.7871 14.7242 92.8755 13.267C91.809 11.5633 92.4496 9.3564 94.3538 8.20541C96.8247 6.71651 99.352 5.31561 101.851 3.86896C102.404 3.55217 102.992 3.43602 103.516 3.49585Z" fill="#EFF4F7"/>
</svg>
