<svg width="25" height="25" viewBox="0 0 25 25" fill="none" xmlns="http://www.w3.org/2000/svg">
<path d="M12.6667 2.35083C7.15275 2.35083 2.66675 6.83683 2.66675 12.3508V16.4938C2.66675 17.5178 3.56375 18.3508 4.66675 18.3508H5.66675C5.93196 18.3508 6.18632 18.2455 6.37385 18.0579C6.56139 17.8704 6.66675 17.616 6.66675 17.3508V12.2078C6.66675 11.9426 6.56139 11.6883 6.37385 11.5007C6.18632 11.3132 5.93196 11.2078 5.66675 11.2078H4.75875C5.31475 7.33783 8.64475 4.35083 12.6667 4.35083C16.6887 4.35083 20.0187 7.33783 20.5747 11.2078H19.6667C19.4015 11.2078 19.1472 11.3132 18.9596 11.5007C18.7721 11.6883 18.6667 11.9426 18.6667 12.2078V18.3508C18.6667 19.4538 17.7697 20.3508 16.6667 20.3508H14.6667V19.3508H10.6667V22.3508H16.6667C18.8727 22.3508 20.6667 20.5568 20.6667 18.3508C21.7697 18.3508 22.6667 17.5178 22.6667 16.4938V12.3508C22.6667 6.83683 18.1807 2.35083 12.6667 2.35083Z" fill="#2285E0"/>
</svg>
