<svg width="25" height="24" viewBox="0 0 25 24" fill="none" xmlns="http://www.w3.org/2000/svg">
<path d="M20.1249 15.103C20.7738 13.5613 20.9231 11.855 20.552 10.224C20.1809 8.59303 19.3079 7.11938 18.0558 6.01024C16.8038 4.9011 15.2356 4.21225 13.5718 4.04055C11.9079 3.86884 10.2321 4.22292 8.77992 5.05299L7.78792 3.31599C9.30555 2.4486 11.0241 1.99435 12.7721 1.99856C14.5201 2.00278 16.2365 2.4653 17.7499 3.33999C22.2399 5.93199 23.9599 11.482 21.8669 16.11L23.2089 16.884L19.0439 19.098L18.8789 14.384L20.1249 15.103ZM5.37492 8.89699C4.72606 10.4387 4.5767 12.145 4.94783 13.776C5.31897 15.4069 6.19193 16.8806 7.44399 17.9897C8.69605 19.0989 10.2642 19.7877 11.9281 19.9594C13.5919 20.1311 15.2677 19.7771 16.7199 18.947L17.7119 20.684C16.1943 21.5514 14.4757 22.0056 12.7277 22.0014C10.9797 21.9972 9.26335 21.5347 7.74992 20.66C3.25992 18.068 1.53992 12.518 3.63292 7.88999L2.28992 7.11699L6.45492 4.90299L6.61992 9.61699L5.37392 8.89799L5.37492 8.89699ZM14.1649 14.828L11.3339 12L8.50592 14.828L7.09192 13.414L11.3349 9.17199L14.1639 12L16.9929 9.17199L18.4069 10.586L14.1639 14.828H14.1649Z" fill="#29C4A8"/>
</svg>
