<svg width="24" height="23" viewBox="0 0 24 23" fill="none" xmlns="http://www.w3.org/2000/svg">
<g clip-path="url(#clip0_803_17450)">
<path d="M22.2456 7.56991L17.0278 12.7877L15.4466 11.2187L13.7317 12.9458L17.0156 16.2297L23.9727 9.29701L22.2456 7.56991ZM2.43254 7.2172C2.41756 7.86018 2.53316 8.49953 2.77235 9.09655C3.01154 9.69358 3.36935 10.2359 3.82413 10.6907C4.27892 11.1455 4.82122 11.5033 5.41825 11.7425C6.01528 11.9816 6.65463 12.0972 7.29761 12.0823C7.9406 12.0972 8.57994 11.9816 9.17697 11.7425C9.774 11.5033 10.3163 11.1455 10.7711 10.6907C11.2259 10.2359 11.5837 9.69358 11.8229 9.09655C12.0621 8.49953 12.1777 7.86018 12.1627 7.2172C12.1777 6.57421 12.0621 5.93486 11.8229 5.33784C11.5837 4.74081 11.2259 4.1985 10.7711 3.74372C10.3163 3.28893 9.774 2.93112 9.17697 2.69193C8.57994 2.45274 7.9406 2.33714 7.29761 2.35212C6.65463 2.33714 6.01528 2.45274 5.41825 2.69193C4.82122 2.93112 4.27892 3.28893 3.82413 3.74372C3.36935 4.1985 3.01154 4.74081 2.77235 5.33784C2.53316 5.93486 2.41756 6.57421 2.43254 7.2172ZM9.73015 7.2172C9.74579 7.54078 9.69358 7.86407 9.57687 8.16628C9.46016 8.46849 9.28153 8.74295 9.05245 8.97203C8.82337 9.20111 8.54891 9.37974 8.2467 9.49645C7.94448 9.61317 7.6212 9.66538 7.29761 9.64973C6.97402 9.66538 6.65074 9.61317 6.34853 9.49645C6.04632 9.37974 5.77186 9.20111 5.54278 8.97203C5.3137 8.74295 5.13507 8.46849 5.01835 8.16628C4.90164 7.86407 4.84943 7.54078 4.86508 7.2172C4.84943 6.89361 4.90164 6.57032 5.01835 6.26811C5.13507 5.9659 5.3137 5.69144 5.54278 5.46236C5.77186 5.23328 6.04632 5.05465 6.34853 4.93794C6.65074 4.82123 6.97402 4.76901 7.29761 4.78466C7.6212 4.76901 7.94448 4.82123 8.2467 4.93794C8.54891 5.05465 8.82337 5.23328 9.05245 5.46236C9.28153 5.69144 9.46016 5.9659 9.57687 6.26811C9.69358 6.57032 9.74579 6.89361 9.73015 7.2172ZM2.43254 19.3799C2.43254 18.4122 2.81696 17.4841 3.50125 16.7998C4.18553 16.1155 5.11362 15.7311 6.08134 15.7311H8.51388C9.4816 15.7311 10.4097 16.1155 11.094 16.7998C11.7783 17.4841 12.1627 18.4122 12.1627 19.3799V20.5962H14.5952V19.3799C14.5952 18.5813 14.4379 17.7905 14.1323 17.0527C13.8267 16.3148 13.3787 15.6444 12.814 15.0797C12.2493 14.515 11.5789 14.0671 10.8411 13.7615C10.1033 13.4558 9.3125 13.2985 8.51388 13.2985H6.08134C4.46847 13.2985 2.92166 13.9392 1.78118 15.0797C0.640711 16.2202 0 17.767 0 19.3799V20.5962H2.43254V19.3799Z" fill="#2285E0"/>
</g>
<defs>
<clipPath id="clip0_803_17450">
<rect width="23.9727" height="22.2453" fill="white" transform="translate(0 0.35083)"/>
</clipPath>
</defs>
</svg>
