<svg width="173" height="56" viewBox="0 0 173 56" fill="none" xmlns="http://www.w3.org/2000/svg">
<g clip-path="url(#clip0_803_14864)">
<path d="M101.842 38.0731C105.654 38.0731 107.912 36.8629 109.945 34.6441L107.178 31.6185C105.625 33.0593 104.242 33.9814 101.984 33.9814C98.5957 33.9814 96.2525 31.0998 96.2525 27.642C96.2525 24.1265 98.6522 21.3026 101.984 21.3026C104.242 21.3026 105.541 22.1383 107.065 23.5502L109.663 20.4958C107.828 18.6516 105.738 17.2108 102.012 17.2108C95.9419 17.2108 91.7072 21.9077 91.7072 27.642C91.7072 33.4915 96.0266 38.0731 101.842 38.0731Z" fill="white"/>
<path d="M112.861 37.7274H117.208V31.5609L119.495 29.1404L125.621 37.7274H130.844L122.431 26.1148L130.477 17.5566H125.226L117.208 26.3741V17.5566H112.861V37.7274Z" fill="white"/>
<path d="M142.517 38.0731C148.615 38.0731 153.048 33.3762 153.048 27.642C153.048 21.8501 148.672 17.2108 142.574 17.2108C136.476 17.2108 132.043 21.9077 132.043 27.642C132.043 33.4339 136.419 38.0731 142.517 38.0731ZM142.574 33.9814C139.073 33.9814 136.589 31.0998 136.589 27.642C136.589 24.1265 139.017 21.3026 142.517 21.3026C146.018 21.3026 148.502 24.1841 148.502 27.642C148.502 31.1575 146.075 33.9814 142.574 33.9814Z" fill="white"/>
<path d="M156.34 37.7274H160.688V21.5619H168.48V37.7274H172.827V17.5566H156.34V37.7274Z" fill="white"/>
<path d="M0 38.1767H4.43239L6.23923 33.6527H14.5958L16.4027 38.1767H20.948L12.4785 17.8619H8.46954L0 38.1767ZM7.79198 29.7338L10.4175 23.1928L13.0431 29.7338H7.79198Z" fill="white"/>
<path d="M23.4335 38.1767H32.8347C37.2953 38.1767 40.2314 36.3326 40.2314 32.6442C40.2314 29.8779 38.8198 28.5236 36.5331 27.6303C37.9446 26.8235 39.1304 25.5556 39.1304 23.2792C39.1304 21.8384 38.6787 20.7146 37.7753 19.7925C36.646 18.6399 34.8674 18.006 32.6088 18.006H23.4335V38.1767ZM27.6683 26.1607V21.8961H31.9595C33.7946 21.8961 34.8109 22.6453 34.8109 23.9708C34.8109 25.5268 33.5969 26.1607 31.6772 26.1607H27.6683ZM27.6683 34.2867V29.8491H32.6935C34.9238 29.8491 35.912 30.6848 35.912 32.0391C35.912 33.5951 34.7545 34.2867 32.8347 34.2867H27.6683Z" fill="white"/>
<path d="M47.845 38.1767H52.1927V22.0978H58.206V18.006H41.8316V22.0978H47.845V38.1767Z" fill="white"/>
<path d="M0 37.9584H4.43239L6.23923 33.4344H14.5958L16.4027 37.9584H20.948L12.4785 17.6436H8.46954L0 37.9584ZM7.79198 29.5155L10.4175 22.9744L13.0431 29.5155H7.79198Z" fill="white"/>
<path d="M23.4335 37.9584H32.8347C37.2953 37.9584 40.2314 36.1142 40.2314 32.4259C40.2314 29.6596 38.8198 28.3053 36.5331 27.412C37.9446 26.6052 39.1304 25.3373 39.1304 23.0609C39.1304 21.6201 38.6787 20.4963 37.7753 19.5742C36.646 18.4216 34.8674 17.7877 32.6088 17.7877H23.4335V37.9584ZM27.6683 25.9424V21.6777H31.9595C33.7946 21.6777 34.8109 22.4269 34.8109 23.7524C34.8109 25.3085 33.5969 25.9424 31.6772 25.9424H27.6683ZM27.6683 34.0683V29.6308H32.6935C34.9238 29.6308 35.912 30.4664 35.912 31.8207C35.912 33.3768 34.7545 34.0683 32.8347 34.0683H27.6683Z" fill="white"/>
<path d="M47.845 37.9584H52.1927V21.8794H58.206V17.7877H41.8316V21.8794H47.845V37.9584Z" fill="white"/>
<path fill-rule="evenodd" clip-rule="evenodd" d="M85.6701 39.7531C85.745 39.7531 85.8198 39.7203 85.8733 39.6657C86.9748 38.4869 87.8303 37.1444 88.4505 35.6054C89.0815 34.0118 89.4023 32.32 89.4023 30.53V30.4535C89.4023 28.6526 89.0815 26.9717 88.4505 25.3781C87.8196 23.7845 86.932 22.3983 85.8091 21.2086C84.6863 20.0189 83.3282 19.0802 81.7455 18.3817C80.5478 17.8577 79.2538 17.5303 77.8529 17.4102C77.6283 17.3884 77.4679 17.6067 77.5428 17.825L78.7619 21.6561C78.794 21.7544 78.8688 21.8308 78.9651 21.8635C79.2538 21.9618 79.5425 22.0709 79.8206 22.2019C80.8579 22.6821 81.7348 23.337 82.4727 24.1447C83.2105 24.9634 83.788 25.9239 84.1944 27.0154C84.6114 28.1178 84.8146 29.2966 84.8146 30.53V30.6064C84.8146 31.8397 84.6114 33.0076 84.1944 34.0991C83.9056 34.885 83.5207 35.6054 83.0608 36.2603C82.9004 36.4895 83.0501 36.7951 83.3282 36.7951H84.6221C85.1247 36.7951 85.5311 37.2099 85.5311 37.7229V39.6002C85.5204 39.6876 85.5846 39.7531 85.6701 39.7531Z" fill="white"/>
<path d="M78.7498 28.5886L74.0658 15.2179L73.4777 13.4715L67.1683 15.6981L67.2111 15.8291L68.3125 18.9071C67.2538 19.5183 66.3021 20.2496 65.4787 21.1119C64.313 22.3125 63.4041 23.7097 62.7731 25.3032C62.0994 26.9732 61.8107 28.6541 61.8107 30.4551C61.8107 32.256 62.1315 33.9478 62.7731 35.5305C63.4147 37.1241 64.3023 38.5103 65.4466 39.7109C65.5428 39.8091 65.7032 39.7437 65.7032 39.6018L65.6712 37.6589C65.6605 37.1459 66.0668 36.7311 66.5694 36.7311H67.8634C68.1201 36.7311 68.2698 36.4364 68.1307 36.2181C67.6709 35.5196 67.2432 34.6246 66.9651 33.8824C66.5267 32.7145 66.3449 31.5356 66.3449 30.2913C66.3449 29.058 66.655 27.8791 67.0721 26.7986C67.4784 25.7071 68.0559 24.7575 68.7831 23.9389C69.0611 23.6332 69.3498 23.3604 69.6707 23.0984L72.4083 30.7825L74.3439 30.1167L74.6754 31.1536L77.2633 30.2913L76.9318 29.2544L78.7498 28.5886Z" fill="white"/>
<path d="M84.9097 37.6106C84.867 37.4956 84.7066 37.3999 84.5675 37.3999C83.9901 37.3999 83.4126 37.3999 82.8351 37.3999C82.7496 37.3999 82.664 37.4382 82.5892 37.4861C82.5464 37.5244 82.5143 37.5627 82.4929 37.6106C82.4502 37.7256 82.4181 37.8309 82.3967 37.9267L82.2256 37.4956L81.2418 35.0625C81.0493 34.5931 80.5467 34.277 79.9906 34.277H71.1467C70.5907 34.277 70.0774 34.5931 69.8956 35.0625L69.2005 36.7772L68.7406 37.9267C68.7192 37.8309 68.6872 37.7256 68.6444 37.6106C68.6016 37.4956 68.4412 37.3999 68.3022 37.3999C67.7247 37.3999 67.1472 37.3999 66.5698 37.3999C66.4414 37.3999 66.281 37.4956 66.2276 37.6106C66.0565 38.0704 66.0565 38.3291 66.2276 38.7889C66.2703 38.9038 66.4308 38.9996 66.5698 38.9996C67.1472 38.9996 67.7247 38.9996 68.3022 38.9996L68.2808 39.0667C67.9279 39.172 67.6712 39.469 67.6712 39.8234V42.2183V42.4195V43.7606V45.073C67.6712 45.2837 67.8637 45.4561 68.099 45.4561H70.2485C70.4837 45.4561 70.6762 45.2837 70.6762 45.073V43.7606H80.4718V45.073C80.4718 45.2837 80.6643 45.4561 80.8995 45.4561H82.2684H83.049C83.2843 45.4561 83.4768 45.2837 83.4768 45.073V42.4195V42.2183V40.1108V39.8139C83.4768 39.4594 83.2201 39.1625 82.8672 39.0571L82.8458 38.99C83.4233 38.99 84.0008 38.99 84.5782 38.99C84.7066 38.99 84.867 38.8942 84.9204 38.7793C85.0809 38.3291 85.0808 38.0704 84.9097 37.6106ZM70.58 37.4956L71.3072 35.6851H79.8195L80.5467 37.4956L81.1669 39.0284H69.9597L70.58 37.4956ZM71.5424 41.3753H69.7459C69.3609 41.3753 69.0507 41.0975 69.0507 40.7527C69.0507 40.4078 69.3609 40.13 69.7459 40.13H71.5424C71.9274 40.13 72.2375 40.4078 72.2375 40.7527C72.2482 41.0975 71.9274 41.3753 71.5424 41.3753ZM81.3808 41.3753H79.5842C79.1992 41.3753 78.8891 41.0975 78.8891 40.7527C78.8891 40.4078 79.1992 40.13 79.5842 40.13H81.3808C81.7658 40.13 82.0759 40.4078 82.0759 40.7527C82.0759 41.0975 81.7658 41.3753 81.3808 41.3753Z" fill="white"/>
<rect width="4.12782" height="2.794" transform="matrix(0.943432 -0.331565 0.319655 0.947534 67.1971 11.915)" fill="white"/>
</g>
<defs>
<clipPath id="clip0_803_14864">
<rect width="172.828" height="56" fill="white"/>
</clipPath>
</defs>
</svg>
