<svg width="25" height="24" viewBox="0 0 25 24" fill="none" xmlns="http://www.w3.org/2000/svg">
<g clip-path="url(#clip0_803_14881)">
<path d="M12.4933 0C5.86578 0 0.493286 5.37249 0.493286 12C0.493286 18.6275 5.86578 24 12.4933 24C19.1208 24 24.4932 18.6275 24.4932 12C24.4932 5.37249 19.1208 0 12.4933 0ZM17.1083 13.5387C17.1083 13.5387 18.1695 14.5862 18.4308 15.0725C18.4383 15.0825 18.442 15.0925 18.4445 15.0975C18.5508 15.2762 18.5758 15.415 18.5233 15.5187C18.4358 15.6912 18.1358 15.7762 18.0333 15.7837H16.1583C16.0283 15.7837 15.7558 15.75 15.4258 15.5225C15.172 15.345 14.922 15.0537 14.6783 14.77C14.3145 14.3475 13.9995 13.9825 13.682 13.9825C13.6417 13.9824 13.6016 13.9887 13.5633 14.0012C13.3233 14.0787 13.0158 14.4212 13.0158 15.3337C13.0158 15.6187 12.7908 15.7825 12.632 15.7825H11.7733C11.4808 15.7825 9.95702 15.68 8.60702 14.2562C6.95453 12.5125 5.46703 9.01499 5.45453 8.98248C5.36078 8.75624 5.55453 8.63499 5.76578 8.63499H7.65952C7.91202 8.63499 7.99452 8.78874 8.05202 8.92498C8.11952 9.08374 8.36702 9.71498 8.77327 10.425C9.43202 11.5825 9.83577 12.0525 10.1595 12.0525C10.2202 12.0518 10.2799 12.0363 10.3333 12.0075C10.7558 11.7725 10.677 10.2662 10.6583 9.95373C10.6583 9.89498 10.657 9.27998 10.4408 8.98499C10.2858 8.77124 10.022 8.68999 9.86202 8.65999C9.92678 8.57063 10.0121 8.49817 10.1108 8.44874C10.4008 8.30374 10.9233 8.28249 11.442 8.28249H11.7308C12.2933 8.28999 12.4383 8.32624 12.642 8.37749C13.0545 8.47624 13.0633 8.74249 13.027 9.65373C13.0158 9.91248 13.0045 10.205 13.0045 10.55C13.0045 10.625 13.0008 10.705 13.0008 10.79C12.9883 11.2537 12.9733 11.78 13.3008 11.9962C13.3435 12.023 13.3928 12.0373 13.4433 12.0375C13.557 12.0375 13.8995 12.0375 14.827 10.4462C15.1131 9.93406 15.3616 9.40183 15.5708 8.85373C15.5895 8.82124 15.6445 8.72124 15.7095 8.68249C15.7575 8.65803 15.8107 8.64559 15.8645 8.64624H18.0908C18.3333 8.64624 18.4995 8.68249 18.5308 8.77624C18.5858 8.92499 18.5208 9.37873 17.5045 10.755L17.0508 11.3537C16.1295 12.5612 16.1295 12.6225 17.1083 13.5387Z" fill="#9FB7D3"/>
</g>
<defs>
<clipPath id="clip0_803_14881">
<rect width="24" height="24" fill="white" transform="translate(0.493286)"/>
</clipPath>
</defs>
</svg>
