<svg width="155" height="50" viewBox="0 0 155 50" fill="none" xmlns="http://www.w3.org/2000/svg">
<path d="M91.3371 33.9938C94.7552 33.9938 96.7808 32.9132 98.6038 30.9321L96.1225 28.2307C94.7299 29.5171 93.4892 30.3404 91.4637 30.3404C88.4253 30.3404 86.3238 27.7676 86.3238 24.6802C86.3238 21.5414 88.4759 19.0201 91.4637 19.0201C93.4892 19.0201 94.6539 19.7662 96.0212 21.0269L98.3506 18.2997C96.7048 16.6531 94.8312 15.3667 91.489 15.3667C86.0453 15.3667 82.2473 19.5604 82.2473 24.6802C82.2473 29.903 86.1212 33.9938 91.3371 33.9938Z" fill="#3E3E3E"/>
<path d="M101.219 33.685H105.118V28.1792L107.169 26.0181L112.663 33.685H117.347L109.802 23.3167L117.018 15.6754H112.309L105.118 23.5482V15.6754H101.219V33.685Z" fill="#3E3E3E"/>
<path d="M127.816 33.9938C133.285 33.9938 137.261 29.8001 137.261 24.6802C137.261 19.5089 133.336 15.3667 127.867 15.3667C122.398 15.3667 118.423 19.5604 118.423 24.6802C118.423 29.8516 122.347 33.9938 127.816 33.9938ZM127.867 30.3404C124.727 30.3404 122.499 27.7676 122.499 24.6802C122.499 21.5414 124.677 19.0201 127.816 19.0201C130.956 19.0201 133.184 21.5929 133.184 24.6802C133.184 27.8191 131.007 30.3404 127.867 30.3404Z" fill="#3E3E3E"/>
<path d="M140.213 33.685H144.112V19.2516H151.1V33.685H155V15.6754H140.213V33.685Z" fill="#3E3E3E"/>
<path d="M0 34.0864H3.97518L5.59564 30.0471H13.0902L14.7107 34.0864H18.7872L11.1913 15.9481H7.59589L0 34.0864ZM6.98822 26.5481L9.34294 20.7078L11.6977 26.5481H6.98822Z" fill="#3E3E3E"/>
<path d="M21.0163 34.0864H29.4477C33.4482 34.0864 36.0814 32.4398 36.0814 29.1466C36.0814 26.6767 34.8155 25.4675 32.7646 24.6699C34.0306 23.9495 35.094 22.8175 35.094 20.785C35.094 19.4986 34.6889 18.4952 33.8786 17.6719C32.8659 16.6428 31.2707 16.0768 29.2452 16.0768H21.0163V34.0864ZM24.8142 23.3578V19.55H28.6628C30.3086 19.55 31.2201 20.219 31.2201 21.4025C31.2201 22.7918 30.1313 23.3578 28.4096 23.3578H24.8142ZM24.8142 30.6131V26.651H29.3211C31.3214 26.651 32.2075 27.3971 32.2075 28.6063C32.2075 29.9956 31.1694 30.6131 29.4477 30.6131H24.8142Z" fill="#3E3E3E"/>
<path d="M42.9096 34.0864H46.8089V19.7301H52.2019V16.0768H37.5166V19.7301H42.9096V34.0864Z" fill="#3E3E3E"/>
<path d="M0 33.8914H3.97518L5.59564 29.8521H13.0902L14.7107 33.8914H18.7872L11.1913 15.7532H7.59589L0 33.8914ZM6.98822 26.3531L9.34294 20.5129L11.6977 26.3531H6.98822Z" fill="#3E3E3E"/>
<path d="M21.0163 33.8914H29.4477C33.4482 33.8914 36.0814 32.2448 36.0814 28.9516C36.0814 26.4818 34.8155 25.2725 32.7646 24.475C34.0306 23.7546 35.094 22.6226 35.094 20.59C35.094 19.3036 34.6889 18.3002 33.8786 17.477C32.8659 16.4478 31.2707 15.8818 29.2452 15.8818H21.0163V33.8914ZM24.8142 23.1628V19.3551H28.6628C30.3086 19.3551 31.2201 20.024 31.2201 21.2075C31.2201 22.5968 30.1313 23.1628 28.4096 23.1628H24.8142ZM24.8142 30.4181V26.456H29.3211C31.3214 26.456 32.2075 27.2021 32.2075 28.4114C32.2075 29.8007 31.1694 30.4181 29.4477 30.4181H24.8142Z" fill="#3E3E3E"/>
<path d="M42.9096 33.8914H46.8089V19.5352H52.2019V15.8818H37.5166V19.5352H42.9096V33.8914Z" fill="#3E3E3E"/>
<path fill-rule="evenodd" clip-rule="evenodd" d="M76.8331 35.4938C76.9003 35.4938 76.9674 35.4645 77.0154 35.4158C78.0032 34.3633 78.7705 33.1646 79.3267 31.7905C79.8926 30.3676 80.1803 28.8571 80.1803 27.2588V27.1906C80.1803 25.5826 79.8926 24.0818 79.3267 22.659C78.7609 21.2362 77.9648 19.9985 76.9578 18.9362C75.9508 17.874 74.7328 17.0359 73.3133 16.4122C72.2392 15.9444 71.0787 15.652 69.8223 15.5448C69.6209 15.5253 69.477 15.7202 69.5442 15.9151L70.6375 19.3358C70.6663 19.4235 70.7334 19.4917 70.8197 19.521C71.0787 19.6087 71.3376 19.7061 71.587 19.8231C72.5173 20.2519 73.3037 20.8366 73.9655 21.5578C74.6273 22.2887 75.1452 23.1463 75.5096 24.1208C75.8837 25.1051 76.0659 26.1576 76.0659 27.2588V27.3271C76.0659 28.4283 75.8837 29.4711 75.5096 30.4456C75.2507 31.1473 74.9054 31.7905 74.493 32.3752C74.3491 32.5799 74.4834 32.8527 74.7328 32.8527H75.8932C76.344 32.8527 76.7085 33.2231 76.7085 33.6811V35.3573C76.6989 35.4353 76.7564 35.4938 76.8331 35.4938Z" fill="url(#paint0_linear_803_14258)"/>
<path d="M70.6266 25.5255L66.4258 13.5873L65.8983 12.0281L60.2398 14.0161L60.2782 14.1331L61.266 16.8813C60.3165 17.4271 59.4629 18.08 58.7244 18.8499C57.6791 19.9219 56.8638 21.1693 56.298 22.5921C55.6938 24.0832 55.4348 25.584 55.4348 27.192C55.4348 28.8 55.7225 30.3106 56.298 31.7236C56.8734 33.1465 57.6695 34.3842 58.6957 35.4562C58.782 35.5439 58.9259 35.4854 58.9259 35.3587L58.8971 33.624C58.8875 33.166 59.2519 32.7956 59.7027 32.7956H60.8632C61.0934 32.7956 61.2276 32.5325 61.103 32.3376C60.6906 31.7139 60.3069 30.9148 60.0576 30.2521C59.6643 29.2093 59.5013 28.1568 59.5013 27.0458C59.5013 25.9446 59.7794 24.8921 60.1535 23.9273C60.5179 22.9527 61.0358 22.1049 61.688 21.374C61.9374 21.1011 62.1963 20.8575 62.484 20.6236L64.9393 27.4844L66.6752 26.8899L66.9725 27.8157L69.2935 27.0458L68.9962 26.12L70.6266 25.5255Z" fill="#2285E0"/>
<path d="M76.1512 33.581C76.1128 33.4783 75.9689 33.3928 75.8443 33.3928C75.3264 33.3928 74.8085 33.3928 74.2906 33.3928C74.2138 33.3928 74.1371 33.427 74.07 33.4698C74.0316 33.504 74.0028 33.5382 73.9837 33.581C73.9453 33.6836 73.9165 33.7777 73.8973 33.8632L73.7439 33.4783L72.8615 31.3058C72.6889 30.8867 72.2381 30.6045 71.7394 30.6045H63.8078C63.3091 30.6045 62.8488 30.8867 62.6857 31.3058L62.0623 32.8368L61.6499 33.8632C61.6307 33.7777 61.602 33.6836 61.5636 33.581C61.5252 33.4783 61.3814 33.3928 61.2567 33.3928C60.7388 33.3928 60.2209 33.3928 59.703 33.3928C59.5879 33.3928 59.444 33.4783 59.3961 33.581C59.2426 33.9915 59.2426 34.2224 59.3961 34.633C59.4345 34.7356 59.5783 34.8212 59.703 34.8212C60.2209 34.8212 60.7388 34.8212 61.2567 34.8212L61.2375 34.881C60.921 34.9751 60.6908 35.2403 60.6908 35.5567V37.695V37.8746V39.072V40.2438C60.6908 40.432 60.8635 40.5859 61.0745 40.5859H63.0022C63.2132 40.5859 63.3859 40.432 63.3859 40.2438V39.072H72.171V40.2438C72.171 40.432 72.3436 40.5859 72.5546 40.5859H73.7822H74.4824C74.6934 40.5859 74.866 40.432 74.866 40.2438V37.8746V37.695V35.8133V35.5482C74.866 35.2317 74.6358 34.9666 74.3193 34.8725L74.3001 34.8126C74.818 34.8126 75.3359 34.8126 75.8539 34.8126C75.9689 34.8126 76.1128 34.7271 76.1608 34.6244C76.3046 34.2224 76.3046 33.9915 76.1512 33.581ZM63.2995 33.4783L63.9517 31.8618H71.586L72.2381 33.4783L72.7944 34.8468H62.7433L63.2995 33.4783ZM64.1627 36.9423H62.5515C62.2062 36.9423 61.9281 36.6943 61.9281 36.3864C61.9281 36.0785 62.2062 35.8304 62.5515 35.8304H64.1627C64.508 35.8304 64.7861 36.0785 64.7861 36.3864C64.7957 36.6943 64.508 36.9423 64.1627 36.9423ZM72.9862 36.9423H71.375C71.0297 36.9423 70.7516 36.6943 70.7516 36.3864C70.7516 36.0785 71.0297 35.8304 71.375 35.8304H72.9862C73.3315 35.8304 73.6096 36.0785 73.6096 36.3864C73.6096 36.6943 73.3315 36.9423 72.9862 36.9423Z" fill="#2285E0"/>
<rect width="3.70022" height="2.49578" transform="matrix(0.943893 -0.33025 0.320937 0.947101 60.2657 10.6382)" fill="#2285E0"/>
<defs>
<linearGradient id="paint0_linear_803_14258" x1="74.8499" y1="15.5417" x2="74.8499" y2="35.4975" gradientUnits="userSpaceOnUse">
<stop stop-color="#9FB7D3"/>
<stop offset="1" stop-color="#EFF4F7"/>
</linearGradient>
</defs>
</svg>
