<svg width="25" height="24" viewBox="0 0 25 24" fill="none" xmlns="http://www.w3.org/2000/svg">
<path d="M7.75 6V3C7.75 2.73478 7.85536 2.48043 8.04289 2.29289C8.23043 2.10536 8.48478 2 8.75 2H20.75C21.0152 2 21.2696 2.10536 21.4571 2.29289C21.6446 2.48043 21.75 2.73478 21.75 3V17C21.75 17.2652 21.6446 17.5196 21.4571 17.7071C21.2696 17.8946 21.0152 18 20.75 18H17.75V21C17.75 21.552 17.3 22 16.743 22H4.757C4.62513 22.0008 4.4944 21.9755 4.37232 21.9256C4.25025 21.8757 4.13923 21.8022 4.04566 21.7093C3.95208 21.6164 3.87779 21.5059 3.82705 21.3842C3.77632 21.2624 3.75013 21.1319 3.75 21L3.753 7C3.753 6.448 4.203 6 4.759 6H7.75ZM5.752 8L5.75 20H15.75V8H5.752ZM9.75 6H17.75V16H19.75V4H9.75V6ZM7.75 11H13.75V13H7.75V11ZM7.75 15H13.75V17H7.75V15Z" fill="#EEBF45"/>
</svg>
