<svg width="17" height="16" viewBox="0 0 17 16" fill="none" xmlns="http://www.w3.org/2000/svg">
<path d="M8.2213 4C7.526 4.00088 6.85942 4.27748 6.36777 4.76914C5.87611 5.26079 5.59951 5.92736 5.59863 6.62267H6.93197C6.93197 5.91133 7.51063 5.33333 8.2213 5.33333C8.93197 5.33333 9.51063 5.91133 9.51063 6.62267C9.51063 7.02133 9.18997 7.31067 8.69997 7.70667C8.53989 7.83207 8.38615 7.96534 8.2393 8.106C7.57397 8.77067 7.55463 9.47667 7.55463 9.55533V10H8.88797L8.8873 9.578C8.88797 9.56733 8.9093 9.32067 9.1813 9.04933C9.2813 8.94933 9.4073 8.84933 9.53797 8.744C10.0573 8.32333 10.8433 7.688 10.8433 6.62267C10.8428 5.92737 10.5664 5.26069 10.0748 4.76898C9.5832 4.27727 8.9166 4.00071 8.2213 4ZM7.55463 10.6667H8.88797V12H7.55463V10.6667Z" fill="white"/>
<path d="M8.22148 1.33203C4.54548 1.33203 1.55481 4.3227 1.55481 7.9987C1.55481 11.6747 4.54548 14.6654 8.22148 14.6654C11.8975 14.6654 14.8881 11.6747 14.8881 7.9987C14.8881 4.3227 11.8975 1.33203 8.22148 1.33203ZM8.22148 13.332C5.28081 13.332 2.88814 10.9394 2.88814 7.9987C2.88814 5.05803 5.28081 2.66536 8.22148 2.66536C11.1621 2.66536 13.5548 5.05803 13.5548 7.9987C13.5548 10.9394 11.1621 13.332 8.22148 13.332Z" fill="white"/>
</svg>
