<svg width="25" height="25" viewBox="0 0 25 25" fill="none" xmlns="http://www.w3.org/2000/svg">
<g clip-path="url(#clip0_803_14492)">
<path d="M15.934 0.5H8.566C1.842 0.5 0.25 2.092 0.25 8.816V16.184C0.25 22.908 1.842 24.5 8.566 24.5H15.934C22.658 24.5 24.25 22.908 24.25 16.184V8.816C24.25 2.092 22.641 0.5 15.934 0.5ZM19.626 17.623H17.882C17.222 17.623 17.018 17.098 15.832 15.896C14.799 14.896 14.342 14.761 14.088 14.761C13.732 14.761 13.63 14.863 13.63 15.354V16.929C13.63 17.353 13.495 17.607 12.377 17.607C10.531 17.607 8.481 16.489 7.042 14.405C4.874 11.357 4.28 9.07 4.28 8.596C4.28 8.342 4.382 8.105 4.873 8.105H6.617C7.057 8.105 7.227 8.308 7.397 8.782C8.26 11.272 9.7 13.457 10.293 13.457C10.513 13.457 10.615 13.355 10.615 12.797V10.221C10.547 9.035 9.92 8.934 9.92 8.511C9.92 8.307 10.09 8.104 10.36 8.104H13.104C13.477 8.104 13.612 8.307 13.612 8.747V12.22C13.612 12.592 13.782 12.728 13.883 12.728C14.103 12.728 14.29 12.592 14.696 12.186C15.95 10.78 16.847 8.612 16.847 8.612C16.966 8.358 17.169 8.121 17.61 8.121H19.354C19.879 8.121 19.998 8.391 19.879 8.764C19.659 9.781 17.525 12.795 17.525 12.795C17.339 13.1 17.271 13.235 17.525 13.575C17.711 13.829 18.321 14.354 18.728 14.828C19.473 15.675 20.048 16.386 20.201 16.878C20.371 17.368 20.116 17.622 19.625 17.622L19.626 17.623Z" fill="#2285E0"/>
</g>
<defs>
<clipPath id="clip0_803_14492">
<rect width="24" height="24" fill="white" transform="translate(0.25 0.5)"/>
</clipPath>
</defs>
</svg>
